<svg xmlns="http://www.w3.org/2000/svg" xmlns:xlink="http://www.w3.org/1999/xlink" version="1.1" width="595.92pt" height="844.07998pt" viewBox="0 0 595.92 844.07998">
<defs>
<clipPath id="clip_0">
<path transform="matrix(.24,0,0,.24,0,0)" d="M0 0H2483.3333V3515.0565H0Z" fill-rule="evenodd"/>
</clipPath>
<clipPath id="clip_1">
<path transform="matrix(.24,0,0,.24,0,0)" d="M0 0H2483.3333V3509.058H0Z" fill-rule="evenodd"/>
</clipPath>
</defs>
<g clip-path="url(#clip_0)">
<path transform="matrix(.71980676,0,0,.71980676,0,0)" d="M0 0H828V1172H0Z" fill="#ffffff"/>
<path transform="matrix(.71980676,0,0,.71980676,0,0)" d="M0 0H828V1170H0Z" fill="#ffffff"/>
</g>
<g clip-path="url(#clip_1)">
<path transform="matrix(.71980676,0,0,.71980676,.35990338,.35990338)" stroke-width="1" stroke-linecap="butt" stroke-miterlimit="10" stroke-linejoin="miter" fill="none" stroke="#000000" d="M260 92V105.63"/>
<path transform="matrix(.71980676,0,0,.71980676,.35990338,.35990338)" d="M260 110.88 256.5 103.88 260 105.63 263.5 103.88 260 110.88Z"/>
<path transform="matrix(.71980676,0,0,.71980676,.35990338,.35990338)" stroke-width="1" stroke-linecap="butt" stroke-miterlimit="10" stroke-linejoin="miter" fill="none" stroke="#000000" d="M260 110.88 256.5 103.88 260 105.63 263.5 103.88 260 110.88Z"/>
<path transform="matrix(.71980676,0,0,.71980676,.35990338,.35990338)" d="M209 32H311C311.59095 32 312.1762 32.057645 312.7558 32.17293 313.33537 32.28822 313.89814 32.458936 314.44413 32.68508 314.99009 32.91123 315.50874 33.188459 316.0001 33.51677 316.49147 33.84508 316.94609 34.21817 317.36396 34.636037 317.7818 35.0539 318.15489 35.50851 318.4832 35.999868 318.8115 36.491224 319.0887 37.009885 319.31486 37.555849 319.54103 38.10181 319.71174 38.66459 319.82704 39.244184 319.94233 39.823778 319.99998 40.409048 320 41V83C319.99998 83.59094 319.94233 84.17621 319.82704 84.755809 319.71174 85.3354 319.54103 85.89818 319.31486 86.444149 319.0887 86.99011 318.8115 87.508769 318.4832 88.00012 318.15489 88.49148 317.7818 88.94609 317.36396 89.36396 316.94609 89.781818 316.49147 90.1549 316.0001 90.483219 315.50874 90.81153 314.99009 91.08876 314.44413 91.3149 313.89814 91.54105 313.33537 91.71178 312.7558 91.827068 312.1762 91.94235 311.59095 91.99999 311 92H209C208.40904 91.99999 207.82376 91.94235 207.24416 91.827068 206.66457 91.71178 206.10179 91.54105 205.55583 91.3149 205.00988 91.08876 204.49121 90.81153 203.99987 90.483219 203.50852 90.1549 203.0539 89.781818 202.63603 89.36396 202.21816 88.94609 201.84506 88.49148 201.51676 88.00012 201.18843 87.508769 200.91121 86.99011 200.68506 86.444149 200.45891 85.89818 200.2882 85.3354 200.17292 84.755809 200.05764 84.17621 199.99999 83.59094 200 83V41C199.99999 40.409048 200.05764 39.823778 200.17292 39.244184 200.2882 38.66459 200.45891 38.10181 200.68506 37.555849 200.91121 37.009885 201.18843 36.491224 201.51676 35.999868 201.84506 35.50851 202.21816 35.0539 202.63603 34.636037 203.0539 34.21817 203.50852 33.84508 203.99987 33.51677 204.49121 33.188459 205.00988 32.91123 205.55583 32.68508 206.10179 32.458936 206.66457 32.28822 207.24416 32.17293 207.82376 32.057645 208.40904 32 209 32Z" fill="#ffffff"/>
<path transform="matrix(.71980676,0,0,.71980676,.35990338,.35990338)" stroke-width="1" stroke-linecap="butt" stroke-miterlimit="4" stroke-linejoin="miter" fill="none" stroke="#000000" d="M209 32H311C311.59095 32 312.1762 32.057645 312.7558 32.17293 313.33537 32.28822 313.89814 32.458936 314.44413 32.68508 314.99009 32.91123 315.50874 33.188459 316.0001 33.51677 316.49147 33.84508 316.94609 34.21817 317.36396 34.636037 317.7818 35.0539 318.15489 35.50851 318.4832 35.999868 318.8115 36.491224 319.0887 37.009885 319.31486 37.555849 319.54103 38.10181 319.71174 38.66459 319.82704 39.244184 319.94233 39.823778 319.99998 40.409048 320 41V83C319.99998 83.59094 319.94233 84.17621 319.82704 84.755809 319.71174 85.3354 319.54103 85.89818 319.31486 86.444149 319.0887 86.99011 318.8115 87.508769 318.4832 88.00012 318.15489 88.49148 317.7818 88.94609 317.36396 89.36396 316.94609 89.781818 316.49147 90.1549 316.0001 90.483219 315.50874 90.81153 314.99009 91.08876 314.44413 91.3149 313.89814 91.54105 313.33537 91.71178 312.7558 91.827068 312.1762 91.94235 311.59095 91.99999 311 92H209C208.40904 91.99999 207.82376 91.94235 207.24416 91.827068 206.66457 91.71178 206.10179 91.54105 205.55583 91.3149 205.00988 91.08876 204.49121 90.81153 203.99987 90.483219 203.50852 90.1549 203.0539 89.781818 202.63603 89.36396 202.21816 88.94609 201.84506 88.49148 201.51676 88.00012 201.18843 87.508769 200.91121 86.99011 200.68506 86.444149 200.45891 85.89818 200.2882 85.3354 200.17292 84.755809 200.05764 84.17621 199.99999 83.59094 200 83V41C199.99999 40.409048 200.05764 39.823778 200.17292 39.244184 200.2882 38.66459 200.45891 38.10181 200.68506 37.555849 200.91121 37.009885 201.18843 36.491224 201.51676 35.999868 201.84506 35.50851 202.21816 35.0539 202.63603 34.636037 203.0539 34.21817 203.50852 33.84508 203.99987 33.51677 204.49121 33.188459 205.00988 32.91123 205.55583 32.68508 206.10179 32.458936 206.66457 32.28822 207.24416 32.17293 207.82376 32.057645 208.40904 32 209 32Z"/>
<text xml:space="preserve" transform="matrix(.71980676 0 0 .71980676 0 0)" font-size="12" font-family="ArialMT"><tspan y="59" x="205.96875 213.97275 217.96875 224.64075 231.31275 235.30875 241.98075 247.98075 254.65274 260.65275 266.65275 269.31675 275.98875 282.66075 285.99674 292.66874 296.00474 299.34074 307.34474">Preprocessing of S1</tspan></text>
<text xml:space="preserve" transform="matrix(.71980676 0 0 .71980676 0 0)" font-size="12" font-family="ArialMT"><tspan y="74" x="214.98438 222.98838 230.99237 239.65637 242.99237 249.66437 256.33638 259.67237 266.34437 269.68037 273.67637 281.68037 290.34437 297.67637 301.01237">SAR data (SDFI)</tspan></text>
<path transform="matrix(.71980676,0,0,.71980676,.35990338,.35990338)" stroke-width="1" stroke-linecap="butt" stroke-miterlimit="10" stroke-linejoin="miter" fill="none" stroke="#000000" d="M260 172V192H180.5L180.16 205.63"/>
<path transform="matrix(.71980676,0,0,.71980676,.35990338,.35990338)" d="M180.03 210.88 176.7 203.8 180.16 205.63 183.7 203.97 180.03 210.88Z"/>
<path transform="matrix(.71980676,0,0,.71980676,.35990338,.35990338)" stroke-width="1" stroke-linecap="butt" stroke-miterlimit="10" stroke-linejoin="miter" fill="none" stroke="#000000" d="M180.03 210.88 176.7 203.8 180.16 205.63 183.7 203.97 180.03 210.88Z"/>
<path transform="matrix(.71980676,0,0,.71980676,.35990338,.35990338)" stroke-width="1" stroke-linecap="butt" stroke-miterlimit="10" stroke-linejoin="miter" fill="none" stroke="#000000" d="M260 172V192H340.5L340.16 205.63"/>
<path transform="matrix(.71980676,0,0,.71980676,.35990338,.35990338)" d="M340.03 210.88 336.7 203.8 340.16 205.63 343.7 203.97 340.03 210.88Z"/>
<path transform="matrix(.71980676,0,0,.71980676,.35990338,.35990338)" stroke-width="1" stroke-linecap="butt" stroke-miterlimit="10" stroke-linejoin="miter" fill="none" stroke="#000000" d="M340.03 210.88 336.7 203.8 340.16 205.63 343.7 203.97 340.03 210.88Z"/>
<path transform="matrix(.71980676,0,0,.71980676,.35990338,.35990338)" d="M209 112H311C311.59095 112 312.1762 112.05765 312.7558 112.172939 313.33537 112.28822 313.89814 112.45894 314.44413 112.68508 314.99009 112.911228 315.50874 113.188449 316.0001 113.516757 316.49147 113.84508 316.94609 114.21817 317.36396 114.63603 317.7818 115.05389 318.15489 115.50849 318.4832 115.99985 318.8115 116.491199 319.0887 117.00986 319.31486 117.555828 319.54103 118.10179 319.71174 118.66457 319.82704 119.24417 319.94233 119.82377 319.99998 120.40904 320 121V163C319.99998 163.59093 319.94233 164.1762 319.82704 164.7558 319.71174 165.33539 319.54103 165.89817 319.31486 166.44414 319.0887 166.9901 318.8115 167.50876 318.4832 168.0001 318.15489 168.49146 317.7818 168.94608 317.36396 169.36396 316.94609 169.78182 316.49147 170.1549 316.0001 170.48322 315.50874 170.81154 314.99009 171.08876 314.44413 171.3149 313.89814 171.54105 313.33537 171.71176 312.7558 171.82706 312.1762 171.94235 311.59095 172 311 172H209C208.40904 172 207.82376 171.94235 207.24416 171.82706 206.66457 171.71176 206.10179 171.54105 205.55583 171.3149 205.00988 171.08876 204.49121 170.81154 203.99987 170.48322 203.50852 170.1549 203.0539 169.78182 202.63603 169.36396 202.21816 168.94608 201.84506 168.49146 201.51676 168.0001 201.18843 167.50876 200.91121 166.9901 200.68506 166.44414 200.45891 165.89817 200.2882 165.33539 200.17292 164.7558 200.05764 164.1762 199.99999 163.59093 200 163V121C199.99999 120.40904 200.05764 119.82377 200.17292 119.24417 200.2882 118.66457 200.45891 118.10179 200.68506 117.555828 200.91121 117.00986 201.18843 116.491199 201.51676 115.99984 201.84506 115.50849 202.21816 115.05389 202.63603 114.63603 203.0539 114.21817 203.50852 113.84508 203.99987 113.516757 204.49121 113.188449 205.00988 112.91122 205.55583 112.685077 206.10179 112.45893 206.66457 112.288219 207.24416 112.17293 207.82376 112.05764 208.40904 112 209 112Z" fill="#ffffff"/>
<path transform="matrix(.71980676,0,0,.71980676,.35990338,.35990338)" stroke-width="1" stroke-linecap="butt" stroke-miterlimit="4" stroke-linejoin="miter" fill="none" stroke="#000000" d="M209 112H311C311.59095 112 312.1762 112.05765 312.7558 112.172939 313.33537 112.28822 313.89814 112.45894 314.44413 112.68508 314.99009 112.911228 315.50874 113.188449 316.0001 113.516757 316.49147 113.84508 316.94609 114.21817 317.36396 114.63603 317.7818 115.05389 318.15489 115.50849 318.4832 115.99985 318.8115 116.491199 319.0887 117.00986 319.31486 117.555828 319.54103 118.10179 319.71174 118.66457 319.82704 119.24417 319.94233 119.82377 319.99998 120.40904 320 121V163C319.99998 163.59093 319.94233 164.1762 319.82704 164.7558 319.71174 165.33539 319.54103 165.89817 319.31486 166.44414 319.0887 166.9901 318.8115 167.50876 318.4832 168.0001 318.15489 168.49146 317.7818 168.94608 317.36396 169.36396 316.94609 169.78182 316.49147 170.1549 316.0001 170.48322 315.50874 170.81154 314.99009 171.08876 314.44413 171.3149 313.89814 171.54105 313.33537 171.71176 312.7558 171.82706 312.1762 171.94235 311.59095 172 311 172H209C208.40904 172 207.82376 171.94235 207.24416 171.82706 206.66457 171.71176 206.10179 171.54105 205.55583 171.3149 205.00988 171.08876 204.49121 170.81154 203.99987 170.48322 203.50852 170.1549 203.0539 169.78182 202.63603 169.36396 202.21816 168.94608 201.84506 168.49146 201.51676 168.0001 201.18843 167.50876 200.91121 166.9901 200.68506 166.44414 200.45891 165.89817 200.2882 165.33539 200.17292 164.7558 200.05764 164.1762 199.99999 163.59093 200 163V121C199.99999 120.40904 200.05764 119.82377 200.17292 119.24417 200.2882 118.66457 200.45891 118.10179 200.68506 117.555828 200.91121 117.00986 201.18843 116.491199 201.51676 115.99984 201.84506 115.50849 202.21816 115.05389 202.63603 114.63603 203.0539 114.21817 203.50852 113.84508 203.99987 113.516757 204.49121 113.188449 205.00988 112.91122 205.55583 112.685077 206.10179 112.45893 206.66457 112.288219 207.24416 112.17293 207.82376 112.05764 208.40904 112 209 112Z"/>
<text xml:space="preserve" transform="matrix(.71980676 0 0 .71980676 0 0)" font-size="12" font-family="ArialMT"><tspan y="139" x="210.64063 218.64463 228.64063 235.31262 241.98462 248.65662 254.65662 257.9926 263.9926 266.65663 273.3286 279.3286 282.6646 289.3366 293.3326 295.9966 302.6686">KMeans clustering</tspan></text>
<text xml:space="preserve" transform="matrix(.71980676 0 0 .71980676 0 0)" font-size="12" font-family="ArialMT"><tspan y="154" x="223.96875 229.96875 236.64075 243.31275 253.30875 259.98075 266.65275 269.98875 276.66075 279.99674 282.66075 289.33274">segmentation</tspan></text>
<path transform="matrix(.71980676,0,0,.71980676,.35990338,.35990338)" stroke-width="1" stroke-linecap="butt" stroke-miterlimit="10" stroke-linejoin="miter" fill="none" stroke="#000000" d="M260 392V505.63"/>
<path transform="matrix(.71980676,0,0,.71980676,.35990338,.35990338)" d="M260 510.88 256.5 503.88 260 505.63 263.5 503.88 260 510.88Z"/>
<path transform="matrix(.71980676,0,0,.71980676,.35990338,.35990338)" stroke-width="1" stroke-linecap="butt" stroke-miterlimit="10" stroke-linejoin="miter" fill="none" stroke="#000000" d="M260 510.88 256.5 503.88 260 505.63 263.5 503.88 260 510.88Z"/>
<path transform="matrix(.71980676,0,0,.71980676,.35990338,.35990338)" d="M182 312H338C338.78794 312 339.56828 312.07685 340.34107 312.23057 341.11387 312.38429 341.86427 312.6119 342.5922 312.91346 343.32014 313.21498 344.01167 313.5846 344.6668 314.02235 345.32194 314.4601 345.9281 314.95756 346.48527 315.5147 347.0424 316.07188 347.53984 316.678 347.9776 317.33314 348.41539 317.98826 348.785 318.6798 349.08653 319.40776 349.38804 320.1357 349.61567 320.8861 349.76939 321.6589 349.9231 322.4317 349.99998 323.21208 350 324V380C349.99998 380.7879 349.9231 381.56825 349.76939 382.34104 349.61567 383.11384 349.38804 383.8642 349.08653 384.59214 348.785 385.32008 348.41539 386.01164 347.9776 386.66679 347.53984 387.32194 347.0424 387.9281 346.48527 388.48527 345.9281 389.0424 345.32194 389.53984 344.6668 389.9776 344.01167 390.4153 343.32014 390.78495 342.5922 391.0865 341.86427 391.38804 341.11387 391.61567 340.34107 391.76939 339.56828 391.9231 338.78794 391.99998 338 392H182C181.21208 391.99998 180.43172 391.9231 179.65892 391.76936 178.88613 391.61567 178.13574 391.38804 177.40778 391.0865 176.67983 390.78495 175.98828 390.4153 175.33315 389.97758 174.67801 389.53984 174.07186 389.0424 173.51471 388.48527 172.95755 387.9281 172.4601 387.32194 172.02234 386.6668 171.58458 386.01167 171.21495 385.3201 170.91344 384.59217 170.61191 383.8642 170.38428 383.11384 170.23058 382.34107 170.07686 381.56828 170 380.7879 170 380V324C170 323.21208 170.07686 322.4317 170.23058 321.6589 170.38428 320.8861 170.61191 320.1357 170.91344 319.40776 171.21495 318.6798 171.58458 317.98829 172.02234 317.33317 172.4601 316.678 172.95755 316.07188 173.51471 315.5147 174.07186 314.95756 174.67801 314.4601 175.33315 314.02235 175.98828 313.5846 176.67983 313.21498 177.40778 312.91346 178.13574 312.6119 178.88613 312.38429 179.6589 312.23057 180.43172 312.07685 181.21208 312 182 312Z" fill="#ffffff"/>
<path transform="matrix(.71980676,0,0,.71980676,.35990338,.35990338)" stroke-width="1" stroke-linecap="butt" stroke-miterlimit="4" stroke-linejoin="miter" fill="none" stroke="#000000" d="M182 312H338C338.78794 312 339.56828 312.07685 340.34107 312.23057 341.11387 312.38429 341.86427 312.6119 342.5922 312.91346 343.32014 313.21498 344.01167 313.5846 344.6668 314.02235 345.32194 314.4601 345.9281 314.95756 346.48527 315.5147 347.0424 316.07188 347.53984 316.678 347.9776 317.33314 348.41539 317.98826 348.785 318.6798 349.08653 319.40776 349.38804 320.1357 349.61567 320.8861 349.76939 321.6589 349.9231 322.4317 349.99998 323.21208 350 324V380C349.99998 380.7879 349.9231 381.56825 349.76939 382.34104 349.61567 383.11384 349.38804 383.8642 349.08653 384.59214 348.785 385.32008 348.41539 386.01164 347.9776 386.66679 347.53984 387.32194 347.0424 387.9281 346.48527 388.48527 345.9281 389.0424 345.32194 389.53984 344.6668 389.9776 344.01167 390.4153 343.32014 390.78495 342.5922 391.0865 341.86427 391.38804 341.11387 391.61567 340.34107 391.76939 339.56828 391.9231 338.78794 391.99998 338 392H182C181.21208 391.99998 180.43172 391.9231 179.65892 391.76936 178.88613 391.61567 178.13574 391.38804 177.40778 391.0865 176.67983 390.78495 175.98828 390.4153 175.33315 389.97758 174.67801 389.53984 174.07186 389.0424 173.51471 388.48527 172.95755 387.9281 172.4601 387.32194 172.02234 386.6668 171.58458 386.01167 171.21495 385.3201 170.91344 384.59217 170.61191 383.8642 170.38428 383.11384 170.23058 382.34107 170.07686 381.56828 170 380.7879 170 380V324C170 323.21208 170.07686 322.4317 170.23058 321.6589 170.38428 320.8861 170.61191 320.1357 170.91344 319.40776 171.21495 318.6798 171.58458 317.98829 172.02234 317.33317 172.4601 316.678 172.95755 316.07188 173.51471 315.5147 174.07186 314.95756 174.67801 314.4601 175.33315 314.02235 175.98828 313.5846 176.67983 313.21498 177.40778 312.91346 178.13574 312.6119 178.88613 312.38429 179.6589 312.23057 180.43172 312.07685 181.21208 312 182 312Z"/>
<text xml:space="preserve" transform="matrix(.71980676 0 0 .71980676 0 0)" font-size="12" font-family="ArialMT"><tspan y="356" x="175.9375 183.9415 190.6135 197.28549 203.95749 207.29349 209.95749 215.95749 222.62949 225.96549 229.30149 235.97348 239.96949 246.64148 252.64148 259.31349 265.98548 268.64949 275.32148 277.98548 284.65748 291.32948 294.66548 301.33747 304.00148 310.67347 317.34547 321.34147 324.00547 327.34147 334.01347">Adaptive thresholding algorithm</tspan></text>
<path transform="matrix(.71980676,0,0,.71980676,.35990338,.35990338)" stroke-width="1" stroke-linecap="butt" stroke-miterlimit="10" stroke-linejoin="miter" fill="none" stroke="#000000" d="M260 492V535.63"/>
<path transform="matrix(.71980676,0,0,.71980676,.35990338,.35990338)" d="M260 540.88 256.5 533.88 260 535.63 263.5 533.88 260 540.88Z"/>
<path transform="matrix(.71980676,0,0,.71980676,.35990338,.35990338)" stroke-width="1" stroke-linecap="butt" stroke-miterlimit="10" stroke-linejoin="miter" fill="none" stroke="#000000" d="M260 540.88 256.5 533.88 260 535.63 263.5 533.88 260 540.88Z"/>
<path transform="matrix(.71980676,0,0,.71980676,.35990338,.35990338)" stroke-width="1" stroke-linecap="butt" stroke-miterlimit="10" stroke-linejoin="miter" fill="none" stroke="#000000" d="M460 529.5V509.5 532 518.37"/>
<path transform="matrix(.71980676,0,0,.71980676,.35990338,.35990338)" d="M460 513.12 463.5 520.12 460 518.37 456.5 520.12 460 513.12Z"/>
<path transform="matrix(.71980676,0,0,.71980676,.35990338,.35990338)" stroke-width="1" stroke-linecap="butt" stroke-miterlimit="10" stroke-linejoin="miter" fill="none" stroke="#000000" d="M460 513.12 463.5 520.12 460 518.37 456.5 520.12 460 513.12Z"/>
<path transform="matrix(.71980676,0,0,.71980676,.35990338,.35990338)" d="M409 529.5H511C511.5909 529.5 512.17617 529.5576 512.75576 529.6729 513.3354 529.78817 513.8982 529.95889 514.44418 530.185 514.9901 530.41116 515.5087 530.6884 516.0001 531.0167 516.49148 531.34506 516.94607 531.71817 517.36398 532.136 517.7818 532.5538 518.1549 533.00839 518.4832 533.49978 518.8115 533.99118 519.08877 534.5098 519.3149 535.0558 519.541 535.60177 519.71176 536.16458 519.827 536.74417 519.9423 537.3237 519.99996 537.909 520 538.5V580.5C519.99996 581.0909 519.9423 581.67617 519.827 582.2558 519.71176 582.8353 519.541 583.39816 519.3149 583.9441 519.08877 584.49008 518.8115 585.0087 518.4832 585.5001 518.1549 585.9915 517.7818 586.4461 517.36398 586.86398 516.94607 587.28189 516.49148 587.6549 516.00009 587.9832 515.5087 588.3115 514.99008 588.58877 514.4441 588.8149 513.89816 589.041 513.3353 589.21176 512.75576 589.327 512.17617 589.4423 511.5909 589.49996 511 589.5H409C408.40907 589.49996 407.8238 589.4423 407.24418 589.327 406.66456 589.21176 406.10179 589.041 405.55583 588.8149 405.00987 588.58877 404.4912 588.3115 403.99986 587.9832 403.50849 587.6549 403.0539 587.28189 402.63603 586.86398 402.21815 586.4461 401.84507 585.9915 401.51676 585.5001 401.18843 585.0087 400.9112 584.49008 400.68504 583.9441 400.45887 583.39816 400.28816 582.8353 400.17289 582.2558 400.05763 581.67617 399.99998 581.0909 400 580.5V538.5C399.99998 537.909 400.05763 537.3237 400.1729 536.74417 400.28816 536.16458 400.45884 535.60177 400.685 535.0558 400.91117 534.5098 401.1884 533.99118 401.51673 533.49978 401.84507 533.00839 402.21815 532.5538 402.63603 532.136 403.0539 531.71817 403.50849 531.34506 403.99986 531.0167 404.4912 530.6884 405.00987 530.41116 405.55583 530.185 406.10179 529.95889 406.66456 529.78817 407.24418 529.6729 407.8238 529.5576 408.40907 529.5 409 529.5Z" fill="#ffffff"/>
<path transform="matrix(.71980676,0,0,.71980676,.35990338,.35990338)" stroke-width="1" stroke-linecap="butt" stroke-miterlimit="4" stroke-linejoin="miter" fill="none" stroke="#000000" d="M409 529.5H511C511.5909 529.5 512.17617 529.5576 512.75576 529.6729 513.3354 529.78817 513.8982 529.95889 514.44418 530.185 514.9901 530.41116 515.5087 530.6884 516.0001 531.0167 516.49148 531.34506 516.94607 531.71817 517.36398 532.136 517.7818 532.5538 518.1549 533.00839 518.4832 533.49978 518.8115 533.99118 519.08877 534.5098 519.3149 535.0558 519.541 535.60177 519.71176 536.16458 519.827 536.74417 519.9423 537.3237 519.99996 537.909 520 538.5V580.5C519.99996 581.0909 519.9423 581.67617 519.827 582.2558 519.71176 582.8353 519.541 583.39816 519.3149 583.9441 519.08877 584.49008 518.8115 585.0087 518.4832 585.5001 518.1549 585.9915 517.7818 586.4461 517.36398 586.86398 516.94607 587.28189 516.49148 587.6549 516.00009 587.9832 515.5087 588.3115 514.99008 588.58877 514.4441 588.8149 513.89816 589.041 513.3353 589.21176 512.75576 589.327 512.17617 589.4423 511.5909 589.49996 511 589.5H409C408.40907 589.49996 407.8238 589.4423 407.24418 589.327 406.66456 589.21176 406.10179 589.041 405.55583 588.8149 405.00987 588.58877 404.4912 588.3115 403.99986 587.9832 403.50849 587.6549 403.0539 587.28189 402.63603 586.86398 402.21815 586.4461 401.84507 585.9915 401.51676 585.5001 401.18843 585.0087 400.9112 584.49008 400.68504 583.9441 400.45887 583.39816 400.28816 582.8353 400.17289 582.2558 400.05763 581.67617 399.99998 581.0909 400 580.5V538.5C399.99998 537.909 400.05763 537.3237 400.1729 536.74417 400.28816 536.16458 400.45884 535.60177 400.685 535.0558 400.91117 534.5098 401.1884 533.99118 401.51673 533.49978 401.84507 533.00839 402.21815 532.5538 402.63603 532.136 403.0539 531.71817 403.50849 531.34506 403.99986 531.0167 404.4912 530.6884 405.00987 530.41116 405.55583 530.185 406.10179 529.95889 406.66456 529.78817 407.24418 529.6729 407.8238 529.5576 408.40907 529.5 409 529.5Z"/>
<text xml:space="preserve" transform="matrix(.71980676 0 0 .71980676 0 0)" font-size="12" font-family="ArialMT"><tspan y="564" x="415.64064 424.30464 430.97663 437.64863 444.32063 450.32063 456.9926 460.3286 467.0006 473.6726 479.6726 483.0086 489.0086 491.6726 497.6726">Reduce box size</tspan></text>
<path transform="matrix(.71980676,0,0,.71980676,.35990338,.35990338)" stroke-width="1" stroke-linecap="butt" stroke-miterlimit="10" stroke-linejoin="miter" fill="none" stroke="#000000" d="M400 352H356.37"/>
<path transform="matrix(.71980676,0,0,.71980676,.35990338,.35990338)" d="M351.12 352 358.12 348.5 356.37 352 358.12 355.5 351.12 352Z"/>
<path transform="matrix(.71980676,0,0,.71980676,.35990338,.35990338)" stroke-width="1" stroke-linecap="butt" stroke-miterlimit="10" stroke-linejoin="miter" fill="none" stroke="#000000" d="M351.12 352 358.12 348.5 356.37 352 358.12 355.5 351.12 352Z"/>
<path transform="matrix(.71980676,0,0,.71980676,.35990338,.35990338)" d="M409 322H511C511.5909 322 512.17617 322.05766 512.75576 322.1729 513.3354 322.2882 513.8982 322.45893 514.44418 322.68507 514.9901 322.9112 515.5087 323.18843 516.0001 323.51673 516.49148 323.84507 516.94607 324.21815 517.36398 324.63603 517.7818 325.05387 518.1549 325.50846 518.4832 325.99983 518.8115 326.49119 519.08877 327.00984 519.3149 327.55583 519.541 328.1018 519.71176 328.66459 519.827 329.24418 519.9423 329.8238 519.99996 330.40907 520 331V373C519.99996 373.5909 519.9423 374.17616 519.827 374.75575 519.71176 375.33534 519.541 375.8981 519.3149 376.44407 519.08877 376.99003 518.8115 377.50868 518.4832 378.00004 518.1549 378.4914 517.7818 378.94606 517.36398 379.36393 516.94607 379.78178 516.49148 380.15486 516.00009 380.48316 515.5087 380.81147 514.99008 381.08869 514.4441 381.31486 513.89816 381.54103 513.3353 381.71174 512.75576 381.82704 512.17617 381.94233 511.5909 381.99998 511 382H409C408.40907 381.99998 407.8238 381.94233 407.24418 381.827 406.66456 381.71174 406.10179 381.54103 405.55583 381.31486 405.00987 381.08869 404.4912 380.81147 403.99986 380.48316 403.50849 380.15486 403.0539 379.78178 402.63603 379.36393 402.21815 378.94606 401.84507 378.49143 401.51676 378.00007 401.18843 377.5087 400.9112 376.99006 400.68504 376.4441 400.45887 375.8981 400.28816 375.33534 400.17289 374.75575 400.05763 374.17616 399.99998 373.5909 400 373V331C399.99998 330.40907 400.05763 329.8238 400.1729 329.24418 400.28816 328.66459 400.45884 328.1018 400.685 327.55583 400.91117 327.00984 401.1884 326.49119 401.51673 325.99983 401.84507 325.50846 402.21815 325.05387 402.63603 324.63603 403.0539 324.21815 403.50849 323.84507 403.99986 323.51673 404.4912 323.18843 405.00987 322.9112 405.55583 322.68507 406.10179 322.45893 406.66456 322.2882 407.24418 322.1729 407.8238 322.05766 408.40907 322 409 322Z" fill="#ffffff"/>
<path transform="matrix(.71980676,0,0,.71980676,.35990338,.35990338)" stroke-width="1" stroke-linecap="butt" stroke-miterlimit="4" stroke-linejoin="miter" fill="none" stroke="#000000" d="M409 322H511C511.5909 322 512.17617 322.05766 512.75576 322.1729 513.3354 322.2882 513.8982 322.45893 514.44418 322.68507 514.9901 322.9112 515.5087 323.18843 516.0001 323.51673 516.49148 323.84507 516.94607 324.21815 517.36398 324.63603 517.7818 325.05387 518.1549 325.50846 518.4832 325.99983 518.8115 326.49119 519.08877 327.00984 519.3149 327.55583 519.541 328.1018 519.71176 328.66459 519.827 329.24418 519.9423 329.8238 519.99996 330.40907 520 331V373C519.99996 373.5909 519.9423 374.17616 519.827 374.75575 519.71176 375.33534 519.541 375.8981 519.3149 376.44407 519.08877 376.99003 518.8115 377.50868 518.4832 378.00004 518.1549 378.4914 517.7818 378.94606 517.36398 379.36393 516.94607 379.78178 516.49148 380.15486 516.00009 380.48316 515.5087 380.81147 514.99008 381.08869 514.4441 381.31486 513.89816 381.54103 513.3353 381.71174 512.75576 381.82704 512.17617 381.94233 511.5909 381.99998 511 382H409C408.40907 381.99998 407.8238 381.94233 407.24418 381.827 406.66456 381.71174 406.10179 381.54103 405.55583 381.31486 405.00987 381.08869 404.4912 380.81147 403.99986 380.48316 403.50849 380.15486 403.0539 379.78178 402.63603 379.36393 402.21815 378.94606 401.84507 378.49143 401.51676 378.00007 401.18843 377.5087 400.9112 376.99006 400.68504 376.4441 400.45887 375.8981 400.28816 375.33534 400.17289 374.75575 400.05763 374.17616 399.99998 373.5909 400 373V331C399.99998 330.40907 400.05763 329.8238 400.1729 329.24418 400.28816 328.66459 400.45884 328.1018 400.685 327.55583 400.91117 327.00984 401.1884 326.49119 401.51673 325.99983 401.84507 325.50846 402.21815 325.05387 402.63603 324.63603 403.0539 324.21815 403.50849 323.84507 403.99986 323.51673 404.4912 323.18843 405.00987 322.9112 405.55583 322.68507 406.10179 322.45893 406.66456 322.2882 407.24418 322.1729 407.8238 322.05766 408.40907 322 409 322Z"/>
<text xml:space="preserve" transform="matrix(.71980676 0 0 .71980676 0 0)" font-size="12" font-family="ArialMT"><tspan y="356" x="410.64064 418.64463 422.64064 429.31263 435.31263 441.98463 447.98463 453.98463 457.32063 463.9926 470.6646 476.6646 480.0006 483.3366 489.3366 496.0086 502.6806">Process next seed</tspan></text>
<path transform="matrix(.71980676,0,0,.71980676,.35990338,.35990338)" stroke-width="1" stroke-linecap="butt" stroke-miterlimit="10" stroke-linejoin="miter" fill="none" stroke="#000000" d="M260 702V710.63"/>
<path transform="matrix(.71980676,0,0,.71980676,.35990338,.35990338)" d="M260 715.88 256.5 708.88 260 710.63 263.5 708.88 260 715.88Z"/>
<path transform="matrix(.71980676,0,0,.71980676,.35990338,.35990338)" stroke-width="1" stroke-linecap="butt" stroke-miterlimit="10" stroke-linejoin="miter" fill="none" stroke="#000000" d="M260 715.88 256.5 708.88 260 710.63 263.5 708.88 260 715.88Z"/>
<path transform="matrix(.71980676,0,0,.71980676,.35990338,.35990338)" d="M209 642H311C311.59095 642 312.1762 642.0576 312.7558 642.1729 313.33537 642.2882 313.89814 642.4589 314.44413 642.68508 314.99009 642.91116 315.50874 643.18838 316.0001 643.5167 316.49147 643.845 316.94609 644.2181 317.36396 644.636 317.7818 645.05386 318.15489 645.5084 318.4832 645.9998 318.8115 646.49118 319.0887 647.00979 319.31486 647.5557 319.54103 648.10177 319.71174 648.66458 319.82704 649.24417 319.94233 649.8237 319.99998 650.409 320 651V693C319.99998 693.5909 319.94233 694.17617 319.82704 694.75576 319.71174 695.3353 319.54103 695.8981 319.31486 696.44406 319.0887 696.99 318.8115 697.5086 318.4832 698 318.15489 698.4914 317.7818 698.946 317.36396 699.3639 316.94609 699.78176 316.49147 700.1548 316.0001 700.4831 315.50874 700.8114 314.99009 701.0887 314.44413 701.3148 313.89814 701.54098 313.33537 701.71176 312.7558 701.827 312.1762 701.9423 311.59095 701.99996 311 702H209C208.40904 701.99996 207.82376 701.9423 207.24416 701.827 206.66457 701.71176 206.10179 701.54098 205.55583 701.3148 205.00988 701.0887 204.49121 700.8114 203.99987 700.4831 203.50852 700.1548 203.0539 699.78176 202.63603 699.3639 202.21816 698.946 201.84506 698.4914 201.51676 698.00009 201.18843 697.50869 200.91121 696.99 200.68506 696.44406 200.45891 695.8981 200.2882 695.3353 200.17292 694.75576 200.05764 694.17617 199.99999 693.5909 200 693V651C199.99999 650.409 200.05764 649.8237 200.17292 649.24417 200.2882 648.66458 200.45891 648.10177 200.68506 647.5557 200.91121 647.00979 201.18843 646.49118 201.51676 645.9998 201.84506 645.5084 202.21816 645.05386 202.63603 644.636 203.0539 644.2181 203.50852 643.845 203.99987 643.5167 204.49121 643.18838 205.00988 642.91116 205.55583 642.68508 206.10179 642.4589 206.66457 642.2882 207.24416 642.1729 207.82376 642.0576 208.40904 642 209 642Z" fill="#ffffff"/>
<path transform="matrix(.71980676,0,0,.71980676,.35990338,.35990338)" stroke-width="1" stroke-linecap="butt" stroke-miterlimit="4" stroke-linejoin="miter" fill="none" stroke="#000000" d="M209 642H311C311.59095 642 312.1762 642.0576 312.7558 642.1729 313.33537 642.2882 313.89814 642.4589 314.44413 642.68508 314.99009 642.91116 315.50874 643.18838 316.0001 643.5167 316.49147 643.845 316.94609 644.2181 317.36396 644.636 317.7818 645.05386 318.15489 645.5084 318.4832 645.9998 318.8115 646.49118 319.0887 647.00979 319.31486 647.5557 319.54103 648.10177 319.71174 648.66458 319.82704 649.24417 319.94233 649.8237 319.99998 650.409 320 651V693C319.99998 693.5909 319.94233 694.17617 319.82704 694.75576 319.71174 695.3353 319.54103 695.8981 319.31486 696.44406 319.0887 696.99 318.8115 697.5086 318.4832 698 318.15489 698.4914 317.7818 698.946 317.36396 699.3639 316.94609 699.78176 316.49147 700.1548 316.0001 700.4831 315.50874 700.8114 314.99009 701.0887 314.44413 701.3148 313.89814 701.54098 313.33537 701.71176 312.7558 701.827 312.1762 701.9423 311.59095 701.99996 311 702H209C208.40904 701.99996 207.82376 701.9423 207.24416 701.827 206.66457 701.71176 206.10179 701.54098 205.55583 701.3148 205.00988 701.0887 204.49121 700.8114 203.99987 700.4831 203.50852 700.1548 203.0539 699.78176 202.63603 699.3639 202.21816 698.946 201.84506 698.4914 201.51676 698.00009 201.18843 697.50869 200.91121 696.99 200.68506 696.44406 200.45891 695.8981 200.2882 695.3353 200.17292 694.75576 200.05764 694.17617 199.99999 693.5909 200 693V651C199.99999 650.409 200.05764 649.8237 200.17292 649.24417 200.2882 648.66458 200.45891 648.10177 200.68506 647.5557 200.91121 647.00979 201.18843 646.49118 201.51676 645.9998 201.84506 645.5084 202.21816 645.05386 202.63603 644.636 203.0539 644.2181 203.50852 643.845 203.99987 643.5167 204.49121 643.18838 205.00988 642.91116 205.55583 642.68508 206.10179 642.4589 206.66457 642.2882 207.24416 642.1729 207.82376 642.0576 208.40904 642 209 642Z"/>
<text xml:space="preserve" transform="matrix(.71980676 0 0 .71980676 0 0)" font-size="12" font-family="ArialMT"><tspan y="662" x="202.29688 209.62888 212.29288 215.62888 218.96488 226.96887 235.63288 243.63687 246.97287 253.64487 260.31687 266.98887 270.32487 273.66087 276.32487 282.99687 289.66886 293.00486 295.66886 302.34086 308.34086 315.01286">Fit KDE and find local</tspan></text>
<text xml:space="preserve" transform="matrix(.71980676 0 0 .71980676 0 0)" font-size="12" font-family="ArialMT"><tspan y="676" x="205.625 215.621 218.285 224.957 228.293 231.629 238.301 244.97299 248.30899 256.973 263.645 270.317 276.98899 280.32499 286.32499 288.98899 295.66099 301.66099 307.66099">min. between class1</tspan></text>
<text xml:space="preserve" transform="matrix(.71980676 0 0 .71980676 0 0)" font-size="12" font-family="ArialMT"><tspan y="691" x="256.64064">2</tspan></text>
<path transform="matrix(.71980676,0,0,.71980676,.35990338,.35990338)" stroke-width="1" stroke-linecap="butt" stroke-miterlimit="10" stroke-linejoin="miter" fill="none" stroke="#000000" d="M260 902V922 909.5 923.13"/>
<path transform="matrix(.71980676,0,0,.71980676,.35990338,.35990338)" d="M260 928.38 256.5 921.38 260 923.13 263.5 921.38 260 928.38Z"/>
<path transform="matrix(.71980676,0,0,.71980676,.35990338,.35990338)" stroke-width="1" stroke-linecap="butt" stroke-miterlimit="10" stroke-linejoin="miter" fill="none" stroke="#000000" d="M260 928.38 256.5 921.38 260 923.13 263.5 921.38 260 928.38Z"/>
<path transform="matrix(.71980676,0,0,.71980676,.35990338,.35990338)" d="M209 842H311C311.59095 842 312.1762 842.0577 312.7558 842.173 313.33537 842.2882 313.89814 842.45889 314.44413 842.685 314.99009 842.9112 315.50874 843.1884 316.0001 843.5167 316.49147 843.84506 316.94609 844.21817 317.36396 844.636 317.7818 845.05386 318.15489 845.5084 318.4832 845.99978 318.8115 846.49118 319.0887 847.0098 319.31486 847.5558 319.54103 848.10177 319.71174 848.66458 319.82704 849.24417 319.94233 849.8237 319.99998 850.409 320 851V893C319.99998 893.5909 319.94233 894.17617 319.82704 894.7557 319.71174 895.33529 319.54103 895.898 319.31486 896.444 319.0887 896.9899 318.8115 897.5086 318.4832 897.99996 318.15489 898.49136 317.7818 898.946 317.36396 899.3639 316.94609 899.78176 316.49147 900.15487 316.0001 900.48318 315.50874 900.81149 314.99009 901.0887 314.44413 901.3148 313.89814 901.54098 313.33537 901.71176 312.7558 901.827 312.1762 901.9423 311.59095 901.99996 311 902H209C208.40904 901.99996 207.82376 901.9423 207.24416 901.827 206.66457 901.71176 206.10179 901.54098 205.55583 901.3148 205.00988 901.0887 204.49121 900.8114 203.99987 900.48306 203.50852 900.1548 203.0539 899.78176 202.63603 899.3639 202.21816 898.946 201.84506 898.49136 201.51676 897.99996 201.18843 897.5086 200.91121 896.9899 200.68506 896.444 200.45891 895.898 200.2882 895.33529 200.17292 894.75576 200.05764 894.17617 199.99999 893.5909 200 893V851C199.99999 850.409 200.05764 849.8237 200.17292 849.2441 200.2882 848.66458 200.45891 848.10177 200.68506 847.5558 200.91121 847.0098 201.18843 846.49118 201.51676 845.9998 201.84506 845.5084 202.21816 845.05386 202.63603 844.636 203.0539 844.21817 203.50852 843.84506 203.99987 843.5167 204.49121 843.1884 205.00988 842.9112 205.55583 842.685 206.10179 842.45889 206.66457 842.2882 207.24416 842.1729 207.82376 842.0576 208.40904 842 209 842Z" fill="#ffffff"/>
<path transform="matrix(.71980676,0,0,.71980676,.35990338,.35990338)" stroke-width="1" stroke-linecap="butt" stroke-miterlimit="4" stroke-linejoin="miter" fill="none" stroke="#000000" d="M209 842H311C311.59095 842 312.1762 842.0577 312.7558 842.173 313.33537 842.2882 313.89814 842.45889 314.44413 842.685 314.99009 842.9112 315.50874 843.1884 316.0001 843.5167 316.49147 843.84506 316.94609 844.21817 317.36396 844.636 317.7818 845.05386 318.15489 845.5084 318.4832 845.99978 318.8115 846.49118 319.0887 847.0098 319.31486 847.5558 319.54103 848.10177 319.71174 848.66458 319.82704 849.24417 319.94233 849.8237 319.99998 850.409 320 851V893C319.99998 893.5909 319.94233 894.17617 319.82704 894.7557 319.71174 895.33529 319.54103 895.898 319.31486 896.444 319.0887 896.9899 318.8115 897.5086 318.4832 897.99996 318.15489 898.49136 317.7818 898.946 317.36396 899.3639 316.94609 899.78176 316.49147 900.15487 316.0001 900.48318 315.50874 900.81149 314.99009 901.0887 314.44413 901.3148 313.89814 901.54098 313.33537 901.71176 312.7558 901.827 312.1762 901.9423 311.59095 901.99996 311 902H209C208.40904 901.99996 207.82376 901.9423 207.24416 901.827 206.66457 901.71176 206.10179 901.54098 205.55583 901.3148 205.00988 901.0887 204.49121 900.8114 203.99987 900.48306 203.50852 900.1548 203.0539 899.78176 202.63603 899.3639 202.21816 898.946 201.84506 898.49136 201.51676 897.99996 201.18843 897.5086 200.91121 896.9899 200.68506 896.444 200.45891 895.898 200.2882 895.33529 200.17292 894.75576 200.05764 894.17617 199.99999 893.5909 200 893V851C199.99999 850.409 200.05764 849.8237 200.17292 849.2441 200.2882 848.66458 200.45891 848.10177 200.68506 847.5558 200.91121 847.0098 201.18843 846.49118 201.51676 845.9998 201.84506 845.5084 202.21816 845.05386 202.63603 844.636 203.0539 844.21817 203.50852 843.84506 203.99987 843.5167 204.49121 843.1884 205.00988 842.9112 205.55583 842.685 206.10179 842.45889 206.66457 842.2882 207.24416 842.1729 207.82376 842.0576 208.40904 842 209 842Z"/>
<text xml:space="preserve" transform="matrix(.71980676 0 0 .71980676 0 0)" font-size="12" font-family="ArialMT"><tspan y="876" x="218.29688 226.96088 233.63288 240.30487 242.96887 249.64087 256.31288 259.64888 266.32087 270.31687 276.98887 285.65287 288.31687 294.98887">Region growing</tspan></text>
<path transform="matrix(.71980676,0,0,.71980676,.35990338,.35990338)" stroke-width="1" stroke-linecap="butt" stroke-miterlimit="10" stroke-linejoin="miter" fill="none" stroke="#000000" d="M350 1047H260V1095.63"/>
<path transform="matrix(.71980676,0,0,.71980676,.35990338,.35990338)" d="M260 1100.88 256.5 1093.88 260 1095.63 263.5 1093.88 260 1100.88Z"/>
<path transform="matrix(.71980676,0,0,.71980676,.35990338,.35990338)" stroke-width="1" stroke-linecap="butt" stroke-miterlimit="10" stroke-linejoin="miter" fill="none" stroke="#000000" d="M260 1100.88 256.5 1093.88 260 1095.63 263.5 1093.88 260 1100.88Z"/>
<path transform="matrix(.71980676,0,0,.71980676,.35990338,.35990338)" d="M360.5 1012H469.5C470.18943 1012 470.87223 1012.0672 471.5484 1012.20169 472.22459 1012.3362 472.88114 1012.53536 473.5181 1012.79916 474.15507 1013.063 474.76017 1013.3865 475.3334 1013.76956 475.90669 1014.1525 476.43708 1014.5878 476.9246 1015.0753 477.41209 1015.5628 477.84736 1016.0932 478.23039 1016.6664 478.6134 1017.23959 478.93687 1017.84469 479.20069 1018.4817 479.4645 1019.11868 479.66368 1019.77529 479.7982 1020.45156 479.93269 1021.12777 479.99998 1021.81057 480 1022.5V1071.5C479.99998 1072.1895 479.93269 1072.8722 479.7982 1073.5484 479.66368 1074.2246 479.4645 1074.8812 479.20069 1075.5181 478.93687 1076.1549 478.6134 1076.76 478.23039 1077.3334 477.84736 1077.9066 477.41209 1078.437 476.9246 1078.9246 476.43708 1079.4121 475.90669 1079.8474 475.3334 1080.2305 474.76017 1080.6134 474.15507 1080.9369 473.5181 1081.2007 472.88114 1081.4645 472.22459 1081.6636 471.5484 1081.7982 470.87223 1081.9326 470.18943 1081.9999 469.5 1082H360.5C359.81059 1081.9999 359.12776 1081.9326 358.45155 1081.7982 357.77537 1081.6636 357.11878 1081.4645 356.48179 1081.2007 355.8448 1080.9369 355.2397 1080.6134 354.66648 1080.2305 354.09324 1079.8474 353.56288 1079.4121 353.07536 1078.9246 352.58784 1078.437 352.15257 1077.9066 351.76954 1077.3334 351.3865 1076.76 351.06306 1076.1549 350.79924 1075.5181 350.5354 1074.8812 350.3362 1074.2246 350.20173 1073.5484 350.06724 1072.8722 349.99998 1072.1895 350 1071.5V1022.5C349.99998 1021.81057 350.0672 1021.1277 350.2017 1020.4515 350.3362 1019.77529 350.5354 1019.11868 350.79924 1018.4817 351.06306 1017.84469 351.3865 1017.23959 351.76954 1016.6664 352.15257 1016.0932 352.58784 1015.5628 353.07536 1015.0753 353.56288 1014.5878 354.09324 1014.1525 354.66648 1013.76956 355.2397 1013.3865 355.8448 1013.06307 356.48179 1012.7992 357.11878 1012.5354 357.77537 1012.33627 358.45155 1012.2017 359.12776 1012.06729 359.81059 1012 360.5 1012Z" fill="#ffffff"/>
<path transform="matrix(.71980676,0,0,.71980676,.35990338,.35990338)" stroke-width="1" stroke-linecap="butt" stroke-miterlimit="4" stroke-linejoin="miter" fill="none" stroke="#000000" d="M360.5 1012H469.5C470.18943 1012 470.87223 1012.0672 471.5484 1012.20169 472.22459 1012.3362 472.88114 1012.53536 473.5181 1012.79916 474.15507 1013.063 474.76017 1013.3865 475.3334 1013.76956 475.90669 1014.1525 476.43708 1014.5878 476.9246 1015.0753 477.41209 1015.5628 477.84736 1016.0932 478.23039 1016.6664 478.6134 1017.23959 478.93687 1017.84469 479.20069 1018.4817 479.4645 1019.11868 479.66368 1019.77529 479.7982 1020.45156 479.93269 1021.12777 479.99998 1021.81057 480 1022.5V1071.5C479.99998 1072.1895 479.93269 1072.8722 479.7982 1073.5484 479.66368 1074.2246 479.4645 1074.8812 479.20069 1075.5181 478.93687 1076.1549 478.6134 1076.76 478.23039 1077.3334 477.84736 1077.9066 477.41209 1078.437 476.9246 1078.9246 476.43708 1079.4121 475.90669 1079.8474 475.3334 1080.2305 474.76017 1080.6134 474.15507 1080.9369 473.5181 1081.2007 472.88114 1081.4645 472.22459 1081.6636 471.5484 1081.7982 470.87223 1081.9326 470.18943 1081.9999 469.5 1082H360.5C359.81059 1081.9999 359.12776 1081.9326 358.45155 1081.7982 357.77537 1081.6636 357.11878 1081.4645 356.48179 1081.2007 355.8448 1080.9369 355.2397 1080.6134 354.66648 1080.2305 354.09324 1079.8474 353.56288 1079.4121 353.07536 1078.9246 352.58784 1078.437 352.15257 1077.9066 351.76954 1077.3334 351.3865 1076.76 351.06306 1076.1549 350.79924 1075.5181 350.5354 1074.8812 350.3362 1074.2246 350.20173 1073.5484 350.06724 1072.8722 349.99998 1072.1895 350 1071.5V1022.5C349.99998 1021.81057 350.0672 1021.1277 350.2017 1020.4515 350.3362 1019.77529 350.5354 1019.11868 350.79924 1018.4817 351.06306 1017.84469 351.3865 1017.23959 351.76954 1016.6664 352.15257 1016.0932 352.58784 1015.5628 353.07536 1015.0753 353.56288 1014.5878 354.09324 1014.1525 354.66648 1013.76956 355.2397 1013.3865 355.8448 1013.06307 356.48179 1012.7992 357.11878 1012.5354 357.77537 1012.33627 358.45155 1012.2017 359.12776 1012.06729 359.81059 1012 360.5 1012Z"/>
<text xml:space="preserve" transform="matrix(.71980676 0 0 .71980676 0 0)" font-size="12" font-family="ArialMT"><tspan y="1037" x="353.96876 362.63276 369.30476 371.96876 374.63276 380.63276 383.96876 392.63276 395.29676 398.63276 405.30476 407.96876 414.64076 417.97676 424.64875 430.64875 436.64875 443.32075 449.99275 453.32875 460.00074 466.67274 469.33674">Cells within acceptable</tspan></text>
<text xml:space="preserve" transform="matrix(.71980676 0 0 .71980676 0 0)" font-size="12" font-family="ArialMT"><tspan y="1051" x="367.625 374.297 376.961 383.633 386.969 390.305 394.301 400.973 407.645 414.317 420.98899 424.32499 427.66099 434.33299 440.33299 446.33299 448.99699 455.66899">ele. range, assign</tspan></text>
<text xml:space="preserve" transform="matrix(.71980676 0 0 .71980676 0 0)" font-size="12" font-family="ArialMT"><tspan y="1066" x="363.64064 370.31263 374.30863 376.97264 386.96864 393.64064 397.63664 403.63664 406.97264 412.97264 415.63664 422.30863 428.30863 434.30863 437.64463 443.64463 450.31663 452.98063 459.65263">primary class/value</tspan></text>
<path transform="matrix(.71980676,0,0,.71980676,.35990338,.35990338)" stroke-width="1" stroke-linecap="butt" stroke-miterlimit="10" stroke-linejoin="miter" fill="none" stroke="#000000" d="M320 1132H760V352H526.37"/>
<path transform="matrix(.71980676,0,0,.71980676,.35990338,.35990338)" d="M521.12 352 528.12 348.5 526.37 352 528.12 355.5 521.12 352Z"/>
<path transform="matrix(.71980676,0,0,.71980676,.35990338,.35990338)" stroke-width="1" stroke-linecap="butt" stroke-miterlimit="10" stroke-linejoin="miter" fill="none" stroke="#000000" d="M521.12 352 528.12 348.5 526.37 352 528.12 355.5 521.12 352Z"/>
<path transform="matrix(.71980676,0,0,.71980676,.35990338,.35990338)" d="M209 1102H311C311.59095 1102 312.1762 1102.0576 312.7558 1102.173 313.33537 1102.2881 313.89814 1102.4588 314.44413 1102.6849 314.99009 1102.9111 315.50874 1103.1884 316.0001 1103.5166 316.49147 1103.845 316.94609 1104.2182 317.36396 1104.636 317.7818 1105.0538 318.15489 1105.5084 318.4832 1105.9998 318.8115 1106.4911 319.0887 1107.0098 319.31486 1107.5557 319.54103 1108.1017 319.71174 1108.6644 319.82704 1109.244 319.94233 1109.8237 319.99998 1110.409 320 1111V1153C319.99998 1153.591 319.94233 1154.1762 319.82704 1154.7557 319.71174 1155.3353 319.54103 1155.8981 319.31486 1156.444 319.0887 1156.99 318.8115 1157.5086 318.4832 1157.9999 318.15489 1158.4913 317.7818 1158.946 317.36396 1159.3639 316.94609 1159.7817 316.49147 1160.1548 316.0001 1160.4832 315.50874 1160.8114 314.99009 1161.0886 314.44413 1161.3148 313.89814 1161.5409 313.33537 1161.7116 312.7558 1161.8269 312.1762 1161.9423 311.59095 1161.9999 311 1162H209C208.40904 1161.9999 207.82376 1161.9423 207.24416 1161.8269 206.66457 1161.7116 206.10179 1161.5409 205.55583 1161.3148 205.00988 1161.0886 204.49121 1160.8114 203.99987 1160.483 203.50852 1160.1548 203.0539 1159.7817 202.63603 1159.3639 202.21816 1158.946 201.84506 1158.4913 201.51676 1157.9999 201.18843 1157.5086 200.91121 1156.99 200.68506 1156.444 200.45891 1155.8981 200.2882 1155.3353 200.17292 1154.7557 200.05764 1154.1762 199.99999 1153.591 200 1153V1111C199.99999 1110.409 200.05764 1109.8237 200.17292 1109.244 200.2882 1108.6644 200.45891 1108.1017 200.68506 1107.5557 200.91121 1107.0098 201.18843 1106.4911 201.51676 1105.9998 201.84506 1105.5084 202.21816 1105.0538 202.63603 1104.636 203.0539 1104.2182 203.50852 1103.845 203.99987 1103.5166 204.49121 1103.1884 205.00988 1102.9111 205.55583 1102.685 206.10179 1102.4589 206.66457 1102.2882 207.24416 1102.173 207.82376 1102.0576 208.40904 1102 209 1102Z" fill="#ffffff"/>
<path transform="matrix(.71980676,0,0,.71980676,.35990338,.35990338)" stroke-width="1" stroke-linecap="butt" stroke-miterlimit="4" stroke-linejoin="miter" fill="none" stroke="#000000" d="M209 1102H311C311.59095 1102 312.1762 1102.0576 312.7558 1102.173 313.33537 1102.2881 313.89814 1102.4588 314.44413 1102.6849 314.99009 1102.9111 315.50874 1103.1884 316.0001 1103.5166 316.49147 1103.845 316.94609 1104.2182 317.36396 1104.636 317.7818 1105.0538 318.15489 1105.5084 318.4832 1105.9998 318.8115 1106.4911 319.0887 1107.0098 319.31486 1107.5557 319.54103 1108.1017 319.71174 1108.6644 319.82704 1109.244 319.94233 1109.8237 319.99998 1110.409 320 1111V1153C319.99998 1153.591 319.94233 1154.1762 319.82704 1154.7557 319.71174 1155.3353 319.54103 1155.8981 319.31486 1156.444 319.0887 1156.99 318.8115 1157.5086 318.4832 1157.9999 318.15489 1158.4913 317.7818 1158.946 317.36396 1159.3639 316.94609 1159.7817 316.49147 1160.1548 316.0001 1160.4832 315.50874 1160.8114 314.99009 1161.0886 314.44413 1161.3148 313.89814 1161.5409 313.33537 1161.7116 312.7558 1161.8269 312.1762 1161.9423 311.59095 1161.9999 311 1162H209C208.40904 1161.9999 207.82376 1161.9423 207.24416 1161.8269 206.66457 1161.7116 206.10179 1161.5409 205.55583 1161.3148 205.00988 1161.0886 204.49121 1160.8114 203.99987 1160.483 203.50852 1160.1548 203.0539 1159.7817 202.63603 1159.3639 202.21816 1158.946 201.84506 1158.4913 201.51676 1157.9999 201.18843 1157.5086 200.91121 1156.99 200.68506 1156.444 200.45891 1155.8981 200.2882 1155.3353 200.17292 1154.7557 200.05764 1154.1762 199.99999 1153.591 200 1153V1111C199.99999 1110.409 200.05764 1109.8237 200.17292 1109.244 200.2882 1108.6644 200.45891 1108.1017 200.68506 1107.5557 200.91121 1107.0098 201.18843 1106.4911 201.51676 1105.9998 201.84506 1105.5084 202.21816 1105.0538 202.63603 1104.636 203.0539 1104.2182 203.50852 1103.845 203.99987 1103.5166 204.49121 1103.1884 205.00988 1102.9111 205.55583 1102.685 206.10179 1102.4589 206.66457 1102.2882 207.24416 1102.173 207.82376 1102.0576 208.40904 1102 209 1102Z"/>
<text xml:space="preserve" transform="matrix(.71980676 0 0 .71980676 0 0)" font-size="12" font-family="ArialMT"><tspan y="1122" x="223.64063 226.97663 236.97263 243.64463 250.31662 253.65262 260.32463 263.6606 270.3326 272.9966 279.6686 286.3406 290.3366">Impute binary</tspan></text>
<text xml:space="preserve" transform="matrix(.71980676 0 0 .71980676 0 0)" font-size="12" font-family="ArialMT"><tspan y="1136" x="217.29688 223.29688 229.96887 236.64087 246.63687 253.30887 259.98088 263.31687 269.98887 273.32487 275.98887 282.66087 289.33287 292.66886 296.00486">segmentation to</tspan></text>
<text xml:space="preserve" transform="matrix(.71980676 0 0 .71980676 0 0)" font-size="12" font-family="ArialMT"><tspan y="1151" x="226.3125 232.9845 239.6565 242.9925 249.66449 256.3365 259.6725 263.00849 267.0045 273.67649 279.67649 283.01249 289.68449">output raster</tspan></text>
<path transform="matrix(.71980676,0,0,.71980676,.35990338,.35990338)" stroke-width="1" stroke-linecap="butt" stroke-miterlimit="10" stroke-linejoin="miter" fill="none" stroke="#000000" d="M170 1047H260V1095.63"/>
<path transform="matrix(.71980676,0,0,.71980676,.35990338,.35990338)" d="M260 1100.88 256.5 1093.88 260 1095.63 263.5 1093.88 260 1100.88Z"/>
<path transform="matrix(.71980676,0,0,.71980676,.35990338,.35990338)" stroke-width="1" stroke-linecap="butt" stroke-miterlimit="10" stroke-linejoin="miter" fill="none" stroke="#000000" d="M260 1100.88 256.5 1093.88 260 1095.63 263.5 1093.88 260 1100.88Z"/>
<path transform="matrix(.71980676,0,0,.71980676,.35990338,.35990338)" d="M50.5 1012H159.5C160.18944 1012 160.87226 1012.0672 161.54843 1012.20169 162.22463 1012.3362 162.88121 1012.53536 163.51818 1012.79916 164.15512 1013.063 164.76023 1013.3865 165.33347 1013.76956 165.90673 1014.1525 166.43712 1014.5878 166.92462 1015.0753 167.41213 1015.5628 167.84738 1016.0932 168.23041 1016.6664 168.61345 1017.23959 168.93689 1017.84469 169.20073 1018.4817 169.46456 1019.11868 169.66373 1019.77529 169.79824 1020.45156 169.93274 1021.12777 170 1021.81057 170 1022.5V1071.5C170 1072.1895 169.93274 1072.8722 169.79824 1073.5484 169.66373 1074.2246 169.46456 1074.8812 169.20073 1075.5181 168.93689 1076.1549 168.61345 1076.76 168.23041 1077.3334 167.84738 1077.9066 167.41213 1078.437 166.92462 1078.9246 166.43712 1079.4121 165.90673 1079.8474 165.33347 1080.2305 164.76023 1080.6134 164.15512 1080.9369 163.51818 1081.2007 162.88121 1081.4645 162.22463 1081.6636 161.54843 1081.7982 160.87226 1081.9326 160.18944 1081.9999 159.5 1082H50.5C49.81056 1081.9999 49.12774 1081.9326 48.451547 1081.7982 47.775358 1081.6636 47.11878 1081.4645 46.48182 1081.2007 45.844858 1080.9369 45.239755 1080.6134 44.666509 1080.2305 44.093259 1079.8474 43.56288 1079.4121 43.075376 1078.9246 42.587865 1078.437 42.15259 1077.9066 41.76956 1077.3334 41.38653 1076.76 41.063097 1076.1549 40.79926 1075.5181 40.535425 1074.8812 40.33625 1074.2246 40.201749 1073.5484 40.067247 1072.8722 39.999998 1072.1895 40 1071.5V1022.5C39.999998 1021.81057 40.067247 1021.1277 40.201749 1020.4515 40.33625 1019.77529 40.535425 1019.11868 40.79926 1018.4817 41.063097 1017.84469 41.38653 1017.23959 41.76956 1016.6664 42.15259 1016.0932 42.587865 1015.5628 43.075376 1015.0753 43.56288 1014.5878 44.093259 1014.1525 44.666505 1013.76956 45.23975 1013.3865 45.844858 1013.06307 46.481817 1012.7992 47.118776 1012.5354 47.775354 1012.33627 48.45155 1012.2017 49.12774 1012.06729 49.81056 1012 50.5 1012Z" fill="#ffffff"/>
<path transform="matrix(.71980676,0,0,.71980676,.35990338,.35990338)" stroke-width="1" stroke-linecap="butt" stroke-miterlimit="4" stroke-linejoin="miter" fill="none" stroke="#000000" d="M50.5 1012H159.5C160.18944 1012 160.87226 1012.0672 161.54843 1012.20169 162.22463 1012.3362 162.88121 1012.53536 163.51818 1012.79916 164.15512 1013.063 164.76023 1013.3865 165.33347 1013.76956 165.90673 1014.1525 166.43712 1014.5878 166.92462 1015.0753 167.41213 1015.5628 167.84738 1016.0932 168.23041 1016.6664 168.61345 1017.23959 168.93689 1017.84469 169.20073 1018.4817 169.46456 1019.11868 169.66373 1019.77529 169.79824 1020.45156 169.93274 1021.12777 170 1021.81057 170 1022.5V1071.5C170 1072.1895 169.93274 1072.8722 169.79824 1073.5484 169.66373 1074.2246 169.46456 1074.8812 169.20073 1075.5181 168.93689 1076.1549 168.61345 1076.76 168.23041 1077.3334 167.84738 1077.9066 167.41213 1078.437 166.92462 1078.9246 166.43712 1079.4121 165.90673 1079.8474 165.33347 1080.2305 164.76023 1080.6134 164.15512 1080.9369 163.51818 1081.2007 162.88121 1081.4645 162.22463 1081.6636 161.54843 1081.7982 160.87226 1081.9326 160.18944 1081.9999 159.5 1082H50.5C49.81056 1081.9999 49.12774 1081.9326 48.451547 1081.7982 47.775358 1081.6636 47.11878 1081.4645 46.48182 1081.2007 45.844858 1080.9369 45.239755 1080.6134 44.666509 1080.2305 44.093259 1079.8474 43.56288 1079.4121 43.075376 1078.9246 42.587865 1078.437 42.15259 1077.9066 41.76956 1077.3334 41.38653 1076.76 41.063097 1076.1549 40.79926 1075.5181 40.535425 1074.8812 40.33625 1074.2246 40.201749 1073.5484 40.067247 1072.8722 39.999998 1072.1895 40 1071.5V1022.5C39.999998 1021.81057 40.067247 1021.1277 40.201749 1020.4515 40.33625 1019.77529 40.535425 1019.11868 40.79926 1018.4817 41.063097 1017.84469 41.38653 1017.23959 41.76956 1016.6664 42.15259 1016.0932 42.587865 1015.5628 43.075376 1015.0753 43.56288 1014.5878 44.093259 1014.1525 44.666505 1013.76956 45.23975 1013.3865 45.844858 1013.06307 46.481817 1012.7992 47.118776 1012.5354 47.775354 1012.33627 48.45155 1012.2017 49.12774 1012.06729 49.81056 1012 50.5 1012Z"/>
<text xml:space="preserve" transform="matrix(.71980676 0 0 .71980676 0 0)" font-size="12" font-family="ArialMT"><tspan y="1030" x="52.96875 58.96875 65.64075 72.312747 75.64874 85.644748 92.31674 98.98874 104.98874 108.32474 114.32474 120.996738 123.660739 126.32474 132.32474 135.66074 144.32474 146.98874 150.32474">Too many cells with</tspan></text>
<text xml:space="preserve" transform="matrix(.71980676 0 0 .71980676 0 0)" font-size="12" font-family="ArialMT"><tspan y="1044" x="63.625 70.297 72.961 79.632999 86.30499 92.97699 96.97299 100.30899 106.98099 109.64499 116.316989 119.652988 122.98898 126.32498 132.99698 139.66898">higher ele. than</tspan></text>
<text xml:space="preserve" transform="matrix(.71980676 0 0 .71980676 0 0)" font-size="12" font-family="ArialMT"><tspan y="1059" x="49.625 55.625 62.297 66.293 70.289 76.961 83.632999 90.30499 96.97699 99.64099 106.31299 112.984989 118.984989 122.320987 125.65698 132.32898 138.32898 144.32898 146.99298 153.66498">surroundings, assign</tspan></text>
<text xml:space="preserve" transform="matrix(.71980676 0 0 .71980676 0 0)" font-size="12" font-family="ArialMT"><tspan y="1073" x="45.96875 51.96875 58.64075 64.64075 71.312747 77.98474 84.65674 91.328739 95.32474 101.32474 104.660739 110.660739 113.32474 119.996738 125.996738 131.99674 135.33274 141.33274 148.00473 150.66873 157.34073">secondary class/value</tspan></text>
<path transform="matrix(.71980676,0,0,.71980676,.35990338,.35990338)" stroke-width="1" stroke-linecap="butt" stroke-miterlimit="10" stroke-linejoin="miter" fill="none" stroke="#000000" d="M330 559.5H393.63"/>
<path transform="matrix(.71980676,0,0,.71980676,.35990338,.35990338)" d="M398.88 559.5 391.88 563 393.63 559.5 391.88 556 398.88 559.5Z"/>
<path transform="matrix(.71980676,0,0,.71980676,.35990338,.35990338)" stroke-width="1" stroke-linecap="butt" stroke-miterlimit="10" stroke-linejoin="miter" fill="none" stroke="#000000" d="M398.88 559.5 391.88 563 393.63 559.5 391.88 556 398.88 559.5Z"/>
<path transform="matrix(.71980676,0,0,.71980676,0,0)" d="M349 554H384V567H349Z" fill="#ffffff"/>
<text xml:space="preserve" transform="matrix(.71980676 0 0 .71980676 0 0)" font-size="11" font-family="ArialMT"><tspan y="564" x="349.375 355.4873 362.8243 368.9403 376.2773">FALSE</tspan></text>
<path transform="matrix(.71980676,0,0,.71980676,.35990338,.35990338)" stroke-width="1" stroke-linecap="butt" stroke-miterlimit="10" stroke-linejoin="miter" fill="none" stroke="#000000" d="M390 464.5 150 465V560L183.63 559.58"/>
<path transform="matrix(.71980676,0,0,.71980676,.35990338,.35990338)" d="M188.88 559.51 181.93 563.1 183.63 559.58 181.84 556.1 188.88 559.51Z"/>
<path transform="matrix(.71980676,0,0,.71980676,.35990338,.35990338)" stroke-width="1" stroke-linecap="butt" stroke-miterlimit="10" stroke-linejoin="miter" fill="none" stroke="#000000" d="M188.88 559.51 181.93 563.1 183.63 559.58 181.84 556.1 188.88 559.51Z"/>
<path transform="matrix(.71980676,0,0,.71980676,0,0)" d="M186 459H221V472H186Z" fill="#ffffff"/>
<text xml:space="preserve" transform="matrix(.71980676 0 0 .71980676 0 0)" font-size="11" font-family="ArialMT"><tspan y="469" x="186.375 192.4873 199.82431 205.9403 213.27732">FALSE</tspan></text>
<path transform="matrix(.71980676,0,0,.71980676,.35990338,.35990338)" stroke-width="1" stroke-linecap="butt" stroke-miterlimit="10" stroke-linejoin="miter" fill="none" stroke="#000000" d="M460 417V388.37"/>
<path transform="matrix(.71980676,0,0,.71980676,.35990338,.35990338)" d="M460 383.12 463.5 390.12 460 388.37 456.5 390.12 460 383.12Z"/>
<path transform="matrix(.71980676,0,0,.71980676,.35990338,.35990338)" stroke-width="1" stroke-linecap="butt" stroke-miterlimit="10" stroke-linejoin="miter" fill="none" stroke="#000000" d="M460 383.12 463.5 390.12 460 388.37 456.5 390.12 460 383.12Z"/>
<path transform="matrix(.71980676,0,0,.71980676,0,0)" d="M447 394H476V407H447Z" fill="#ffffff"/>
<text xml:space="preserve" transform="matrix(.71980676 0 0 .71980676 0 0)" font-size="11" font-family="ArialMT"><tspan y="404" x="446.53126 453.25227 461.19425 469.13624">TRUE</tspan></text>
<path transform="matrix(.71980676,0,0,.71980676,.35990338,.35990338)" stroke-width="1" stroke-linecap="butt" stroke-miterlimit="10" stroke-linejoin="miter" fill="none" stroke="#000000" d="M330 764.5 460 765V595.87"/>
<path transform="matrix(.71980676,0,0,.71980676,.35990338,.35990338)" d="M460 590.62 463.5 597.62 460 595.87 456.5 597.62 460 590.62Z"/>
<path transform="matrix(.71980676,0,0,.71980676,.35990338,.35990338)" stroke-width="1" stroke-linecap="butt" stroke-miterlimit="10" stroke-linejoin="miter" fill="none" stroke="#000000" d="M460 590.62 463.5 597.62 460 595.87 456.5 597.62 460 590.62Z"/>
<path transform="matrix(.71980676,0,0,.71980676,0,0)" d="M444 737H479V750H444Z" fill="#ffffff"/>
<text xml:space="preserve" transform="matrix(.71980676 0 0 .71980676 0 0)" font-size="11" font-family="ArialMT"><tspan y="747" x="444.375 450.4873 457.8243 463.9403 471.2773">FALSE</tspan></text>
<path transform="matrix(.71980676,0,0,.71980676,.35990338,.35990338)" stroke-width="1" stroke-linecap="butt" stroke-miterlimit="10" stroke-linejoin="miter" fill="none" stroke="#000000" d="M260 607 259.66 635.63"/>
<path transform="matrix(.71980676,0,0,.71980676,.35990338,.35990338)" d="M259.59 640.88 256.18 633.84 259.66 635.63 263.18 633.92 259.59 640.88Z"/>
<path transform="matrix(.71980676,0,0,.71980676,.35990338,.35990338)" stroke-width="1" stroke-linecap="butt" stroke-miterlimit="10" stroke-linejoin="miter" fill="none" stroke="#000000" d="M259.59 640.88 256.18 633.84 259.66 635.63 263.18 633.92 259.59 640.88Z"/>
<path transform="matrix(.71980676,0,0,.71980676,0,0)" d="M246 619H275V632H246Z" fill="#ffffff"/>
<text xml:space="preserve" transform="matrix(.71980676 0 0 .71980676 0 0)" font-size="11" font-family="ArialMT"><tspan y="629" x="245.53125 252.25225 260.19425 268.13624">TRUE</tspan></text>
<path transform="matrix(.71980676,0,0,.71980676,.35990338,.35990338)" stroke-width="1" stroke-linecap="butt" stroke-miterlimit="10" stroke-linejoin="miter" fill="none" stroke="#000000" d="M260 812 259.67 835.63"/>
<path transform="matrix(.71980676,0,0,.71980676,.35990338,.35990338)" d="M259.6 840.88 256.19 833.83 259.67 835.63 263.19 833.93 259.6 840.88Z"/>
<path transform="matrix(.71980676,0,0,.71980676,.35990338,.35990338)" stroke-width="1" stroke-linecap="butt" stroke-miterlimit="10" stroke-linejoin="miter" fill="none" stroke="#000000" d="M259.6 840.88 256.19 833.83 259.67 835.63 263.19 833.93 259.6 840.88Z"/>
<path transform="matrix(.71980676,0,0,.71980676,0,0)" d="M246 821H275V834H246Z" fill="#ffffff"/>
<text xml:space="preserve" transform="matrix(.71980676 0 0 .71980676 0 0)" font-size="11" font-family="ArialMT"><tspan y="831" x="245.53125 252.25225 260.19425 268.13624">TRUE</tspan></text>
<path transform="matrix(.71980676,0,0,.71980676,.35990338,.35990338)" stroke-width="1" stroke-linecap="butt" stroke-miterlimit="10" stroke-linejoin="miter" fill="none" stroke="#000000" d="M330 977H415V1005.63"/>
<path transform="matrix(.71980676,0,0,.71980676,.35990338,.35990338)" d="M415 1010.88 411.5 1003.88 415 1005.63 418.5 1003.88 415 1010.88Z"/>
<path transform="matrix(.71980676,0,0,.71980676,.35990338,.35990338)" stroke-width="1" stroke-linecap="butt" stroke-miterlimit="10" stroke-linejoin="miter" fill="none" stroke="#000000" d="M415 1010.88 411.5 1003.88 415 1005.63 418.5 1003.88 415 1010.88Z"/>
<path transform="matrix(.71980676,0,0,.71980676,0,0)" d="M374 972H409V985H374Z" fill="#ffffff"/>
<text xml:space="preserve" transform="matrix(.71980676 0 0 .71980676 0 0)" font-size="11" font-family="ArialMT"><tspan y="982" x="374.375 380.4873 387.8243 393.9403 401.2773">FALSE</tspan></text>
<path transform="matrix(.71980676,0,0,.71980676,.35990338,.35990338)" stroke-width="1" stroke-linecap="butt" stroke-miterlimit="10" stroke-linejoin="miter" fill="none" stroke="#000000" d="M190 977H105V1005.63"/>
<path transform="matrix(.71980676,0,0,.71980676,.35990338,.35990338)" d="M105 1010.88 101.5 1003.88 105 1005.63 108.5 1003.88 105 1010.88Z"/>
<path transform="matrix(.71980676,0,0,.71980676,.35990338,.35990338)" stroke-width="1" stroke-linecap="butt" stroke-miterlimit="10" stroke-linejoin="miter" fill="none" stroke="#000000" d="M105 1010.88 101.5 1003.88 105 1005.63 108.5 1003.88 105 1010.88Z"/>
<path transform="matrix(.71980676,0,0,.71980676,0,0)" d="M117 972H146V985H117Z" fill="#ffffff"/>
<text xml:space="preserve" transform="matrix(.71980676 0 0 .71980676 0 0)" font-size="11" font-family="ArialMT"><tspan y="982" x="116.53125 123.25225 131.19425 139.13625">TRUE</tspan></text>
<path transform="matrix(.71980676,0,0,.71980676,.35990338,.35990338)" d="M460 417 530 464.5 460 512 390 464.5 460 417Z" fill="#ffffff"/>
<path transform="matrix(.71980676,0,0,.71980676,.35990338,.35990338)" stroke-width="1" stroke-linecap="butt" stroke-miterlimit="10" stroke-linejoin="miter" fill="none" stroke="#000000" d="M460 417 530 464.5 460 512 390 464.5 460 417Z"/>
<text xml:space="preserve" transform="matrix(.71980676 0 0 .71980676 0 0)" font-size="12" font-family="ArialMT"><tspan y="462" x="423.3125 433.3085 435.9725 442.6445 445.9805 449.3165 455.9885 462.6605 468.6605 471.9965 477.9965 480.6605 486.6605">min. box size</tspan></text>
<text xml:space="preserve" transform="matrix(.71980676 0 0 .71980676 0 0)" font-size="12" font-family="ArialMT"><tspan y="462" x="493.3325"> </tspan></text>
<text xml:space="preserve" transform="matrix(.71980676 0 0 .71980676 0 0)" font-size="12" font-family="ArialMT"><tspan y="477" x="434.96876 438.96476 445.63676 452.30876 458.30876 464.98075 471.65275 478.32475">reached?</tspan></text>
<path transform="matrix(.71980676,0,0,.71980676,.35990338,.35990338)" d="M260 512 330 559.5 260 607 190 559.5 260 512Z" fill="#ffffff"/>
<path transform="matrix(.71980676,0,0,.71980676,.35990338,.35990338)" stroke-width="1" stroke-linecap="butt" stroke-miterlimit="10" stroke-linejoin="miter" fill="none" stroke="#000000" d="M260 512 330 559.5 260 607 190 559.5 260 512Z"/>
<text xml:space="preserve" transform="matrix(.71980676 0 0 .71980676 0 0)" font-size="12" font-family="ArialMT"><tspan y="557" x="215.65625 224.99225 234.98825 244.98426 248.98026 256.98426 259.64826 269.64427 276.31626 282.98826 289.66026 292.32426 294.98826 298.32426">GMM-Bimodality</tspan></text>
<text xml:space="preserve" transform="matrix(.71980676 0 0 .71980676 0 0)" font-size="12" font-family="ArialMT"><tspan y="572" x="244.3125 250.3125 256.9845 263.6565 269.6565">check</tspan></text>
<path transform="matrix(.71980676,0,0,.71980676,.35990338,.35990338)" d="M260 717 330 764.5 260 812 190 764.5 260 717Z" fill="#ffffff"/>
<path transform="matrix(.71980676,0,0,.71980676,.35990338,.35990338)" stroke-width="1" stroke-linecap="butt" stroke-miterlimit="10" stroke-linejoin="miter" fill="none" stroke="#000000" d="M260 717 330 764.5 260 812 190 764.5 260 717Z"/>
<text xml:space="preserve" transform="matrix(.71980676 0 0 .71980676 0 0)" font-size="12" font-family="ArialMT"><tspan y="762" x="208.40625 215.07825 221.75025 227.75025 234.42224 237.08625 240.42224 250.41825 253.08225 259.75425 263.09025">Local min. </tspan></text>
<text xml:space="preserve" transform="matrix(.71980676 0 0 .71980676 0 0)" font-size="11" font-family="Arial" font-weight="bold"><tspan y="762" x="266.4375">&#x003c;</tspan></text>
<text xml:space="preserve" transform="matrix(.71980676 0 0 .71980676 0 0)" font-size="12" font-family="ArialMT"><tspan y="762" x="272.875 276.211 282.883 285.547 292.219 298.891 305.563"> global</tspan></text>
<text xml:space="preserve" transform="matrix(.71980676 0 0 .71980676 0 0)" font-size="12" font-family="ArialMT"><tspan y="762" x="308.227"> </tspan></text>
<text xml:space="preserve" transform="matrix(.71980676 0 0 .71980676 0 0)" font-size="12" font-family="ArialMT"><tspan y="777" x="218.96875 227.63275 234.30475 237.64075 244.31275 248.30875 251.64475 254.98075 261.65275 265.64875 272.32075 278.32075 284.99275 291.66474 294.32875">water threshold</tspan></text>
<path transform="matrix(.71980676,0,0,.71980676,.35990338,.35990338)" d="M260 929.5 330 977 260 1024.5 190 977 260 929.5Z" fill="#ffffff"/>
<path transform="matrix(.71980676,0,0,.71980676,.35990338,.35990338)" stroke-width="1" stroke-linecap="butt" stroke-miterlimit="10" stroke-linejoin="miter" fill="none" stroke="#000000" d="M260 929.5 330 977 260 1024.5 190 977 260 929.5Z"/>
<text xml:space="preserve" transform="matrix(.71980676 0 0 .71980676 0 0)" font-size="12" font-family="ArialMT"><tspan y="967" x="225.625 231.625 238.297 244.969 251.64099 258.313 262.309 268.981 275.65299 282.32499 284.98899">Topograhpic</tspan></text>
<text xml:space="preserve" transform="matrix(.71980676 0 0 .71980676 0 0)" font-size="12" font-family="ArialMT"><tspan y="967" x="290.98899"> </tspan></text>
<text xml:space="preserve" transform="matrix(.71980676 0 0 .71980676 0 0)" font-size="12" font-family="ArialMT"><tspan y="981" x="206.29688 212.96887 215.63288 222.30487 228.30487 234.97687 238.31287 240.97687 247.64887 254.32086 257.65687 263.65687 270.32887 274.32487 278.32087 284.99287 290.99287 294.32887 296.99287 303.66487 310.33686">elevation correction,</tspan></text>
<text xml:space="preserve" transform="matrix(.71980676 0 0 .71980676 0 0)" font-size="12" font-family="ArialMT"><tspan y="996" x="231.96875 239.30075 247.30475 250.64075 253.97675 260.98475 267.99275 271.32875 278.00074 281.33674">TPI &#x003e;= 0.5</tspan></text>
<path transform="matrix(.71980676,0,0,.71980676,.35990338,.35990338)" stroke-width="1" stroke-linecap="butt" stroke-miterlimit="10" stroke-linejoin="miter" fill="none" stroke="#000000" d="M490 272V292H260V305.63"/>
<path transform="matrix(.71980676,0,0,.71980676,.35990338,.35990338)" d="M260 310.88 256.5 303.88 260 305.63 263.5 303.88 260 310.88Z"/>
<path transform="matrix(.71980676,0,0,.71980676,.35990338,.35990338)" stroke-width="1" stroke-linecap="butt" stroke-miterlimit="10" stroke-linejoin="miter" fill="none" stroke="#000000" d="M260 310.88 256.5 303.88 260 305.63 263.5 303.88 260 310.88Z"/>
<path transform="matrix(.71980676,0,0,.71980676,.35990338,.35990338)" d="M430 272 450 212H550L530 272H430Z" fill="#ffffff"/>
<path transform="matrix(.71980676,0,0,.71980676,.35990338,.35990338)" stroke-width="1" stroke-linecap="butt" stroke-miterlimit="10" stroke-linejoin="miter" fill="none" stroke="#000000" d="M430 272 450 212H550L530 272H430Z"/>
<text xml:space="preserve" transform="matrix(.71980676 0 0 .71980676 0 0)" font-size="12" font-family="ArialMT"><tspan y="239" x="454.98439 463.64839 470.98039 480.97639 484.31239 488.30839 496.97239 499.63639 506.30839 509.64439 512.30838 518.98037">DTM (Digtial</tspan></text>
<text xml:space="preserve" transform="matrix(.71980676 0 0 .71980676 0 0)" font-size="12" font-family="ArialMT"><tspan y="239" x="521.64437"> </tspan></text>
<text xml:space="preserve" transform="matrix(.71980676 0 0 .71980676 0 0)" font-size="12" font-family="ArialMT"><tspan y="254" x="452.98439 456.32038 462.99238 466.98838 470.98439 477.65638 480.32038 486.99238 490.32838 500.32438 506.99638 513.6684 520.3404 523.0044">terrain model)</tspan></text>
<path transform="matrix(.71980676,0,0,.71980676,.35990338,.35990338)" stroke-width="1" stroke-linecap="butt" stroke-miterlimit="10" stroke-linejoin="miter" fill="none" stroke="#000000" d="M450 62H326.37"/>
<path transform="matrix(.71980676,0,0,.71980676,.35990338,.35990338)" d="M321.12 62 328.12 58.5 326.37 62 328.12 65.5 321.12 62Z"/>
<path transform="matrix(.71980676,0,0,.71980676,.35990338,.35990338)" stroke-width="1" stroke-linecap="butt" stroke-miterlimit="10" stroke-linejoin="miter" fill="none" stroke="#000000" d="M321.12 62 328.12 58.5 326.37 62 328.12 65.5 321.12 62Z"/>
<path transform="matrix(.71980676,0,0,.71980676,.35990338,.35990338)" d="M440 92 460 32H560L540 92H440Z" fill="#ffffff"/>
<path transform="matrix(.71980676,0,0,.71980676,.35990338,.35990338)" stroke-width="1" stroke-linecap="butt" stroke-miterlimit="10" stroke-linejoin="miter" fill="none" stroke="#000000" d="M440 92 460 32H560L540 92H440Z"/>
<text xml:space="preserve" transform="matrix(.71980676 0 0 .71980676 0 0)" font-size="12" font-family="ArialMT"><tspan y="59" x="478.65626 486.66026 493.33226 496.66825 504.67225 512.6763">S1 SAR</tspan></text>
<text xml:space="preserve" transform="matrix(.71980676 0 0 .71980676 0 0)" font-size="12" font-family="ArialMT"><tspan y="74" x="478.65626 481.32026 491.31626 497.98826 504.66026 511.33226 515.32827">imagery</tspan></text>
<path transform="matrix(.71980676,0,0,.71980676,.35990338,.35990338)" stroke-width="1" stroke-linecap="butt" stroke-miterlimit="10" stroke-linejoin="miter" fill="none" stroke="#000000" d="M640 272V292H260.5L260.16 305.63"/>
<path transform="matrix(.71980676,0,0,.71980676,.35990338,.35990338)" d="M260.03 310.88 256.7 303.8 260.16 305.63 263.7 303.97 260.03 310.88Z"/>
<path transform="matrix(.71980676,0,0,.71980676,.35990338,.35990338)" stroke-width="1" stroke-linecap="butt" stroke-miterlimit="10" stroke-linejoin="miter" fill="none" stroke="#000000" d="M260.03 310.88 256.7 303.8 260.16 305.63 263.7 303.97 260.03 310.88Z"/>
<path transform="matrix(.71980676,0,0,.71980676,.35990338,.35990338)" d="M580 272 600 212H700L680 272H580Z" fill="#ffffff"/>
<path transform="matrix(.71980676,0,0,.71980676,.35990338,.35990338)" stroke-width="1" stroke-linecap="butt" stroke-miterlimit="10" stroke-linejoin="miter" fill="none" stroke="#000000" d="M580 272 600 212H700L680 272H580Z"/>
<text xml:space="preserve" transform="matrix(.71980676 0 0 .71980676 0 0)" font-size="12" font-family="ArialMT"><tspan y="232" x="603.3125 611.3165 617.9885 623.9885 627.3245 633.9965 640.6685 646.6685 653.3405 663.3365 670.0085">Box decomp.</tspan></text>
<text xml:space="preserve" transform="matrix(.71980676 0 0 .71980676 0 0)" font-size="12" font-family="ArialMT"><tspan y="232" x="673.3445"> </tspan></text>
<text xml:space="preserve" transform="matrix(.71980676 0 0 .71980676 0 0)" font-size="12" font-family="ArialMT"><tspan y="246" x="592.46878 598.46878 601.13278 607.13278 613.80477 619.80477 623.14077 627.1367 633.8087 640.4807 647.1527 653.1527 659.8247 666.4967 673.1687 676.5047 680.5007">sizes (254x254 -&#x003e;</tspan></text>
<text xml:space="preserve" transform="matrix(.71980676 0 0 .71980676 0 0)" font-size="12" font-family="ArialMT"><tspan y="261" x="602.7969 609.4689 616.14089 622.81289 628.81289 635.48489 642.15689 648.82888 652.16488 656.1608 663.1688 666.5048 669.8408 673.1768">128x128 -&#x003e;...)</tspan></text>
<path transform="matrix(.71980676,0,0,.71980676,.35990338,.35990338)" stroke-width="1" stroke-linecap="butt" stroke-miterlimit="10" stroke-linejoin="miter" fill="none" stroke="#000000" d="M340 272V292H260V305.63"/>
<path transform="matrix(.71980676,0,0,.71980676,.35990338,.35990338)" d="M260 310.88 256.5 303.88 260 305.63 263.5 303.88 260 310.88Z"/>
<path transform="matrix(.71980676,0,0,.71980676,.35990338,.35990338)" stroke-width="1" stroke-linecap="butt" stroke-miterlimit="10" stroke-linejoin="miter" fill="none" stroke="#000000" d="M260 310.88 256.5 303.88 260 305.63 263.5 303.88 260 310.88Z"/>
<path transform="matrix(.71980676,0,0,.71980676,.35990338,.35990338)" d="M280 272 300 212H400L380 272H280Z" fill="#ffffff"/>
<path transform="matrix(.71980676,0,0,.71980676,.35990338,.35990338)" stroke-width="1" stroke-linecap="butt" stroke-miterlimit="10" stroke-linejoin="miter" fill="none" stroke="#000000" d="M280 272 300 212H400L380 272H280Z"/>
<text xml:space="preserve" transform="matrix(.71980676 0 0 .71980676 0 0)" font-size="12" font-family="ArialMT"><tspan y="239" x="306.3125 315.6485 318.3125 324.9845 331.6565 338.3285 340.9925 344.3285 352.9925 359.6645 363.0005 369.6725">Global water</tspan></text>
<text xml:space="preserve" transform="matrix(.71980676 0 0 .71980676 0 0)" font-size="12" font-family="ArialMT"><tspan y="254" x="315.3125 318.6485 325.3205 329.3165 335.9885 341.9885 348.6605 355.3325 357.9965">threshold</tspan></text>
<path transform="matrix(.71980676,0,0,.71980676,.35990338,.35990338)" stroke-width="1" stroke-linecap="butt" stroke-miterlimit="10" stroke-linejoin="miter" fill="none" stroke="#000000" d="M180 272V292H260V305.63"/>
<path transform="matrix(.71980676,0,0,.71980676,.35990338,.35990338)" d="M260 310.88 256.5 303.88 260 305.63 263.5 303.88 260 310.88Z"/>
<path transform="matrix(.71980676,0,0,.71980676,.35990338,.35990338)" stroke-width="1" stroke-linecap="butt" stroke-miterlimit="10" stroke-linejoin="miter" fill="none" stroke="#000000" d="M260 310.88 256.5 303.88 260 305.63 263.5 303.88 260 310.88Z"/>
<path transform="matrix(.71980676,0,0,.71980676,.35990338,.35990338)" d="M120 272 140 212H240L220 272H120Z" fill="#ffffff"/>
<path transform="matrix(.71980676,0,0,.71980676,.35990338,.35990338)" stroke-width="1" stroke-linecap="butt" stroke-miterlimit="10" stroke-linejoin="miter" fill="none" stroke="#000000" d="M120 272 140 212H240L220 272H120Z"/>
<text xml:space="preserve" transform="matrix(.71980676 0 0 .71980676 0 0)" font-size="12" font-family="ArialMT"><tspan y="239" x="161.3125 169.3165 175.9885 182.66049 189.33249">Seeds</tspan></text>
<text xml:space="preserve" transform="matrix(.71980676 0 0 .71980676 0 0)" font-size="12" font-family="ArialMT"><tspan y="239" x="195.33249"> </tspan></text>
<text xml:space="preserve" transform="matrix(.71980676 0 0 .71980676 0 0)" font-size="12" font-family="ArialMT"><tspan y="254" x="142.98438 146.98038 152.98038 156.31638 162.31638 165.65238 168.31638 174.98838 180.98838 187.66037 190.99637 193.66037 200.33237 207.00437 213.00437">(x,y locations)</tspan></text>
</g>
</svg>
