<svg xmlns="http://www.w3.org/2000/svg" xmlns:xlink="http://www.w3.org/1999/xlink" version="1.1" width="298.08pt" height="499.91999pt" viewBox="0 0 298.08 499.91999">
<defs>
<clipPath id="clip_0">
<path transform="matrix(.24,0,0,.24,0,0)" d="M0 0H1241.6666V2080.468H0Z" fill-rule="evenodd"/>
</clipPath>
<clipPath id="clip_1">
<path transform="matrix(.24,0,0,.24,0,0)" d="M0 0H1241.6666V2080.468H0Z" fill-rule="evenodd"/>
</clipPath>
</defs>
<g clip-path="url(#clip_0)">
<path transform="matrix(.7215496,0,0,.7215496,0,0)" d="M0 0H413V693H0Z" fill="#ffffff"/>
</g>
<g clip-path="url(#clip_1)">
<path transform="matrix(.7215496,0,0,.7215496,.3607748,.3607748)" stroke-width="1" stroke-linecap="butt" stroke-miterlimit="10" stroke-linejoin="miter" fill="none" stroke="#000000" d="M171 86H234.63"/>
<path transform="matrix(.7215496,0,0,.7215496,.3607748,.3607748)" d="M239.88 86 232.88 89.5 234.63 86 232.88 82.5 239.88 86Z"/>
<path transform="matrix(.7215496,0,0,.7215496,.3607748,.3607748)" stroke-width="1" stroke-linecap="butt" stroke-miterlimit="10" stroke-linejoin="miter" fill="none" stroke="#000000" d="M239.88 86 232.88 89.5 234.63 86 232.88 82.5 239.88 86Z"/>
<path transform="matrix(.7215496,0,0,.7215496,.3607748,.3607748)" d="M1 1H171V171H1Z" fill="#ffffff"/>
<path transform="matrix(.7215496,0,0,.7215496,.3607748,.3607748)" stroke-width="1" stroke-linecap="butt" stroke-miterlimit="4" stroke-linejoin="miter" fill="none" stroke="#000000" d="M1 1H171V171H1Z"/>
<text xml:space="preserve" transform="matrix(.7215496 0 0 .7215496 0 0)" font-size="12" font-family="ArialMT"><tspan y="90" x="81.328128">Q</tspan></text>
<path transform="matrix(.7215496,0,0,.7215496,.3607748,.3607748)" d="M51 36C50.999998 36.66304 50.873128 37.300844 50.619394 37.91341 50.365655 38.52598 50.004369 39.06669 49.53553 39.53553 49.066686 40.004369 48.52598 40.365655 47.913415 40.61939 47.300844 40.873128 46.663038 40.999998 46 41 45.336957 40.999998 44.699148 40.873128 44.08658 40.61939 43.474008 40.365655 42.9333 40.004369 42.464464 39.53553 41.99562 39.06669 41.63433 38.52598 41.380598 37.91341 41.12686 37.300844 40.999998 36.66304 41 36 40.999998 35.336957 41.12686 34.69915 41.380598 34.08658 41.63433 33.47401 41.99562 32.933305 42.464464 32.464468 42.9333 31.995623 43.474008 31.634335 44.08658 31.3806 44.699148 31.126868 45.336957 31 46 31 46.663038 31 47.300844 31.126868 47.913415 31.3806 48.52598 31.634335 49.066686 31.995623 49.53553 32.464468 50.004369 32.933305 50.365655 33.47401 50.619394 34.08658 50.873128 34.69915 50.999998 35.336957 51 36Z" fill="#b1ddf0"/>
<path transform="matrix(.7215496,0,0,.7215496,.3607748,.3607748)" stroke-width="1" stroke-linecap="butt" stroke-miterlimit="4" stroke-linejoin="miter" fill="none" stroke="#10739e" d="M51 36C50.999998 36.66304 50.873128 37.300844 50.619394 37.91341 50.365655 38.52598 50.004369 39.06669 49.53553 39.53553 49.066686 40.004369 48.52598 40.365655 47.913415 40.61939 47.300844 40.873128 46.663038 40.999998 46 41 45.336957 40.999998 44.699148 40.873128 44.08658 40.61939 43.474008 40.365655 42.9333 40.004369 42.464464 39.53553 41.99562 39.06669 41.63433 38.52598 41.380598 37.91341 41.12686 37.300844 40.999998 36.66304 41 36 40.999998 35.336957 41.12686 34.69915 41.380598 34.08658 41.63433 33.47401 41.99562 32.933305 42.464464 32.464468 42.9333 31.995623 43.474008 31.634335 44.08658 31.3806 44.699148 31.126868 45.336957 31 46 31 46.663038 31 47.300844 31.126868 47.913415 31.3806 48.52598 31.634335 49.066686 31.995623 49.53553 32.464468 50.004369 32.933305 50.365655 33.47401 50.619394 34.08658 50.873128 34.69915 50.999998 35.336957 51 36Z"/>
<path transform="matrix(.7215496,0,0,.7215496,.3607748,.3607748)" d="M121 66C120.99999 66.66303 120.87312 67.300838 120.619388 67.91341 120.365657 68.52598 120.004367 69.06669 119.53553 69.53553 119.06668 70.00437 118.52598 70.365657 117.91341 70.619388 117.300838 70.87312 116.66303 70.99999 116 71 115.33695 70.99999 114.69915 70.87312 114.086589 70.619388 113.47401 70.365657 112.9333 70.00437 112.46446 69.53553 111.99561 69.06669 111.63432 68.52598 111.38059 67.91341 111.12686 67.300838 110.99999 66.66303 111 66 110.99999 65.33695 111.12686 64.69915 111.38059 64.08658 111.63432 63.474004 111.99561 62.9333 112.46446 62.464464 112.9333 61.99562 113.47401 61.63433 114.08658 61.380598 114.69915 61.126867 115.33695 61 116 61 116.66303 61 117.30083 61.126867 117.9134 61.3806 118.52597 61.634336 119.06668 61.99562 119.53553 62.464464 120.004367 62.9333 120.365657 63.474004 120.619388 64.08658 120.87312 64.69915 120.99999 65.33695 121 66Z" fill="#fad7ac"/>
<path transform="matrix(.7215496,0,0,.7215496,.3607748,.3607748)" stroke-width="1" stroke-linecap="butt" stroke-miterlimit="4" stroke-linejoin="miter" fill="none" stroke="#b46504" d="M121 66C120.99999 66.66303 120.87312 67.300838 120.619388 67.91341 120.365657 68.52598 120.004367 69.06669 119.53553 69.53553 119.06668 70.00437 118.52598 70.365657 117.91341 70.619388 117.300838 70.87312 116.66303 70.99999 116 71 115.33695 70.99999 114.69915 70.87312 114.086589 70.619388 113.47401 70.365657 112.9333 70.00437 112.46446 69.53553 111.99561 69.06669 111.63432 68.52598 111.38059 67.91341 111.12686 67.300838 110.99999 66.66303 111 66 110.99999 65.33695 111.12686 64.69915 111.38059 64.08658 111.63432 63.474004 111.99561 62.9333 112.46446 62.464464 112.9333 61.99562 113.47401 61.63433 114.08658 61.380598 114.69915 61.126867 115.33695 61 116 61 116.66303 61 117.30083 61.126867 117.9134 61.3806 118.52597 61.634336 119.06668 61.99562 119.53553 62.464464 120.004367 62.9333 120.365657 63.474004 120.619388 64.08658 120.87312 64.69915 120.99999 65.33695 121 66Z"/>
<path transform="matrix(.7215496,0,0,.7215496,.3607748,.3607748)" d="M61 136C60.999998 136.66304 60.873128 137.30084 60.619394 137.9134 60.365659 138.52597 60.004369 139.06668 59.53553 139.53553 59.06669 140.00435 58.52598 140.36563 57.91341 140.61937 57.30084 140.87311 56.663038 140.99999 56 141 55.336957 140.99999 54.699148 140.87311 54.08658 140.61937 53.474008 140.36563 52.9333 140.00435 52.464464 139.53553 51.99562 139.06668 51.63433 138.52597 51.380598 137.9134 51.12686 137.30084 50.999998 136.66304 51 136 50.999998 135.33695 51.126867 134.69913 51.3806 134.08657 51.634336 133.474 51.99562 132.93329 52.464464 132.46445 52.9333 131.9956 53.474008 131.63433 54.086576 131.38059 54.699148 131.12686 55.336957 131 56 131 56.663038 131 57.30084 131.12686 57.913408 131.38059 58.52598 131.63433 59.06669 131.9956 59.53553 132.46445 60.004369 132.93329 60.365659 133.474 60.619394 134.08657 60.873128 134.69913 60.999998 135.33695 61 136Z" fill="#fad9d5"/>
<path transform="matrix(.7215496,0,0,.7215496,.3607748,.3607748)" stroke-width="1" stroke-linecap="butt" stroke-miterlimit="4" stroke-linejoin="miter" fill="none" stroke="#ae4132" d="M61 136C60.999998 136.66304 60.873128 137.30084 60.619394 137.9134 60.365659 138.52597 60.004369 139.06668 59.53553 139.53553 59.06669 140.00435 58.52598 140.36563 57.91341 140.61937 57.30084 140.87311 56.663038 140.99999 56 141 55.336957 140.99999 54.699148 140.87311 54.08658 140.61937 53.474008 140.36563 52.9333 140.00435 52.464464 139.53553 51.99562 139.06668 51.63433 138.52597 51.380598 137.9134 51.12686 137.30084 50.999998 136.66304 51 136 50.999998 135.33695 51.126867 134.69913 51.3806 134.08657 51.634336 133.474 51.99562 132.93329 52.464464 132.46445 52.9333 131.9956 53.474008 131.63433 54.086576 131.38059 54.699148 131.12686 55.336957 131 56 131 56.663038 131 57.30084 131.12686 57.913408 131.38059 58.52598 131.63433 59.06669 131.9956 59.53553 132.46445 60.004369 132.93329 60.365659 133.474 60.619394 134.08657 60.873128 134.69913 60.999998 135.33695 61 136Z"/>
<path transform="matrix(.7215496,0,0,.7215496,.3607748,.3607748)" stroke-width="1" stroke-linecap="butt" stroke-miterlimit="10" stroke-linejoin="miter" fill="none" stroke="#000000" d="M326 171V196H206V214.63"/>
<path transform="matrix(.7215496,0,0,.7215496,.3607748,.3607748)" d="M206 219.88 202.5 212.88 206 214.63 209.5 212.88 206 219.88Z"/>
<path transform="matrix(.7215496,0,0,.7215496,.3607748,.3607748)" stroke-width="1" stroke-linecap="butt" stroke-miterlimit="10" stroke-linejoin="miter" fill="none" stroke="#000000" d="M206 219.88 202.5 212.88 206 214.63 209.5 212.88 206 219.88Z"/>
<path transform="matrix(.7215496,0,0,.7215496,.3607748,.3607748)" d="M241 1H411V171H241Z" fill="#ffffff"/>
<path transform="matrix(.7215496,0,0,.7215496,.3607748,.3607748)" stroke-width="1" stroke-linecap="butt" stroke-miterlimit="4" stroke-linejoin="miter" fill="none" stroke="#000000" d="M241 1H411V171H241Z"/>
<path transform="matrix(.7215496,0,0,.7215496,.3607748,.3607748)" d="M291 36C290.99998 36.66304 290.8731 37.300844 290.61936 37.91341 290.36564 38.52598 290.00437 39.06669 289.53553 39.53553 289.06669 40.004369 288.52598 40.365655 287.9134 40.61939 287.3008 40.873128 286.66304 40.999998 286 41 285.33695 40.999998 284.69914 40.873128 284.08656 40.61939 283.47398 40.365655 282.9333 40.004369 282.46446 39.53553 281.9956 39.06669 281.6343 38.52598 281.38059 37.91341 281.12687 37.300844 281 36.66304 281 36 281 35.336957 281.12687 34.69915 281.38059 34.08658 281.6343 33.47401 281.9956 32.933305 282.46446 32.464468 282.9333 31.995623 283.47398 31.634335 284.08656 31.3806 284.69914 31.126868 285.33695 31 286 31 286.66304 31 287.3008 31.126868 287.9134 31.3806 288.52598 31.634335 289.06669 31.995623 289.53553 32.464468 290.00437 32.933305 290.36564 33.47401 290.61936 34.08658 290.8731 34.69915 290.99998 35.336957 291 36Z" fill="#b1ddf0"/>
<path transform="matrix(.7215496,0,0,.7215496,.3607748,.3607748)" stroke-width="1" stroke-linecap="butt" stroke-miterlimit="4" stroke-linejoin="miter" fill="none" stroke="#10739e" d="M291 36C290.99998 36.66304 290.8731 37.300844 290.61936 37.91341 290.36564 38.52598 290.00437 39.06669 289.53553 39.53553 289.06669 40.004369 288.52598 40.365655 287.9134 40.61939 287.3008 40.873128 286.66304 40.999998 286 41 285.33695 40.999998 284.69914 40.873128 284.08656 40.61939 283.47398 40.365655 282.9333 40.004369 282.46446 39.53553 281.9956 39.06669 281.6343 38.52598 281.38059 37.91341 281.12687 37.300844 281 36.66304 281 36 281 35.336957 281.12687 34.69915 281.38059 34.08658 281.6343 33.47401 281.9956 32.933305 282.46446 32.464468 282.9333 31.995623 283.47398 31.634335 284.08656 31.3806 284.69914 31.126868 285.33695 31 286 31 286.66304 31 287.3008 31.126868 287.9134 31.3806 288.52598 31.634335 289.06669 31.995623 289.53553 32.464468 290.00437 32.933305 290.36564 33.47401 290.61936 34.08658 290.8731 34.69915 290.99998 35.336957 291 36Z"/>
<path transform="matrix(.7215496,0,0,.7215496,.3607748,.3607748)" d="M361 66C360.99998 66.66303 360.8731 67.300838 360.61936 67.91341 360.36564 68.52598 360.00437 69.06669 359.53553 69.53553 359.06666 70.00437 358.52595 70.365657 357.91337 70.619388 357.3008 70.87312 356.66304 70.99999 356 71 355.33695 70.99999 354.69914 70.87312 354.08656 70.619388 353.47398 70.365657 352.9333 70.00437 352.46446 69.53553 351.9956 69.06669 351.6343 68.52598 351.38056 67.91341 351.12684 67.300838 350.99998 66.66303 351 66 350.99998 65.33695 351.12684 64.69915 351.38056 64.08658 351.6343 63.474004 351.9956 62.9333 352.46446 62.464464 352.9333 61.99562 353.47398 61.63433 354.08656 61.380598 354.69914 61.126867 355.33695 61 356 61 356.66304 61 357.3008 61.126867 357.91337 61.3806 358.52595 61.634336 359.06666 61.99562 359.53553 62.464464 360.00437 62.9333 360.36564 63.474004 360.61936 64.08658 360.8731 64.69915 360.99998 65.33695 361 66Z" fill="#fad7ac"/>
<path transform="matrix(.7215496,0,0,.7215496,.3607748,.3607748)" stroke-width="1" stroke-linecap="butt" stroke-miterlimit="4" stroke-linejoin="miter" fill="none" stroke="#b46504" d="M361 66C360.99998 66.66303 360.8731 67.300838 360.61936 67.91341 360.36564 68.52598 360.00437 69.06669 359.53553 69.53553 359.06666 70.00437 358.52595 70.365657 357.91337 70.619388 357.3008 70.87312 356.66304 70.99999 356 71 355.33695 70.99999 354.69914 70.87312 354.08656 70.619388 353.47398 70.365657 352.9333 70.00437 352.46446 69.53553 351.9956 69.06669 351.6343 68.52598 351.38056 67.91341 351.12684 67.300838 350.99998 66.66303 351 66 350.99998 65.33695 351.12684 64.69915 351.38056 64.08658 351.6343 63.474004 351.9956 62.9333 352.46446 62.464464 352.9333 61.99562 353.47398 61.63433 354.08656 61.380598 354.69914 61.126867 355.33695 61 356 61 356.66304 61 357.3008 61.126867 357.91337 61.3806 358.52595 61.634336 359.06666 61.99562 359.53553 62.464464 360.00437 62.9333 360.36564 63.474004 360.61936 64.08658 360.8731 64.69915 360.99998 65.33695 361 66Z"/>
<path transform="matrix(.7215496,0,0,.7215496,.3607748,.3607748)" d="M301 136C300.99998 136.66304 300.8731 137.30084 300.61936 137.9134 300.3656 138.52597 300.00434 139.06668 299.53553 139.53553 299.06666 140.00435 298.52595 140.36563 297.9134 140.61937 297.3008 140.87311 296.663 140.99999 296 141 295.33695 140.99999 294.69914 140.87311 294.08659 140.61937 293.474 140.36563 292.9333 140.00435 292.46446 139.53553 291.99559 139.06668 291.63429 138.52597 291.38059 137.9134 291.12684 137.30084 290.99998 136.66304 291 136 290.99998 135.33695 291.12684 134.69913 291.38059 134.08657 291.63429 133.474 291.99559 132.93329 292.46446 132.46445 292.9333 131.9956 293.474 131.63433 294.08659 131.38059 294.69914 131.12686 295.33695 131 296 131 296.663 131 297.3008 131.12686 297.9134 131.38059 298.52595 131.63433 299.06666 131.9956 299.53553 132.46445 300.00434 132.93329 300.3656 133.474 300.61936 134.08657 300.8731 134.69913 300.99998 135.33695 301 136Z" fill="#fad9d5"/>
<path transform="matrix(.7215496,0,0,.7215496,.3607748,.3607748)" stroke-width="1" stroke-linecap="butt" stroke-miterlimit="4" stroke-linejoin="miter" fill="none" stroke="#ae4132" d="M301 136C300.99998 136.66304 300.8731 137.30084 300.61936 137.9134 300.3656 138.52597 300.00434 139.06668 299.53553 139.53553 299.06666 140.00435 298.52595 140.36563 297.9134 140.61937 297.3008 140.87311 296.663 140.99999 296 141 295.33695 140.99999 294.69914 140.87311 294.08659 140.61937 293.474 140.36563 292.9333 140.00435 292.46446 139.53553 291.99559 139.06668 291.63429 138.52597 291.38059 137.9134 291.12684 137.30084 290.99998 136.66304 291 136 290.99998 135.33695 291.12684 134.69913 291.38059 134.08657 291.63429 133.474 291.99559 132.93329 292.46446 132.46445 292.9333 131.9956 293.474 131.63433 294.08659 131.38059 294.69914 131.12686 295.33695 131 296 131 296.663 131 297.3008 131.12686 297.9134 131.38059 298.52595 131.63433 299.06666 131.9956 299.53553 132.46445 300.00434 132.93329 300.3656 133.474 300.61936 134.08657 300.8731 134.69913 300.99998 135.33695 301 136Z"/>
<path transform="matrix(.7215496,0,0,.7215496,.3607748,.3607748)" stroke-width="1" stroke-linecap="butt" stroke-miterlimit="4" stroke-linejoin="miter" fill="none" stroke="#b1ddf0" d="M256 6H316V66H256Z"/>
<path transform="matrix(.7215496,0,0,.7215496,.3607748,.3607748)" stroke-width="1" stroke-linecap="butt" stroke-miterlimit="4" stroke-linejoin="miter" fill="none" stroke="#fad7ac" d="M326 36H386V96H326Z"/>
<path transform="matrix(.7215496,0,0,.7215496,.3607748,.3607748)" stroke-width="1" stroke-linecap="butt" stroke-miterlimit="4" stroke-linejoin="miter" fill="none" stroke="#ae4132" d="M266 106H326V166H266Z"/>
<path transform="matrix(.7215496,0,0,.7215496,.3607748,.3607748)" d="M121 221H291V391H121Z" fill="#ffffff"/>
<path transform="matrix(.7215496,0,0,.7215496,.3607748,.3607748)" stroke-width="1" stroke-linecap="butt" stroke-miterlimit="4" stroke-linejoin="miter" fill="none" stroke="#000000" d="M121 221H291V391H121Z"/>
<path transform="matrix(.7215496,0,0,.7215496,.3607748,.3607748)" d="M171 256C170.99999 256.66304 170.87313 257.3008 170.61939 257.9134 170.36565 258.52598 170.00435 259.06669 169.53553 259.53553 169.06667 260.00437 168.52596 260.36564 167.91339 260.61936 167.30083 260.8731 166.66303 260.99998 166 261 165.33695 260.99998 164.69913 260.8731 164.08657 260.61936 163.474 260.36564 162.93329 260.00437 162.46445 259.53553 161.9956 259.06669 161.63431 258.52598 161.38057 257.9134 161.12685 257.3008 160.99999 256.66304 161 256 160.99999 255.33695 161.12685 254.69913 161.38057 254.08657 161.63431 253.47399 161.9956 252.93328 162.46445 252.46445 162.93329 251.99559 163.474 251.63431 164.08657 251.38057 164.69913 251.12686 165.33695 251 166 251 166.66303 251 167.30083 251.12686 167.91339 251.38057 168.52596 251.63431 169.06667 251.99559 169.53553 252.46445 170.00435 252.93328 170.36565 253.47399 170.61939 254.08657 170.87313 254.69913 170.99999 255.33695 171 256Z" fill="#b1ddf0"/>
<path transform="matrix(.7215496,0,0,.7215496,.3607748,.3607748)" stroke-width="1" stroke-linecap="butt" stroke-miterlimit="4" stroke-linejoin="miter" fill="none" stroke="#10739e" d="M171 256C170.99999 256.66304 170.87313 257.3008 170.61939 257.9134 170.36565 258.52598 170.00435 259.06669 169.53553 259.53553 169.06667 260.00437 168.52596 260.36564 167.91339 260.61936 167.30083 260.8731 166.66303 260.99998 166 261 165.33695 260.99998 164.69913 260.8731 164.08657 260.61936 163.474 260.36564 162.93329 260.00437 162.46445 259.53553 161.9956 259.06669 161.63431 258.52598 161.38057 257.9134 161.12685 257.3008 160.99999 256.66304 161 256 160.99999 255.33695 161.12685 254.69913 161.38057 254.08657 161.63431 253.47399 161.9956 252.93328 162.46445 252.46445 162.93329 251.99559 163.474 251.63431 164.08657 251.38057 164.69913 251.12686 165.33695 251 166 251 166.66303 251 167.30083 251.12686 167.91339 251.38057 168.52596 251.63431 169.06667 251.99559 169.53553 252.46445 170.00435 252.93328 170.36565 253.47399 170.61939 254.08657 170.87313 254.69913 170.99999 255.33695 171 256Z"/>
<path transform="matrix(.7215496,0,0,.7215496,.3607748,.3607748)" d="M241 286C240.99999 286.66304 240.87311 287.3008 240.61937 287.9134 240.36563 288.52598 240.00434 289.06669 239.5355 289.53553 239.06667 290.00437 238.52596 290.36564 237.91339 290.61936 237.30083 290.8731 236.66303 290.99998 236 291 235.33693 290.99998 234.69911 290.8731 234.08655 290.61936 233.47399 290.36564 232.93329 290.00437 232.46446 289.53553 231.9956 289.06669 231.63431 288.52598 231.38059 287.9134 231.12685 287.3008 230.99999 286.66304 231 286 230.99999 285.33695 231.12685 284.69914 231.38059 284.08656 231.63431 283.47398 231.9956 282.9333 232.46446 282.46446 232.93329 281.9956 233.47399 281.6343 234.08655 281.38059 234.69911 281.12687 235.33693 281 236 281 236.66303 281 237.30083 281.12687 237.91339 281.38059 238.52596 281.6343 239.06667 281.9956 239.5355 282.46446 240.00434 282.9333 240.36562 283.47398 240.61936 284.08656 240.87311 284.69914 240.99999 285.33695 241 286Z" fill="#fad7ac"/>
<path transform="matrix(.7215496,0,0,.7215496,.3607748,.3607748)" stroke-width="1" stroke-linecap="butt" stroke-miterlimit="4" stroke-linejoin="miter" fill="none" stroke="#b46504" d="M241 286C240.99999 286.66304 240.87311 287.3008 240.61937 287.9134 240.36563 288.52598 240.00434 289.06669 239.5355 289.53553 239.06667 290.00437 238.52596 290.36564 237.91339 290.61936 237.30083 290.8731 236.66303 290.99998 236 291 235.33693 290.99998 234.69911 290.8731 234.08655 290.61936 233.47399 290.36564 232.93329 290.00437 232.46446 289.53553 231.9956 289.06669 231.63431 288.52598 231.38059 287.9134 231.12685 287.3008 230.99999 286.66304 231 286 230.99999 285.33695 231.12685 284.69914 231.38059 284.08656 231.63431 283.47398 231.9956 282.9333 232.46446 282.46446 232.93329 281.9956 233.47399 281.6343 234.08655 281.38059 234.69911 281.12687 235.33693 281 236 281 236.66303 281 237.30083 281.12687 237.91339 281.38059 238.52596 281.6343 239.06667 281.9956 239.5355 282.46446 240.00434 282.9333 240.36562 283.47398 240.61936 284.08656 240.87311 284.69914 240.99999 285.33695 241 286Z"/>
<path transform="matrix(.7215496,0,0,.7215496,.3607748,.3607748)" d="M181 356C180.99999 356.66304 180.87311 357.3008 180.61937 357.91337 180.36563 358.52595 180.00435 359.06666 179.53553 359.53553 179.06668 360.00437 178.52597 360.36564 177.9134 360.61936 177.30084 360.8731 176.66304 360.99998 176 361 175.33696 360.99998 174.69915 360.8731 174.08657 360.61936 173.47399 360.36564 172.93328 360.00437 172.46445 359.53553 171.9956 359.06666 171.63433 358.52595 171.38059 357.91337 171.12685 357.3008 170.99999 356.66304 171 356 170.99999 355.33695 171.12685 354.69914 171.38059 354.08656 171.63433 353.47398 171.9956 352.9333 172.46445 352.46446 172.93328 351.9956 173.47399 351.63435 174.08657 351.38059 174.69915 351.12687 175.33696 351 176 351 176.66304 351 177.30084 351.12687 177.9134 351.38059 178.52597 351.63435 179.06668 351.9956 179.53553 352.46446 180.00435 352.9333 180.36563 353.47398 180.61937 354.08656 180.87311 354.69914 180.99999 355.33695 181 356Z" fill="#fad9d5"/>
<path transform="matrix(.7215496,0,0,.7215496,.3607748,.3607748)" stroke-width="1" stroke-linecap="butt" stroke-miterlimit="4" stroke-linejoin="miter" fill="none" stroke="#ae4132" d="M181 356C180.99999 356.66304 180.87311 357.3008 180.61937 357.91337 180.36563 358.52595 180.00435 359.06666 179.53553 359.53553 179.06668 360.00437 178.52597 360.36564 177.9134 360.61936 177.30084 360.8731 176.66304 360.99998 176 361 175.33696 360.99998 174.69915 360.8731 174.08657 360.61936 173.47399 360.36564 172.93328 360.00437 172.46445 359.53553 171.9956 359.06666 171.63433 358.52595 171.38059 357.91337 171.12685 357.3008 170.99999 356.66304 171 356 170.99999 355.33695 171.12685 354.69914 171.38059 354.08656 171.63433 353.47398 171.9956 352.9333 172.46445 352.46446 172.93328 351.9956 173.47399 351.63435 174.08657 351.38059 174.69915 351.12687 175.33696 351 176 351 176.66304 351 177.30084 351.12687 177.9134 351.38059 178.52597 351.63435 179.06668 351.9956 179.53553 352.46446 180.00435 352.9333 180.36563 353.47398 180.61937 354.08656 180.87311 354.69914 180.99999 355.33695 181 356Z"/>
<path transform="matrix(.7215496,0,0,.7215496,.3607748,.3607748)" stroke-width="1" stroke-linecap="butt" stroke-miterlimit="4" stroke-linejoin="miter" fill="none" stroke="#b1ddf0" d="M136 226H196V286H136Z"/>
<path transform="matrix(.7215496,0,0,.7215496,.3607748,.3607748)" stroke-width="1" stroke-linecap="butt" stroke-miterlimit="4" stroke-linejoin="miter" fill="none" stroke="#fad7ac" d="M206 256H266V316H206Z"/>
<path transform="matrix(.7215496,0,0,.7215496,.3607748,.3607748)" stroke-width="1" stroke-linecap="butt" stroke-miterlimit="4" stroke-linejoin="miter" fill="none" stroke="#ae4132" d="M146 326H206V386H146Z"/>
<path transform="matrix(.7215496,0,0,.7215496,.3607748,.3607748)" stroke-width="1" stroke-linecap="butt" stroke-miterlimit="4" stroke-linejoin="miter" fill="none" stroke="#fad7ac" d="M221 271H251V301H221Z"/>
<path transform="matrix(.7215496,0,0,.7215496,.3607748,.3607748)" stroke-width="1" stroke-linecap="butt" stroke-miterlimit="4" stroke-linejoin="miter" fill="none" stroke="#ae4132" d="M161 341H191V371H161Z"/>
<path transform="matrix(.7215496,0,0,.7215496,.3607748,.3607748)" stroke-width="1" stroke-linecap="butt" stroke-miterlimit="4" stroke-linejoin="miter" fill="none" stroke="#fad7ac" d="M228.5 278.5H243.5V293.5H228.5Z"/>
<path transform="matrix(.7215496,0,0,.7215496,.3607748,.3607748)" d="M230 456C230 456.8188 229.95987 457.6356 229.87963 458.45045 229.79938 459.26527 229.67937 460.0742 229.51963 460.8772 229.35988 461.68028 229.16118 462.47355 228.92351 463.25709 228.68582 464.04063 228.41031 464.81059 228.09697 465.56703 227.78363 466.32353 227.43398 467.0628 227.048 467.78489 226.66205 468.507 226.24163 469.20845 225.78672 469.8892 225.33184 470.57 224.84468 471.2269 224.32526 471.85984 223.80583 472.49278 223.25662 473.0987 222.67766 473.67765 222.09871 474.25666 221.49277 474.80586 220.85984 475.32527 220.2269 475.8447 219.57003 476.33186 218.88922 476.7867 218.20844 477.2416 217.507 477.66206 216.78491 478.048 216.0628 478.43397 215.32352 478.7836 214.56707 479.09693 213.81063 479.41029 213.04064 479.6858 212.25711 479.92347 211.47359 480.16117 210.68029 480.3599 209.87723 480.5196 209.0742 480.67936 208.26528 480.79936 207.45044 480.8796 206.6356 480.95988 205.81879 481 205 481 204.18123 481 203.36443 480.95988 202.54959 480.8796 201.73474 480.79936 200.92578 480.67936 200.12273 480.5196 199.3197 480.3599 198.52642 480.1612 197.74289 479.9235 196.95937 479.6858 196.18936 479.41029 195.43289 479.09693 194.67646 478.7836 193.93718 478.43397 193.21508 478.04798 192.49298 477.66203 191.79154 477.24159 191.11074 476.78669 190.42993 476.33183 189.77309 475.8447 189.14017 475.32527 188.50725 474.80586 187.90129 474.25666 187.32233 473.67765 186.74337 473.0987 186.19417 472.49278 185.67475 471.85984 185.15532 471.2269 184.66815 470.57 184.21326 469.8892 183.75838 469.20845 183.33795 468.507 182.95197 467.78489 182.566 467.0628 182.21633 466.32353 181.90299 465.56703 181.58966 464.81059 181.31417 464.04063 181.07648 463.25709 180.8388 462.47355 180.6401 461.68028 180.48036 460.8772 180.32064 460.0742 180.20064 459.26527 180.12039 458.45045 180.04013 457.6356 180 456.8188 180 456 180 455.18125 180.04013 454.36445 180.12038 453.5496 180.20064 452.73478 180.32064 451.9258 180.48036 451.1227 180.6401 450.3197 180.8388 449.52644 181.07649 448.7429 181.31418 447.95936 181.58968 447.18937 181.903 446.4329 182.21634 445.67646 182.566 444.9372 182.95197 444.21513 183.33795 443.49299 183.75838 442.79154 184.21326 442.11073 184.66815 441.42997 185.15532 440.7731 185.67475 440.14018 186.19417 439.50727 186.74337 438.9013 187.32233 438.32234 187.90129 437.74339 188.50725 437.19419 189.14017 436.67475 189.77309 436.1553 190.42993 435.66813 191.11072 435.2132 191.79152 434.75834 192.49297 434.33793 193.21506 433.95195 193.93718 433.56599 194.67646 433.2163 195.43289 432.90299 196.18936 432.58967 196.95935 432.31419 197.74288 432.0765 198.52642 431.83885 199.3197 431.64015 200.12273 431.48039 200.92578 431.32069 201.73474 431.20069 202.54958 431.12043 203.36441 431.0402 204.18123 431.00004 205 431 205.81879 431.00004 206.6356 431.0402 207.45044 431.12043 208.26528 431.20069 209.0742 431.32069 209.87725 431.48039 210.6803 431.64015 211.47359 431.83885 212.25711 432.0765 213.04064 432.31419 213.81063 432.58967 214.56707 432.90299 215.32352 433.2163 216.0628 433.56599 216.7849 433.95198 217.50699 434.33793 218.20844 434.75837 218.88922 435.21324 219.57003 435.66813 220.2269 436.1553 220.85984 436.67475 221.49277 437.19419 222.09871 437.74339 222.67766 438.32234 223.25662 438.9013 223.80582 439.50727 224.32524 440.1402 224.84467 440.7731 225.33184 441.42997 225.78672 442.11073 226.24163 442.79154 226.66205 443.49299 227.04802 444.21513 227.43399 444.9372 227.78363 445.67646 228.09697 446.4329 228.41031 447.18937 228.68582 447.95936 228.9235 448.7429 229.16118 449.52644 229.35988 450.3197 229.51963 451.1227 229.67937 451.9258 229.79938 452.73478 229.87963 453.5496 229.95987 454.36445 230 455.18125 230 456Z" fill="#ffffff"/>
<path transform="matrix(.7215496,0,0,.7215496,.3607748,.3607748)" stroke-width="1" stroke-linecap="butt" stroke-miterlimit="4" stroke-linejoin="miter" fill="none" stroke="#000000" d="M230 456C230 456.8188 229.95987 457.6356 229.87963 458.45045 229.79938 459.26527 229.67937 460.0742 229.51963 460.8772 229.35988 461.68028 229.16118 462.47355 228.92351 463.25709 228.68582 464.04063 228.41031 464.81059 228.09697 465.56703 227.78363 466.32353 227.43398 467.0628 227.048 467.78489 226.66205 468.507 226.24163 469.20845 225.78672 469.8892 225.33184 470.57 224.84468 471.2269 224.32526 471.85984 223.80583 472.49278 223.25662 473.0987 222.67766 473.67765 222.09871 474.25666 221.49277 474.80586 220.85984 475.32527 220.2269 475.8447 219.57003 476.33186 218.88922 476.7867 218.20844 477.2416 217.507 477.66206 216.78491 478.048 216.0628 478.43397 215.32352 478.7836 214.56707 479.09693 213.81063 479.41029 213.04064 479.6858 212.25711 479.92347 211.47359 480.16117 210.68029 480.3599 209.87723 480.5196 209.0742 480.67936 208.26528 480.79936 207.45044 480.8796 206.6356 480.95988 205.81879 481 205 481 204.18123 481 203.36443 480.95988 202.54959 480.8796 201.73474 480.79936 200.92578 480.67936 200.12273 480.5196 199.3197 480.3599 198.52642 480.1612 197.74289 479.9235 196.95937 479.6858 196.18936 479.41029 195.43289 479.09693 194.67646 478.7836 193.93718 478.43397 193.21508 478.04798 192.49298 477.66203 191.79154 477.24159 191.11074 476.78669 190.42993 476.33183 189.77309 475.8447 189.14017 475.32527 188.50725 474.80586 187.90129 474.25666 187.32233 473.67765 186.74337 473.0987 186.19417 472.49278 185.67475 471.85984 185.15532 471.2269 184.66815 470.57 184.21326 469.8892 183.75838 469.20845 183.33795 468.507 182.95197 467.78489 182.566 467.0628 182.21633 466.32353 181.90299 465.56703 181.58966 464.81059 181.31417 464.04063 181.07648 463.25709 180.8388 462.47355 180.6401 461.68028 180.48036 460.8772 180.32064 460.0742 180.20064 459.26527 180.12039 458.45045 180.04013 457.6356 180 456.8188 180 456 180 455.18125 180.04013 454.36445 180.12038 453.5496 180.20064 452.73478 180.32064 451.9258 180.48036 451.1227 180.6401 450.3197 180.8388 449.52644 181.07649 448.7429 181.31418 447.95936 181.58968 447.18937 181.903 446.4329 182.21634 445.67646 182.566 444.9372 182.95197 444.21513 183.33795 443.49299 183.75838 442.79154 184.21326 442.11073 184.66815 441.42997 185.15532 440.7731 185.67475 440.14018 186.19417 439.50727 186.74337 438.9013 187.32233 438.32234 187.90129 437.74339 188.50725 437.19419 189.14017 436.67475 189.77309 436.1553 190.42993 435.66813 191.11072 435.2132 191.79152 434.75834 192.49297 434.33793 193.21506 433.95195 193.93718 433.56599 194.67646 433.2163 195.43289 432.90299 196.18936 432.58967 196.95935 432.31419 197.74288 432.0765 198.52642 431.83885 199.3197 431.64015 200.12273 431.48039 200.92578 431.32069 201.73474 431.20069 202.54958 431.12043 203.36441 431.0402 204.18123 431.00004 205 431 205.81879 431.00004 206.6356 431.0402 207.45044 431.12043 208.26528 431.20069 209.0742 431.32069 209.87725 431.48039 210.6803 431.64015 211.47359 431.83885 212.25711 432.0765 213.04064 432.31419 213.81063 432.58967 214.56707 432.90299 215.32352 433.2163 216.0628 433.56599 216.7849 433.95198 217.50699 434.33793 218.20844 434.75837 218.88922 435.21324 219.57003 435.66813 220.2269 436.1553 220.85984 436.67475 221.49277 437.19419 222.09871 437.74339 222.67766 438.32234 223.25662 438.9013 223.80582 439.50727 224.32524 440.1402 224.84467 440.7731 225.33184 441.42997 225.78672 442.11073 226.24163 442.79154 226.66205 443.49299 227.04802 444.21513 227.43399 444.9372 227.78363 445.67646 228.09697 446.4329 228.41031 447.18937 228.68582 447.95936 228.9235 448.7429 229.16118 449.52644 229.35988 450.3197 229.51963 451.1227 229.67937 451.9258 229.79938 452.73478 229.87963 453.5496 229.95987 454.36445 230 455.18125 230 456Z"/>
<text xml:space="preserve" transform="matrix(.7215496 0 0 .7215496 0 0)" font-size="12" font-family="ArialMT"><tspan y="460" x="200.32813">Q</tspan></text>
<path transform="matrix(.7215496,0,0,.7215496,.3607748,.3607748)" stroke-width="1" stroke-linecap="butt" stroke-miterlimit="10" stroke-linejoin="miter" fill="none" stroke="#000000" d="M135 548.5V564.63"/>
<path transform="matrix(.7215496,0,0,.7215496,.3607748,.3607748)" d="M135 569.88 131.5 562.88 135 564.63 138.5 562.88 135 569.88Z"/>
<path transform="matrix(.7215496,0,0,.7215496,.3607748,.3607748)" stroke-width="1" stroke-linecap="butt" stroke-miterlimit="10" stroke-linejoin="miter" fill="none" stroke="#000000" d="M135 569.88 131.5 562.88 135 564.63 138.5 562.88 135 569.88Z"/>
<path transform="matrix(.7215496,0,0,.7215496,.3607748,.3607748)" d="M160 523.5C160.00002 524.3188 159.95989 525.1356 159.87963 525.9505 159.79936 526.7653 159.67937 527.5742 159.51963 528.37728 159.35988 529.1803 159.16118 529.97366 158.9235 530.75717 158.6858 531.5407 158.4103 532.31069 158.09697 533.0671 157.78363 533.8235 157.43399 534.5628 157.04802 535.2849 156.66204 536.007 156.2416 536.7085 155.78672 537.3892 155.33182 538.07 154.84467 538.72689 154.32524 539.3598 153.80582 539.99276 153.25662 540.5987 152.67766 541.1776 152.0987 541.7566 151.49275 542.3058 150.85984 542.8252 150.22692 543.34469 149.57006 543.8318 148.88925 544.2866 148.20845 544.7415 147.507 545.162 146.7849 545.54806 146.0628 545.93399 145.32352 546.28359 144.56707 546.5969 143.81061 546.9103 143.04064 547.1858 142.25711 547.4235 141.47359 547.6612 140.6803 547.85989 139.87725 548.0196 139.0742 548.1794 138.26526 548.2994 137.45043 548.37966 136.63559 548.4599 135.81879 548.5 135 548.5 134.18123 548.5 133.36441 548.4599 132.54958 548.37966 131.73474 548.2994 130.9258 548.1794 130.12274 548.0196 129.31969 547.85989 128.5264 547.6612 127.742877 547.4235 126.95934 547.1858 126.189357 546.9103 125.4329 546.5969 124.676448 546.28359 123.937168 545.93399 123.215068 545.54806 122.492969 545.162 121.79152 544.7415 121.110729 544.2866 120.42993 543.8318 119.77308 543.34469 119.14015 542.8252 118.50723 542.3058 117.90129 541.7566 117.32232 541.1776 116.74336 540.5987 116.19417 539.99276 115.674739 539.3598 115.155307 538.72689 114.668148 538.07 114.21325 537.3892 113.75836 536.70846 113.33793 536.007 112.951969 535.2849 112.565998 534.5628 112.21634 533.8235 111.903 533.067 111.58967 532.3106 111.31416 531.5406 111.076488 530.7571 110.838809 529.9736 110.64009 529.1803 110.480358 528.3772 110.320629 527.5742 110.20064 526.7653 110.120388 525.95046 110.04013 525.1356 110 524.3188 110 523.5 110 522.6812 110.04012 521.86447 110.12038 521.04959 110.20063 520.23477 110.320629 519.4258 110.480358 518.62277 110.64009 517.8197 110.838809 517.0264 111.07649 516.2429 111.31416 515.4594 111.58967 514.6894 111.903 513.93289 112.21634 513.17648 112.565998 512.43716 112.951969 511.71504 113.33793 510.99296 113.75836 510.29148 114.21325 509.61067 114.668148 508.9299 115.155307 508.27308 115.674739 507.64018 116.19417 507.00727 116.74336 506.4013 117.32232 505.8223 117.90129 505.24336 118.50723 504.69416 119.14015 504.1747 119.77308 503.65528 120.42993 503.16813 121.110729 502.7132 121.79152 502.25834 122.492969 501.8379 123.215068 501.45195 123.937168 501.06599 124.676448 500.7163 125.43289 500.40296 126.189357 500.08964 126.95934 499.81416 127.74287 499.5765 128.5264 499.3388 129.31967 499.1401 130.12273 498.98036 130.92578 498.82066 131.73473 498.70066 132.54958 498.6204 133.36441 498.54017 134.18123 498.50004 135 498.5 135.81879 498.50004 136.63559 498.54017 137.45043 498.62043 138.26526 498.70066 139.0742 498.82066 139.87725 498.98039 140.6803 499.14015 141.47359 499.33885 142.25711 499.5765 143.04064 499.81416 143.81061 500.08964 144.56707 500.40296 145.32352 500.7163 146.0628 501.06596 146.7849 501.4519 147.507 501.8379 148.20845 502.25834 148.88925 502.7132 149.57006 503.16813 150.2269 503.65528 150.85982 504.17469 151.49274 504.69413 152.0987 505.24336 152.67766 505.8223 153.25662 506.4013 153.80582 507.00727 154.32524 507.64018 154.84467 508.27308 155.33182 508.9299 155.78672 509.6107 156.2416 510.2915 156.66204 510.99299 157.04802 511.71507 157.43399 512.43716 157.78363 513.17648 158.09697 513.93289 158.4103 514.6894 158.6858 515.4594 158.92351 516.2429 159.16118 517.0264 159.35988 517.8197 159.51963 518.62277 159.67937 519.4258 159.79936 520.23477 159.87963 521.04959 159.95989 521.86447 160.00002 522.6812 160 523.5Z" fill="#fad7ac"/>
<path transform="matrix(.7215496,0,0,.7215496,.3607748,.3607748)" stroke-width="1" stroke-linecap="butt" stroke-miterlimit="4" stroke-linejoin="miter" fill="none" stroke="#b46504" d="M160 523.5C160.00002 524.3188 159.95989 525.1356 159.87963 525.9505 159.79936 526.7653 159.67937 527.5742 159.51963 528.37728 159.35988 529.1803 159.16118 529.97366 158.9235 530.75717 158.6858 531.5407 158.4103 532.31069 158.09697 533.0671 157.78363 533.8235 157.43399 534.5628 157.04802 535.2849 156.66204 536.007 156.2416 536.7085 155.78672 537.3892 155.33182 538.07 154.84467 538.72689 154.32524 539.3598 153.80582 539.99276 153.25662 540.5987 152.67766 541.1776 152.0987 541.7566 151.49275 542.3058 150.85984 542.8252 150.22692 543.34469 149.57006 543.8318 148.88925 544.2866 148.20845 544.7415 147.507 545.162 146.7849 545.54806 146.0628 545.93399 145.32352 546.28359 144.56707 546.5969 143.81061 546.9103 143.04064 547.1858 142.25711 547.4235 141.47359 547.6612 140.6803 547.85989 139.87725 548.0196 139.0742 548.1794 138.26526 548.2994 137.45043 548.37966 136.63559 548.4599 135.81879 548.5 135 548.5 134.18123 548.5 133.36441 548.4599 132.54958 548.37966 131.73474 548.2994 130.9258 548.1794 130.12274 548.0196 129.31969 547.85989 128.5264 547.6612 127.742877 547.4235 126.95934 547.1858 126.189357 546.9103 125.4329 546.5969 124.676448 546.28359 123.937168 545.93399 123.215068 545.54806 122.492969 545.162 121.79152 544.7415 121.110729 544.2866 120.42993 543.8318 119.77308 543.34469 119.14015 542.8252 118.50723 542.3058 117.90129 541.7566 117.32232 541.1776 116.74336 540.5987 116.19417 539.99276 115.674739 539.3598 115.155307 538.72689 114.668148 538.07 114.21325 537.3892 113.75836 536.70846 113.33793 536.007 112.951969 535.2849 112.565998 534.5628 112.21634 533.8235 111.903 533.067 111.58967 532.3106 111.31416 531.5406 111.076488 530.7571 110.838809 529.9736 110.64009 529.1803 110.480358 528.3772 110.320629 527.5742 110.20064 526.7653 110.120388 525.95046 110.04013 525.1356 110 524.3188 110 523.5 110 522.6812 110.04012 521.86447 110.12038 521.04959 110.20063 520.23477 110.320629 519.4258 110.480358 518.62277 110.64009 517.8197 110.838809 517.0264 111.07649 516.2429 111.31416 515.4594 111.58967 514.6894 111.903 513.93289 112.21634 513.17648 112.565998 512.43716 112.951969 511.71504 113.33793 510.99296 113.75836 510.29148 114.21325 509.61067 114.668148 508.9299 115.155307 508.27308 115.674739 507.64018 116.19417 507.00727 116.74336 506.4013 117.32232 505.8223 117.90129 505.24336 118.50723 504.69416 119.14015 504.1747 119.77308 503.65528 120.42993 503.16813 121.110729 502.7132 121.79152 502.25834 122.492969 501.8379 123.215068 501.45195 123.937168 501.06599 124.676448 500.7163 125.43289 500.40296 126.189357 500.08964 126.95934 499.81416 127.74287 499.5765 128.5264 499.3388 129.31967 499.1401 130.12273 498.98036 130.92578 498.82066 131.73473 498.70066 132.54958 498.6204 133.36441 498.54017 134.18123 498.50004 135 498.5 135.81879 498.50004 136.63559 498.54017 137.45043 498.62043 138.26526 498.70066 139.0742 498.82066 139.87725 498.98039 140.6803 499.14015 141.47359 499.33885 142.25711 499.5765 143.04064 499.81416 143.81061 500.08964 144.56707 500.40296 145.32352 500.7163 146.0628 501.06596 146.7849 501.4519 147.507 501.8379 148.20845 502.25834 148.88925 502.7132 149.57006 503.16813 150.2269 503.65528 150.85982 504.17469 151.49274 504.69413 152.0987 505.24336 152.67766 505.8223 153.25662 506.4013 153.80582 507.00727 154.32524 507.64018 154.84467 508.27308 155.33182 508.9299 155.78672 509.6107 156.2416 510.2915 156.66204 510.99299 157.04802 511.71507 157.43399 512.43716 157.78363 513.17648 158.09697 513.93289 158.4103 514.6894 158.6858 515.4594 158.92351 516.2429 159.16118 517.0264 159.35988 517.8197 159.51963 518.62277 159.67937 519.4258 159.79936 520.23477 159.87963 521.04959 159.95989 521.86447 160.00002 522.6812 160 523.5Z"/>
<text xml:space="preserve" transform="matrix(.7215496 0 0 .7215496 0 0)" font-size="12" font-family="ArialMT"><tspan y="527" x="127.546878">Q</tspan></text>
<text xml:space="preserve" transform="matrix(.7215496 0 0 .7215496 0 0)" font-size="10" font-family="ArialMT"><tspan y="530.3906" x="136.89063">1</tspan></text>
<path transform="matrix(.7215496,0,0,.7215496,.3607748,.3607748)" d="M230 523.5C230 524.3188 229.95987 525.1356 229.87963 525.9505 229.79938 526.7653 229.67937 527.5742 229.51963 528.37728 229.35988 529.1803 229.16118 529.97366 228.92351 530.75717 228.68582 531.5407 228.41031 532.31069 228.09697 533.0671 227.78363 533.8235 227.43398 534.5628 227.048 535.2849 226.66205 536.007 226.24163 536.7085 225.78672 537.3892 225.33184 538.07 224.84468 538.72689 224.32526 539.3598 223.80583 539.99276 223.25662 540.5987 222.67766 541.1776 222.09871 541.7566 221.49277 542.3058 220.85984 542.8252 220.2269 543.34469 219.57003 543.8318 218.88922 544.2866 218.20844 544.7415 217.507 545.162 216.78491 545.54806 216.0628 545.93399 215.32352 546.28359 214.56707 546.5969 213.81063 546.9103 213.04064 547.1858 212.25711 547.4235 211.47359 547.6612 210.68029 547.85989 209.87723 548.0196 209.0742 548.1794 208.26528 548.2994 207.45044 548.37966 206.6356 548.4599 205.81879 548.5 205 548.5 204.18123 548.5 203.36443 548.4599 202.54959 548.37966 201.73474 548.2994 200.92578 548.1794 200.12273 548.0196 199.3197 547.85989 198.52642 547.6612 197.74289 547.4235 196.95937 547.1858 196.18936 546.9103 195.43289 546.5969 194.67646 546.28359 193.93718 545.93399 193.21508 545.54806 192.49298 545.162 191.79154 544.7415 191.11074 544.2866 190.42993 543.8318 189.77309 543.34469 189.14017 542.8252 188.50725 542.3058 187.90129 541.7566 187.32233 541.1776 186.74337 540.5987 186.19417 539.99276 185.67475 539.3598 185.15532 538.72689 184.66815 538.07 184.21326 537.3892 183.75838 536.70846 183.33795 536.007 182.95197 535.2849 182.566 534.5628 182.21633 533.8235 181.90299 533.067 181.58966 532.3106 181.31417 531.5406 181.07648 530.7571 180.8388 529.9736 180.6401 529.1803 180.48036 528.3772 180.32064 527.5742 180.20064 526.7653 180.12039 525.95046 180.04013 525.1356 180 524.3188 180 523.5 180 522.6812 180.04013 521.86447 180.12038 521.04959 180.20064 520.23477 180.32064 519.4258 180.48036 518.62277 180.6401 517.8197 180.8388 517.0264 181.07649 516.2429 181.31418 515.4594 181.58968 514.6894 181.903 513.93289 182.21634 513.17648 182.566 512.43716 182.95197 511.71504 183.33795 510.99296 183.75838 510.29148 184.21326 509.61067 184.66815 508.9299 185.15532 508.27308 185.67475 507.64018 186.19417 507.00727 186.74337 506.4013 187.32233 505.8223 187.90129 505.24336 188.50725 504.69416 189.14017 504.1747 189.77309 503.65528 190.42993 503.16813 191.11072 502.7132 191.79152 502.25834 192.49297 501.8379 193.21506 501.45195 193.93718 501.06599 194.67646 500.7163 195.43289 500.40296 196.18936 500.08964 196.95935 499.81416 197.74288 499.5765 198.52642 499.3388 199.3197 499.1401 200.12273 498.98036 200.92578 498.82066 201.73474 498.70066 202.54958 498.6204 203.36441 498.54017 204.18123 498.50004 205 498.5 205.81879 498.50004 206.6356 498.54017 207.45044 498.62043 208.26528 498.70066 209.0742 498.82066 209.87725 498.98039 210.6803 499.14015 211.47359 499.33885 212.25711 499.5765 213.04064 499.81416 213.81063 500.08964 214.56707 500.40296 215.32352 500.7163 216.0628 501.06596 216.7849 501.4519 217.50699 501.8379 218.20844 502.25834 218.88922 502.7132 219.57003 503.16813 220.2269 503.65528 220.85984 504.17469 221.49277 504.69413 222.09871 505.24336 222.67766 505.8223 223.25662 506.4013 223.80582 507.00727 224.32524 507.64018 224.84467 508.27308 225.33184 508.9299 225.78672 509.6107 226.24163 510.2915 226.66205 510.99299 227.04802 511.71507 227.43399 512.43716 227.78363 513.17648 228.09697 513.93289 228.41031 514.6894 228.68582 515.4594 228.9235 516.2429 229.16118 517.0264 229.35988 517.8197 229.51963 518.62277 229.67937 519.4258 229.79938 520.23477 229.87963 521.04959 229.95987 521.86447 230 522.6812 230 523.5Z" fill="#b1ddf0"/>
<path transform="matrix(.7215496,0,0,.7215496,.3607748,.3607748)" stroke-width="1" stroke-linecap="butt" stroke-miterlimit="4" stroke-linejoin="miter" fill="none" stroke="#10739e" d="M230 523.5C230 524.3188 229.95987 525.1356 229.87963 525.9505 229.79938 526.7653 229.67937 527.5742 229.51963 528.37728 229.35988 529.1803 229.16118 529.97366 228.92351 530.75717 228.68582 531.5407 228.41031 532.31069 228.09697 533.0671 227.78363 533.8235 227.43398 534.5628 227.048 535.2849 226.66205 536.007 226.24163 536.7085 225.78672 537.3892 225.33184 538.07 224.84468 538.72689 224.32526 539.3598 223.80583 539.99276 223.25662 540.5987 222.67766 541.1776 222.09871 541.7566 221.49277 542.3058 220.85984 542.8252 220.2269 543.34469 219.57003 543.8318 218.88922 544.2866 218.20844 544.7415 217.507 545.162 216.78491 545.54806 216.0628 545.93399 215.32352 546.28359 214.56707 546.5969 213.81063 546.9103 213.04064 547.1858 212.25711 547.4235 211.47359 547.6612 210.68029 547.85989 209.87723 548.0196 209.0742 548.1794 208.26528 548.2994 207.45044 548.37966 206.6356 548.4599 205.81879 548.5 205 548.5 204.18123 548.5 203.36443 548.4599 202.54959 548.37966 201.73474 548.2994 200.92578 548.1794 200.12273 548.0196 199.3197 547.85989 198.52642 547.6612 197.74289 547.4235 196.95937 547.1858 196.18936 546.9103 195.43289 546.5969 194.67646 546.28359 193.93718 545.93399 193.21508 545.54806 192.49298 545.162 191.79154 544.7415 191.11074 544.2866 190.42993 543.8318 189.77309 543.34469 189.14017 542.8252 188.50725 542.3058 187.90129 541.7566 187.32233 541.1776 186.74337 540.5987 186.19417 539.99276 185.67475 539.3598 185.15532 538.72689 184.66815 538.07 184.21326 537.3892 183.75838 536.70846 183.33795 536.007 182.95197 535.2849 182.566 534.5628 182.21633 533.8235 181.90299 533.067 181.58966 532.3106 181.31417 531.5406 181.07648 530.7571 180.8388 529.9736 180.6401 529.1803 180.48036 528.3772 180.32064 527.5742 180.20064 526.7653 180.12039 525.95046 180.04013 525.1356 180 524.3188 180 523.5 180 522.6812 180.04013 521.86447 180.12038 521.04959 180.20064 520.23477 180.32064 519.4258 180.48036 518.62277 180.6401 517.8197 180.8388 517.0264 181.07649 516.2429 181.31418 515.4594 181.58968 514.6894 181.903 513.93289 182.21634 513.17648 182.566 512.43716 182.95197 511.71504 183.33795 510.99296 183.75838 510.29148 184.21326 509.61067 184.66815 508.9299 185.15532 508.27308 185.67475 507.64018 186.19417 507.00727 186.74337 506.4013 187.32233 505.8223 187.90129 505.24336 188.50725 504.69416 189.14017 504.1747 189.77309 503.65528 190.42993 503.16813 191.11072 502.7132 191.79152 502.25834 192.49297 501.8379 193.21506 501.45195 193.93718 501.06599 194.67646 500.7163 195.43289 500.40296 196.18936 500.08964 196.95935 499.81416 197.74288 499.5765 198.52642 499.3388 199.3197 499.1401 200.12273 498.98036 200.92578 498.82066 201.73474 498.70066 202.54958 498.6204 203.36441 498.54017 204.18123 498.50004 205 498.5 205.81879 498.50004 206.6356 498.54017 207.45044 498.62043 208.26528 498.70066 209.0742 498.82066 209.87725 498.98039 210.6803 499.14015 211.47359 499.33885 212.25711 499.5765 213.04064 499.81416 213.81063 500.08964 214.56707 500.40296 215.32352 500.7163 216.0628 501.06596 216.7849 501.4519 217.50699 501.8379 218.20844 502.25834 218.88922 502.7132 219.57003 503.16813 220.2269 503.65528 220.85984 504.17469 221.49277 504.69413 222.09871 505.24336 222.67766 505.8223 223.25662 506.4013 223.80582 507.00727 224.32524 507.64018 224.84467 508.27308 225.33184 508.9299 225.78672 509.6107 226.24163 510.2915 226.66205 510.99299 227.04802 511.71507 227.43399 512.43716 227.78363 513.17648 228.09697 513.93289 228.41031 514.6894 228.68582 515.4594 228.9235 516.2429 229.16118 517.0264 229.35988 517.8197 229.51963 518.62277 229.67937 519.4258 229.79938 520.23477 229.87963 521.04959 229.95987 521.86447 230 522.6812 230 523.5Z"/>
<text xml:space="preserve" transform="matrix(.7215496 0 0 .7215496 0 0)" font-size="12" font-family="ArialMT"><tspan y="527" x="197.54688">Q</tspan></text>
<text xml:space="preserve" transform="matrix(.7215496 0 0 .7215496 0 0)" font-size="10" font-family="ArialMT"><tspan y="530.3906" x="206.89063">2</tspan></text>
<path transform="matrix(.7215496,0,0,.7215496,.3607748,.3607748)" stroke-width="1" stroke-linecap="butt" stroke-miterlimit="10" stroke-linejoin="miter" fill="none" stroke="#000000" d="M275 548.5V564.63"/>
<path transform="matrix(.7215496,0,0,.7215496,.3607748,.3607748)" d="M275 569.88 271.5 562.88 275 564.63 278.5 562.88 275 569.88Z"/>
<path transform="matrix(.7215496,0,0,.7215496,.3607748,.3607748)" stroke-width="1" stroke-linecap="butt" stroke-miterlimit="10" stroke-linejoin="miter" fill="none" stroke="#000000" d="M275 569.88 271.5 562.88 275 564.63 278.5 562.88 275 569.88Z"/>
<path transform="matrix(.7215496,0,0,.7215496,.3607748,.3607748)" d="M300 523.5C300.00004 524.3188 299.9599 525.1356 299.8796 525.9505 299.79936 526.7653 299.67936 527.5742 299.5196 528.37728 299.3599 529.1803 299.1612 529.97366 298.9235 530.75717 298.68583 531.5407 298.4103 532.31069 298.09696 533.0671 297.78364 533.8235 297.434 534.5628 297.04804 535.2849 296.66206 536.007 296.2416 536.7085 295.7867 537.3892 295.33183 538.07 294.84468 538.72689 294.32527 539.3598 293.80583 539.99276 293.25663 540.5987 292.67765 541.1776 292.0987 541.7566 291.49275 542.3058 290.85984 542.8252 290.2269 543.34469 289.57 543.8318 288.8892 544.2866 288.2084 544.7415 287.50697 545.162 286.78489 545.54806 286.0628 545.93399 285.32353 546.28359 284.56706 546.5969 283.8106 546.9103 283.04063 547.1858 282.25709 547.4235 281.47355 547.6612 280.68028 547.85989 279.87724 548.0196 279.0742 548.1794 278.26527 548.2994 277.45045 548.37966 276.6356 548.4599 275.8188 548.5 275 548.5 274.1812 548.5 273.3644 548.4599 272.5496 548.37966 271.73475 548.2994 270.92579 548.1794 270.1227 548.0196 269.31968 547.85989 268.5264 547.6612 267.74287 547.4235 266.95933 547.1858 266.18934 546.9103 265.43287 546.5969 264.67643 546.28359 263.93717 545.93399 263.21504 545.54806 262.49296 545.162 261.7915 544.7415 261.1107 544.2866 260.42994 543.8318 259.77308 543.34469 259.14015 542.8252 258.5072 542.3058 257.90126 541.7566 257.3223 541.1776 256.74336 540.5987 256.19416 539.99276 255.67472 539.3598 255.15529 538.72689 254.66812 538.07 254.21321 537.3892 253.75833 536.70846 253.33792 536.007 252.95195 535.2849 252.56598 534.5628 252.21631 533.8235 251.90297 533.067 251.58965 532.3106 251.31415 531.5406 251.07648 530.7571 250.83879 529.9736 250.64008 529.1803 250.48033 528.3772 250.32062 527.5742 250.20063 526.7653 250.12038 525.95046 250.04013 525.1356 250 524.3188 250 523.5 250 522.6812 250.04013 521.86447 250.12038 521.04959 250.20063 520.23477 250.32062 519.4258 250.48033 518.62277 250.64008 517.8197 250.83878 517.0264 251.07646 516.2429 251.31415 515.4594 251.58965 514.6894 251.90296 513.93289 252.21631 513.17648 252.56598 512.43716 252.95195 511.71504 253.33792 510.99296 253.75833 510.29148 254.21321 509.61067 254.66812 508.9299 255.15528 508.27308 255.6747 507.64018 256.19416 507.00727 256.74336 506.4013 257.3223 505.8223 257.90126 505.24336 258.5072 504.69416 259.14015 504.1747 259.77308 503.65528 260.42994 503.16813 261.1107 502.7132 261.7915 502.25834 262.49296 501.8379 263.21504 501.45195 263.93717 501.06599 264.67643 500.7163 265.43287 500.40296 266.18934 500.08964 266.95933 499.81416 267.74287 499.5765 268.5264 499.3388 269.31968 499.1401 270.1227 498.98036 270.92579 498.82066 271.73475 498.70066 272.5496 498.6204 273.3644 498.54017 274.1812 498.50004 275 498.5 275.8188 498.50004 276.6356 498.54017 277.45045 498.62043 278.26527 498.70066 279.0742 498.82066 279.87724 498.98039 280.68028 499.14015 281.47355 499.33885 282.25709 499.5765 283.04063 499.81416 283.8106 500.08964 284.56706 500.40296 285.32353 500.7163 286.0628 501.06596 286.78489 501.4519 287.50697 501.8379 288.2084 502.25834 288.8892 502.7132 289.57 503.16813 290.2269 503.65528 290.85984 504.17469 291.49275 504.69413 292.0987 505.24336 292.67765 505.8223 293.25663 506.4013 293.80583 507.00727 294.32527 507.64018 294.84468 508.27308 295.33183 508.9299 295.7867 509.6107 296.2416 510.2915 296.66206 510.99299 297.048 511.71507 297.43397 512.43716 297.78364 513.17648 298.09696 513.93289 298.4103 514.6894 298.68583 515.4594 298.92353 516.2429 299.1612 517.0264 299.3599 517.8197 299.5196 518.62277 299.67936 519.4258 299.79936 520.23477 299.8796 521.04959 299.9599 521.86447 300.00004 522.6812 300 523.5Z" fill="#fad9d5"/>
<path transform="matrix(.7215496,0,0,.7215496,.3607748,.3607748)" stroke-width="1" stroke-linecap="butt" stroke-miterlimit="4" stroke-linejoin="miter" fill="none" stroke="#ae4132" d="M300 523.5C300.00004 524.3188 299.9599 525.1356 299.8796 525.9505 299.79936 526.7653 299.67936 527.5742 299.5196 528.37728 299.3599 529.1803 299.1612 529.97366 298.9235 530.75717 298.68583 531.5407 298.4103 532.31069 298.09696 533.0671 297.78364 533.8235 297.434 534.5628 297.04804 535.2849 296.66206 536.007 296.2416 536.7085 295.7867 537.3892 295.33183 538.07 294.84468 538.72689 294.32527 539.3598 293.80583 539.99276 293.25663 540.5987 292.67765 541.1776 292.0987 541.7566 291.49275 542.3058 290.85984 542.8252 290.2269 543.34469 289.57 543.8318 288.8892 544.2866 288.2084 544.7415 287.50697 545.162 286.78489 545.54806 286.0628 545.93399 285.32353 546.28359 284.56706 546.5969 283.8106 546.9103 283.04063 547.1858 282.25709 547.4235 281.47355 547.6612 280.68028 547.85989 279.87724 548.0196 279.0742 548.1794 278.26527 548.2994 277.45045 548.37966 276.6356 548.4599 275.8188 548.5 275 548.5 274.1812 548.5 273.3644 548.4599 272.5496 548.37966 271.73475 548.2994 270.92579 548.1794 270.1227 548.0196 269.31968 547.85989 268.5264 547.6612 267.74287 547.4235 266.95933 547.1858 266.18934 546.9103 265.43287 546.5969 264.67643 546.28359 263.93717 545.93399 263.21504 545.54806 262.49296 545.162 261.7915 544.7415 261.1107 544.2866 260.42994 543.8318 259.77308 543.34469 259.14015 542.8252 258.5072 542.3058 257.90126 541.7566 257.3223 541.1776 256.74336 540.5987 256.19416 539.99276 255.67472 539.3598 255.15529 538.72689 254.66812 538.07 254.21321 537.3892 253.75833 536.70846 253.33792 536.007 252.95195 535.2849 252.56598 534.5628 252.21631 533.8235 251.90297 533.067 251.58965 532.3106 251.31415 531.5406 251.07648 530.7571 250.83879 529.9736 250.64008 529.1803 250.48033 528.3772 250.32062 527.5742 250.20063 526.7653 250.12038 525.95046 250.04013 525.1356 250 524.3188 250 523.5 250 522.6812 250.04013 521.86447 250.12038 521.04959 250.20063 520.23477 250.32062 519.4258 250.48033 518.62277 250.64008 517.8197 250.83878 517.0264 251.07646 516.2429 251.31415 515.4594 251.58965 514.6894 251.90296 513.93289 252.21631 513.17648 252.56598 512.43716 252.95195 511.71504 253.33792 510.99296 253.75833 510.29148 254.21321 509.61067 254.66812 508.9299 255.15528 508.27308 255.6747 507.64018 256.19416 507.00727 256.74336 506.4013 257.3223 505.8223 257.90126 505.24336 258.5072 504.69416 259.14015 504.1747 259.77308 503.65528 260.42994 503.16813 261.1107 502.7132 261.7915 502.25834 262.49296 501.8379 263.21504 501.45195 263.93717 501.06599 264.67643 500.7163 265.43287 500.40296 266.18934 500.08964 266.95933 499.81416 267.74287 499.5765 268.5264 499.3388 269.31968 499.1401 270.1227 498.98036 270.92579 498.82066 271.73475 498.70066 272.5496 498.6204 273.3644 498.54017 274.1812 498.50004 275 498.5 275.8188 498.50004 276.6356 498.54017 277.45045 498.62043 278.26527 498.70066 279.0742 498.82066 279.87724 498.98039 280.68028 499.14015 281.47355 499.33885 282.25709 499.5765 283.04063 499.81416 283.8106 500.08964 284.56706 500.40296 285.32353 500.7163 286.0628 501.06596 286.78489 501.4519 287.50697 501.8379 288.2084 502.25834 288.8892 502.7132 289.57 503.16813 290.2269 503.65528 290.85984 504.17469 291.49275 504.69413 292.0987 505.24336 292.67765 505.8223 293.25663 506.4013 293.80583 507.00727 294.32527 507.64018 294.84468 508.27308 295.33183 508.9299 295.7867 509.6107 296.2416 510.2915 296.66206 510.99299 297.048 511.71507 297.43397 512.43716 297.78364 513.17648 298.09696 513.93289 298.4103 514.6894 298.68583 515.4594 298.92353 516.2429 299.1612 517.0264 299.3599 517.8197 299.5196 518.62277 299.67936 519.4258 299.79936 520.23477 299.8796 521.04959 299.9599 521.86447 300.00004 522.6812 300 523.5Z"/>
<text xml:space="preserve" transform="matrix(.7215496 0 0 .7215496 0 0)" font-size="12" font-family="ArialMT"><tspan y="527" x="267.54689">Q</tspan></text>
<text xml:space="preserve" transform="matrix(.7215496 0 0 .7215496 0 0)" font-size="10" font-family="ArialMT"><tspan y="530.3906" x="276.89064">3</tspan></text>
<path transform="matrix(.7215496,0,0,.7215496,.3607748,.3607748)" stroke-width="1" stroke-linecap="butt" stroke-miterlimit="10" stroke-linejoin="miter" fill="none" stroke="#000000" d="M205 481 141.18 496.96"/>
<path transform="matrix(.7215496,0,0,.7215496,.3607748,.3607748)" d="M136.08 498.23 142.03 493.14 141.18 496.96 143.72 499.93 136.08 498.23Z"/>
<path transform="matrix(.7215496,0,0,.7215496,.3607748,.3607748)" stroke-width="1" stroke-linecap="butt" stroke-miterlimit="10" stroke-linejoin="miter" fill="none" stroke="#000000" d="M136.08 498.23 142.03 493.14 141.18 496.96 143.72 499.93 136.08 498.23Z"/>
<path transform="matrix(.7215496,0,0,.7215496,.3607748,.3607748)" stroke-width="1" stroke-linecap="butt" stroke-miterlimit="10" stroke-linejoin="miter" fill="none" stroke="#000000" d="M205 481V492.13"/>
<path transform="matrix(.7215496,0,0,.7215496,.3607748,.3607748)" d="M205 497.38 201.5 490.38 205 492.13 208.5 490.38 205 497.38Z"/>
<path transform="matrix(.7215496,0,0,.7215496,.3607748,.3607748)" stroke-width="1" stroke-linecap="butt" stroke-miterlimit="10" stroke-linejoin="miter" fill="none" stroke="#000000" d="M205 497.38 201.5 490.38 205 492.13 208.5 490.38 205 497.38Z"/>
<path transform="matrix(.7215496,0,0,.7215496,.3607748,.3607748)" stroke-width="1" stroke-linecap="butt" stroke-miterlimit="10" stroke-linejoin="miter" fill="none" stroke="#000000" d="M205 481 268.82 496.96"/>
<path transform="matrix(.7215496,0,0,.7215496,.3607748,.3607748)" d="M273.92 498.23 266.28 499.93 268.82 496.96 267.97 493.14 273.92 498.23Z"/>
<path transform="matrix(.7215496,0,0,.7215496,.3607748,.3607748)" stroke-width="1" stroke-linecap="butt" stroke-miterlimit="10" stroke-linejoin="miter" fill="none" stroke="#000000" d="M273.92 498.23 266.28 499.93 268.82 496.96 267.97 493.14 273.92 498.23Z"/>
<path transform="matrix(.7215496,0,0,.7215496,.3607748,.3607748)" stroke-width="1" stroke-linecap="butt" stroke-miterlimit="10" stroke-linejoin="miter" fill="none" stroke="#000000" d="M135 621V634.63"/>
<path transform="matrix(.7215496,0,0,.7215496,.3607748,.3607748)" d="M135 639.88 131.5 632.88 135 634.63 138.5 632.88 135 639.88Z"/>
<path transform="matrix(.7215496,0,0,.7215496,.3607748,.3607748)" stroke-width="1" stroke-linecap="butt" stroke-miterlimit="10" stroke-linejoin="miter" fill="none" stroke="#000000" d="M135 639.88 131.5 632.88 135 634.63 138.5 632.88 135 639.88Z"/>
<path transform="matrix(.7215496,0,0,.7215496,.3607748,.3607748)" d="M160 596C160.00002 596.8188 159.95989 597.6356 159.87963 598.45046 159.79936 599.2653 159.67937 600.0742 159.51963 600.8772 159.35988 601.68026 159.16118 602.4735 158.9235 603.257 158.6858 604.0406 158.4103 604.8106 158.09697 605.567 157.78363 606.3235 157.43399 607.0628 157.04802 607.7849 156.66204 608.507 156.2416 609.20846 155.78672 609.8892 155.33182 610.57009 154.84467 611.22689 154.32524 611.85977 153.80582 612.49276 153.25662 613.0987 152.67766 613.6776 152.0987 614.25656 151.49275 614.8057 150.85984 615.32516 150.22692 615.8446 149.57006 616.3317 148.88925 616.7866 148.20845 617.2415 147.507 617.662 146.7849 618.048 146.0628 618.4339 145.32352 618.78359 144.56707 619.09689 143.81061 619.4103 143.04064 619.6858 142.25711 619.92349 141.47359 620.1612 140.6803 620.35989 139.87725 620.5196 139.0742 620.6794 138.26526 620.7994 137.45043 620.87966 136.63559 620.9599 135.81879 621 135 621 134.18123 621 133.36441 620.9599 132.54958 620.87966 131.73474 620.7994 130.9258 620.6794 130.12274 620.5196 129.31969 620.35989 128.5264 620.1612 127.742877 619.9235 126.95934 619.6858 126.189357 619.4103 125.4329 619.09689 124.676448 618.78359 123.937168 618.4339 123.215068 618.048 122.492969 617.662 121.79152 617.2415 121.110729 616.7866 120.42993 616.3317 119.77308 615.8446 119.14015 615.32516 118.50723 614.8057 117.90129 614.25656 117.32232 613.6776 116.74336 613.0987 116.19417 612.49276 115.674739 611.85989 115.155307 611.2269 114.668148 610.57009 114.21325 609.8892 113.75836 609.20846 113.33793 608.507 112.951969 607.7849 112.565998 607.0628 112.21634 606.3235 111.903 605.567 111.58967 604.8106 111.31416 604.0406 111.076488 603.257 110.838809 602.4735 110.64009 601.68026 110.480358 600.8772 110.320629 600.0742 110.20064 599.2653 110.120388 598.45046 110.04013 597.6356 110 596.8188 110 596 110 595.1812 110.04012 594.36447 110.12038 593.54959 110.20063 592.7347 110.320629 591.9257 110.480358 591.1227 110.64009 590.31967 110.838809 589.52639 111.07649 588.74288 111.31416 587.9593 111.58967 587.1893 111.903 586.4328 112.21634 585.6764 112.565998 584.9371 112.951969 584.21499 113.33793 583.49288 113.75836 582.7914 114.21325 582.1106 114.668148 581.4299 115.155307 580.7731 115.674739 580.1401 116.19417 579.5072 116.74336 578.9013 117.32232 578.32229 117.90129 577.7433 118.50723 577.1941 119.14015 576.67477 119.77308 576.1553 120.42993 575.668 121.110729 575.21316 121.79152 574.75827 122.492969 574.3378 123.215068 573.95187 123.937168 573.5659 124.676448 573.21627 125.43289 572.9029 126.189357 572.5896 126.95934 572.3141 127.74287 572.0765 128.5264 571.8388 129.31967 571.6401 130.12273 571.48037 130.92578 571.3206 131.73473 571.2007 132.54958 571.1204 133.36441 571.04019 134.18123 571.00009 135 571 135.81879 571.00009 136.63559 571.04019 137.45043 571.1204 138.26526 571.2007 139.0742 571.3206 139.87725 571.48037 140.6803 571.6401 141.47359 571.8388 142.25711 572.0765 143.04064 572.3141 143.81061 572.5896 144.56707 572.9029 145.32352 573.21627 146.0628 573.5659 146.7849 573.95187 147.507 574.3378 148.20845 574.75827 148.88925 575.21316 149.57006 575.668 150.2269 576.1553 150.85982 576.67477 151.49274 577.1941 152.0987 577.7433 152.67766 578.32229 153.25662 578.9013 153.80582 579.5072 154.32524 580.1401 154.84467 580.7731 155.33182 581.4299 155.78672 582.1106 156.2416 582.7914 156.66204 583.49288 157.04802 584.21499 157.43399 584.9371 157.78363 585.6764 158.09697 586.4328 158.4103 587.1893 158.6858 587.9593 158.92351 588.74288 159.16118 589.52639 159.35988 590.31967 159.51963 591.1227 159.67937 591.9257 159.79936 592.7347 159.87963 593.54959 159.95989 594.36447 160.00002 595.1812 160 596Z" fill="#fad7ac"/>
<path transform="matrix(.7215496,0,0,.7215496,.3607748,.3607748)" stroke-width="1" stroke-linecap="butt" stroke-miterlimit="4" stroke-linejoin="miter" fill="none" stroke="#b46504" d="M160 596C160.00002 596.8188 159.95989 597.6356 159.87963 598.45046 159.79936 599.2653 159.67937 600.0742 159.51963 600.8772 159.35988 601.68026 159.16118 602.4735 158.9235 603.257 158.6858 604.0406 158.4103 604.8106 158.09697 605.567 157.78363 606.3235 157.43399 607.0628 157.04802 607.7849 156.66204 608.507 156.2416 609.20846 155.78672 609.8892 155.33182 610.57009 154.84467 611.22689 154.32524 611.85977 153.80582 612.49276 153.25662 613.0987 152.67766 613.6776 152.0987 614.25656 151.49275 614.8057 150.85984 615.32516 150.22692 615.8446 149.57006 616.3317 148.88925 616.7866 148.20845 617.2415 147.507 617.662 146.7849 618.048 146.0628 618.4339 145.32352 618.78359 144.56707 619.09689 143.81061 619.4103 143.04064 619.6858 142.25711 619.92349 141.47359 620.1612 140.6803 620.35989 139.87725 620.5196 139.0742 620.6794 138.26526 620.7994 137.45043 620.87966 136.63559 620.9599 135.81879 621 135 621 134.18123 621 133.36441 620.9599 132.54958 620.87966 131.73474 620.7994 130.9258 620.6794 130.12274 620.5196 129.31969 620.35989 128.5264 620.1612 127.742877 619.9235 126.95934 619.6858 126.189357 619.4103 125.4329 619.09689 124.676448 618.78359 123.937168 618.4339 123.215068 618.048 122.492969 617.662 121.79152 617.2415 121.110729 616.7866 120.42993 616.3317 119.77308 615.8446 119.14015 615.32516 118.50723 614.8057 117.90129 614.25656 117.32232 613.6776 116.74336 613.0987 116.19417 612.49276 115.674739 611.85989 115.155307 611.2269 114.668148 610.57009 114.21325 609.8892 113.75836 609.20846 113.33793 608.507 112.951969 607.7849 112.565998 607.0628 112.21634 606.3235 111.903 605.567 111.58967 604.8106 111.31416 604.0406 111.076488 603.257 110.838809 602.4735 110.64009 601.68026 110.480358 600.8772 110.320629 600.0742 110.20064 599.2653 110.120388 598.45046 110.04013 597.6356 110 596.8188 110 596 110 595.1812 110.04012 594.36447 110.12038 593.54959 110.20063 592.7347 110.320629 591.9257 110.480358 591.1227 110.64009 590.31967 110.838809 589.52639 111.07649 588.74288 111.31416 587.9593 111.58967 587.1893 111.903 586.4328 112.21634 585.6764 112.565998 584.9371 112.951969 584.21499 113.33793 583.49288 113.75836 582.7914 114.21325 582.1106 114.668148 581.4299 115.155307 580.7731 115.674739 580.1401 116.19417 579.5072 116.74336 578.9013 117.32232 578.32229 117.90129 577.7433 118.50723 577.1941 119.14015 576.67477 119.77308 576.1553 120.42993 575.668 121.110729 575.21316 121.79152 574.75827 122.492969 574.3378 123.215068 573.95187 123.937168 573.5659 124.676448 573.21627 125.43289 572.9029 126.189357 572.5896 126.95934 572.3141 127.74287 572.0765 128.5264 571.8388 129.31967 571.6401 130.12273 571.48037 130.92578 571.3206 131.73473 571.2007 132.54958 571.1204 133.36441 571.04019 134.18123 571.00009 135 571 135.81879 571.00009 136.63559 571.04019 137.45043 571.1204 138.26526 571.2007 139.0742 571.3206 139.87725 571.48037 140.6803 571.6401 141.47359 571.8388 142.25711 572.0765 143.04064 572.3141 143.81061 572.5896 144.56707 572.9029 145.32352 573.21627 146.0628 573.5659 146.7849 573.95187 147.507 574.3378 148.20845 574.75827 148.88925 575.21316 149.57006 575.668 150.2269 576.1553 150.85982 576.67477 151.49274 577.1941 152.0987 577.7433 152.67766 578.32229 153.25662 578.9013 153.80582 579.5072 154.32524 580.1401 154.84467 580.7731 155.33182 581.4299 155.78672 582.1106 156.2416 582.7914 156.66204 583.49288 157.04802 584.21499 157.43399 584.9371 157.78363 585.6764 158.09697 586.4328 158.4103 587.1893 158.6858 587.9593 158.92351 588.74288 159.16118 589.52639 159.35988 590.31967 159.51963 591.1227 159.67937 591.9257 159.79936 592.7347 159.87963 593.54959 159.95989 594.36447 160.00002 595.1812 160 596Z"/>
<text xml:space="preserve" transform="matrix(.7215496 0 0 .7215496 0 0)" font-size="12" font-family="ArialMT"><tspan y="599" x="123.375">Q</tspan></text>
<text xml:space="preserve" transform="matrix(.7215496 0 0 .7215496 0 0)" font-size="10" font-family="ArialMT"><tspan y="602.3906" x="132.71875 138.27875 141.05875">1.1</tspan></text>
<path transform="matrix(.7215496,0,0,.7215496,.3607748,.3607748)" d="M160 666C160.00002 666.8188 159.95989 667.6356 159.87963 668.4505 159.79936 669.2653 159.67937 670.0742 159.51963 670.87728 159.35988 671.6803 159.16118 672.4736 158.9235 673.2571 158.6858 674.04067 158.4103 674.8106 158.09697 675.567 157.78363 676.3235 157.43399 677.0628 157.04802 677.7849 156.66204 678.507 156.2416 679.20846 155.78672 679.8892 155.33182 680.57 154.84467 681.22689 154.32524 681.85989 153.80582 682.4928 153.25662 683.09878 152.67766 683.6777 152.0987 684.25668 151.49275 684.80587 150.85984 685.32528 150.22692 685.84469 149.57006 686.3318 148.88925 686.7867 148.20845 687.2416 147.507 687.66207 146.7849 688.04806 146.0628 688.434 145.32352 688.7836 144.56707 689.0969 143.81061 689.41036 143.04064 689.68588 142.25711 689.92349 141.47359 690.1612 140.6803 690.35989 139.87725 690.51956 139.0742 690.6793 138.26526 690.7994 137.45043 690.87966 136.63559 690.9599 135.81879 691 135 691 134.18123 691 133.36441 690.9599 132.54958 690.87966 131.73474 690.7994 130.9258 690.6793 130.12274 690.51956 129.31969 690.35989 128.5264 690.1612 127.742877 689.9235 126.95934 689.68588 126.189357 689.41036 125.4329 689.0969 124.676448 688.7836 123.937168 688.434 123.215068 688.048 122.492969 687.66207 121.79152 687.2416 121.110729 686.7867 120.42993 686.3318 119.77308 685.84469 119.14015 685.3253 118.50723 684.80587 117.90129 684.25668 117.32232 683.6777 116.74336 683.09878 116.19417 682.4928 115.674739 681.85989 115.155307 681.22689 114.668148 680.57 114.21325 679.8892 113.75836 679.20846 113.33793 678.50698 112.951969 677.78488 112.565998 677.06277 112.21634 676.3235 111.903 675.567 111.58967 674.8106 111.31416 674.04067 111.076488 673.2571 110.838809 672.4736 110.64009 671.6803 110.480358 670.87728 110.320629 670.0742 110.20064 669.2653 110.120388 668.4505 110.04013 667.6356 110 666.8188 110 666 110 665.1812 110.04012 664.36447 110.12038 663.54959 110.20063 662.7347 110.320629 661.9257 110.480358 661.1227 110.64009 660.31967 110.838809 659.52639 111.07649 658.74288 111.31416 657.95938 111.58967 657.18936 111.903 656.4328 112.21634 655.67636 112.565998 654.9371 112.951969 654.21499 113.33793 653.4929 113.75836 652.7915 114.21325 652.11068 114.668148 651.4299 115.155307 650.773 115.674739 650.14016 116.19417 649.5072 116.74336 648.90127 117.32232 648.32229 117.90129 647.74337 118.50723 647.19418 119.14015 646.6747 119.77308 646.1553 120.42993 645.6681 121.110729 645.2132 121.79152 644.7583 122.492969 644.3379 123.215068 643.9519 123.937168 643.566 124.676448 643.2164 125.43289 642.90298 126.189357 642.58969 126.95934 642.3142 127.74287 642.0765 128.5264 641.8388 129.31967 641.6401 130.12273 641.48037 130.92578 641.3207 131.73473 641.2007 132.54958 641.1204 133.36441 641.04019 134.18123 641 135 641 135.81879 641 136.63559 641.04019 137.45043 641.1204 138.26526 641.2007 139.0742 641.3207 139.87725 641.48037 140.6803 641.6401 141.47359 641.8388 142.25711 642.0765 143.04064 642.3142 143.81061 642.58969 144.56707 642.90298 145.32352 643.2164 146.0628 643.566 146.7849 643.9519 147.507 644.3379 148.20845 644.7583 148.88925 645.2132 149.57006 645.6681 150.2269 646.1553 150.85982 646.6747 151.49274 647.19418 152.0987 647.74337 152.67766 648.32229 153.25662 648.90127 153.80582 649.5072 154.32524 650.14016 154.84467 650.773 155.33182 651.4299 155.78672 652.11068 156.2416 652.7915 156.66204 653.4929 157.04802 654.21499 157.43399 654.9371 157.78363 655.67636 158.09697 656.4328 158.4103 657.18936 158.6858 657.9593 158.92351 658.7428 159.16118 659.5263 159.35988 660.31967 159.51963 661.1227 159.67937 661.9257 159.79936 662.7347 159.87963 663.54959 159.95989 664.36447 160.00002 665.1812 160 666Z" fill="#fad7ac"/>
<path transform="matrix(.7215496,0,0,.7215496,.3607748,.3607748)" stroke-width="1" stroke-linecap="butt" stroke-miterlimit="4" stroke-linejoin="miter" fill="none" stroke="#b46504" d="M160 666C160.00002 666.8188 159.95989 667.6356 159.87963 668.4505 159.79936 669.2653 159.67937 670.0742 159.51963 670.87728 159.35988 671.6803 159.16118 672.4736 158.9235 673.2571 158.6858 674.04067 158.4103 674.8106 158.09697 675.567 157.78363 676.3235 157.43399 677.0628 157.04802 677.7849 156.66204 678.507 156.2416 679.20846 155.78672 679.8892 155.33182 680.57 154.84467 681.22689 154.32524 681.85989 153.80582 682.4928 153.25662 683.09878 152.67766 683.6777 152.0987 684.25668 151.49275 684.80587 150.85984 685.32528 150.22692 685.84469 149.57006 686.3318 148.88925 686.7867 148.20845 687.2416 147.507 687.66207 146.7849 688.04806 146.0628 688.434 145.32352 688.7836 144.56707 689.0969 143.81061 689.41036 143.04064 689.68588 142.25711 689.92349 141.47359 690.1612 140.6803 690.35989 139.87725 690.51956 139.0742 690.6793 138.26526 690.7994 137.45043 690.87966 136.63559 690.9599 135.81879 691 135 691 134.18123 691 133.36441 690.9599 132.54958 690.87966 131.73474 690.7994 130.9258 690.6793 130.12274 690.51956 129.31969 690.35989 128.5264 690.1612 127.742877 689.9235 126.95934 689.68588 126.189357 689.41036 125.4329 689.0969 124.676448 688.7836 123.937168 688.434 123.215068 688.048 122.492969 687.66207 121.79152 687.2416 121.110729 686.7867 120.42993 686.3318 119.77308 685.84469 119.14015 685.3253 118.50723 684.80587 117.90129 684.25668 117.32232 683.6777 116.74336 683.09878 116.19417 682.4928 115.674739 681.85989 115.155307 681.22689 114.668148 680.57 114.21325 679.8892 113.75836 679.20846 113.33793 678.50698 112.951969 677.78488 112.565998 677.06277 112.21634 676.3235 111.903 675.567 111.58967 674.8106 111.31416 674.04067 111.076488 673.2571 110.838809 672.4736 110.64009 671.6803 110.480358 670.87728 110.320629 670.0742 110.20064 669.2653 110.120388 668.4505 110.04013 667.6356 110 666.8188 110 666 110 665.1812 110.04012 664.36447 110.12038 663.54959 110.20063 662.7347 110.320629 661.9257 110.480358 661.1227 110.64009 660.31967 110.838809 659.52639 111.07649 658.74288 111.31416 657.95938 111.58967 657.18936 111.903 656.4328 112.21634 655.67636 112.565998 654.9371 112.951969 654.21499 113.33793 653.4929 113.75836 652.7915 114.21325 652.11068 114.668148 651.4299 115.155307 650.773 115.674739 650.14016 116.19417 649.5072 116.74336 648.90127 117.32232 648.32229 117.90129 647.74337 118.50723 647.19418 119.14015 646.6747 119.77308 646.1553 120.42993 645.6681 121.110729 645.2132 121.79152 644.7583 122.492969 644.3379 123.215068 643.9519 123.937168 643.566 124.676448 643.2164 125.43289 642.90298 126.189357 642.58969 126.95934 642.3142 127.74287 642.0765 128.5264 641.8388 129.31967 641.6401 130.12273 641.48037 130.92578 641.3207 131.73473 641.2007 132.54958 641.1204 133.36441 641.04019 134.18123 641 135 641 135.81879 641 136.63559 641.04019 137.45043 641.1204 138.26526 641.2007 139.0742 641.3207 139.87725 641.48037 140.6803 641.6401 141.47359 641.8388 142.25711 642.0765 143.04064 642.3142 143.81061 642.58969 144.56707 642.90298 145.32352 643.2164 146.0628 643.566 146.7849 643.9519 147.507 644.3379 148.20845 644.7583 148.88925 645.2132 149.57006 645.6681 150.2269 646.1553 150.85982 646.6747 151.49274 647.19418 152.0987 647.74337 152.67766 648.32229 153.25662 648.90127 153.80582 649.5072 154.32524 650.14016 154.84467 650.773 155.33182 651.4299 155.78672 652.11068 156.2416 652.7915 156.66204 653.4929 157.04802 654.21499 157.43399 654.9371 157.78363 655.67636 158.09697 656.4328 158.4103 657.18936 158.6858 657.9593 158.92351 658.7428 159.16118 659.5263 159.35988 660.31967 159.51963 661.1227 159.67937 661.9257 159.79936 662.7347 159.87963 663.54959 159.95989 664.36447 160.00002 665.1812 160 666Z"/>
<text xml:space="preserve" transform="matrix(.7215496 0 0 .7215496 0 0)" font-size="12" font-family="ArialMT"><tspan y="669" x="123.375">Q</tspan></text>
<text xml:space="preserve" transform="matrix(.7215496 0 0 .7215496 0 0)" font-size="10" font-family="ArialMT"><tspan y="672.3906" x="132.71875 138.27875 141.05875">1.2</tspan></text>
<path transform="matrix(.7215496,0,0,.7215496,.3607748,.3607748)" d="M300 596C300.00004 596.8188 299.9599 597.6356 299.8796 598.45046 299.79936 599.2653 299.67936 600.0742 299.5196 600.8772 299.3599 601.68026 299.1612 602.4735 298.9235 603.257 298.68583 604.0406 298.4103 604.8106 298.09696 605.567 297.78364 606.3235 297.434 607.0628 297.04804 607.7849 296.66206 608.507 296.2416 609.20846 295.7867 609.8892 295.33183 610.57009 294.84468 611.22689 294.32527 611.85977 293.80583 612.49276 293.25663 613.0987 292.67765 613.6776 292.0987 614.25656 291.49275 614.8057 290.85984 615.32516 290.2269 615.8446 289.57 616.3317 288.8892 616.7866 288.2084 617.2415 287.50697 617.662 286.78489 618.048 286.0628 618.4339 285.32353 618.78359 284.56706 619.09689 283.8106 619.4103 283.04063 619.6858 282.25709 619.92349 281.47355 620.1612 280.68028 620.35989 279.87724 620.5196 279.0742 620.6794 278.26527 620.7994 277.45045 620.87966 276.6356 620.9599 275.8188 621 275 621 274.1812 621 273.3644 620.9599 272.5496 620.87966 271.73475 620.7994 270.92579 620.6794 270.1227 620.5196 269.31968 620.35989 268.5264 620.1612 267.74287 619.9235 266.95933 619.6858 266.18934 619.4103 265.43287 619.09689 264.67643 618.78359 263.93717 618.4339 263.21504 618.048 262.49296 617.662 261.7915 617.2415 261.1107 616.7866 260.42994 616.3317 259.77308 615.8446 259.14015 615.32516 258.5072 614.8057 257.90126 614.25656 257.3223 613.6776 256.74336 613.0987 256.19416 612.49276 255.67472 611.85989 255.15529 611.2269 254.66812 610.57009 254.21321 609.8892 253.75833 609.20846 253.33792 608.507 252.95195 607.7849 252.56598 607.0628 252.21631 606.3235 251.90297 605.567 251.58965 604.8106 251.31415 604.0406 251.07648 603.257 250.83879 602.4735 250.64008 601.68026 250.48033 600.8772 250.32062 600.0742 250.20063 599.2653 250.12038 598.45046 250.04013 597.6356 250 596.8188 250 596 250 595.1812 250.04013 594.36447 250.12038 593.54959 250.20063 592.7347 250.32062 591.9257 250.48033 591.1227 250.64008 590.31967 250.83878 589.52639 251.07646 588.74288 251.31415 587.9593 251.58965 587.1893 251.90296 586.4328 252.21631 585.6764 252.56598 584.9371 252.95195 584.21499 253.33792 583.49288 253.75833 582.7914 254.21321 582.1106 254.66812 581.4299 255.15528 580.7731 255.6747 580.1401 256.19416 579.5072 256.74336 578.9013 257.3223 578.32229 257.90126 577.7433 258.5072 577.1941 259.14015 576.67477 259.77308 576.1553 260.42994 575.668 261.1107 575.21316 261.7915 574.75827 262.49296 574.3378 263.21504 573.95187 263.93717 573.5659 264.67643 573.21627 265.43287 572.9029 266.18934 572.5896 266.95933 572.3141 267.74287 572.0765 268.5264 571.8388 269.31968 571.6401 270.1227 571.48037 270.92579 571.3206 271.73475 571.2007 272.5496 571.1204 273.3644 571.04019 274.1812 571.00009 275 571 275.8188 571.00009 276.6356 571.04019 277.45045 571.1204 278.26527 571.2007 279.0742 571.3206 279.87724 571.48037 280.68028 571.6401 281.47355 571.8388 282.25709 572.0765 283.04063 572.3141 283.8106 572.5896 284.56706 572.9029 285.32353 573.21627 286.0628 573.5659 286.78489 573.95187 287.50697 574.3378 288.2084 574.75827 288.8892 575.21316 289.57 575.668 290.2269 576.1553 290.85984 576.67477 291.49275 577.1941 292.0987 577.7433 292.67765 578.32229 293.25663 578.9013 293.80583 579.5072 294.32527 580.1401 294.84468 580.7731 295.33183 581.4299 295.7867 582.1106 296.2416 582.7914 296.66206 583.49288 297.048 584.21499 297.43397 584.9371 297.78364 585.6764 298.09696 586.4328 298.4103 587.1893 298.68583 587.9593 298.92353 588.74288 299.1612 589.52639 299.3599 590.31967 299.5196 591.1227 299.67936 591.9257 299.79936 592.7347 299.8796 593.54959 299.9599 594.36447 300.00004 595.1812 300 596Z" fill="#fad9d5"/>
<path transform="matrix(.7215496,0,0,.7215496,.3607748,.3607748)" stroke-width="1" stroke-linecap="butt" stroke-miterlimit="4" stroke-linejoin="miter" fill="none" stroke="#ae4132" d="M300 596C300.00004 596.8188 299.9599 597.6356 299.8796 598.45046 299.79936 599.2653 299.67936 600.0742 299.5196 600.8772 299.3599 601.68026 299.1612 602.4735 298.9235 603.257 298.68583 604.0406 298.4103 604.8106 298.09696 605.567 297.78364 606.3235 297.434 607.0628 297.04804 607.7849 296.66206 608.507 296.2416 609.20846 295.7867 609.8892 295.33183 610.57009 294.84468 611.22689 294.32527 611.85977 293.80583 612.49276 293.25663 613.0987 292.67765 613.6776 292.0987 614.25656 291.49275 614.8057 290.85984 615.32516 290.2269 615.8446 289.57 616.3317 288.8892 616.7866 288.2084 617.2415 287.50697 617.662 286.78489 618.048 286.0628 618.4339 285.32353 618.78359 284.56706 619.09689 283.8106 619.4103 283.04063 619.6858 282.25709 619.92349 281.47355 620.1612 280.68028 620.35989 279.87724 620.5196 279.0742 620.6794 278.26527 620.7994 277.45045 620.87966 276.6356 620.9599 275.8188 621 275 621 274.1812 621 273.3644 620.9599 272.5496 620.87966 271.73475 620.7994 270.92579 620.6794 270.1227 620.5196 269.31968 620.35989 268.5264 620.1612 267.74287 619.9235 266.95933 619.6858 266.18934 619.4103 265.43287 619.09689 264.67643 618.78359 263.93717 618.4339 263.21504 618.048 262.49296 617.662 261.7915 617.2415 261.1107 616.7866 260.42994 616.3317 259.77308 615.8446 259.14015 615.32516 258.5072 614.8057 257.90126 614.25656 257.3223 613.6776 256.74336 613.0987 256.19416 612.49276 255.67472 611.85989 255.15529 611.2269 254.66812 610.57009 254.21321 609.8892 253.75833 609.20846 253.33792 608.507 252.95195 607.7849 252.56598 607.0628 252.21631 606.3235 251.90297 605.567 251.58965 604.8106 251.31415 604.0406 251.07648 603.257 250.83879 602.4735 250.64008 601.68026 250.48033 600.8772 250.32062 600.0742 250.20063 599.2653 250.12038 598.45046 250.04013 597.6356 250 596.8188 250 596 250 595.1812 250.04013 594.36447 250.12038 593.54959 250.20063 592.7347 250.32062 591.9257 250.48033 591.1227 250.64008 590.31967 250.83878 589.52639 251.07646 588.74288 251.31415 587.9593 251.58965 587.1893 251.90296 586.4328 252.21631 585.6764 252.56598 584.9371 252.95195 584.21499 253.33792 583.49288 253.75833 582.7914 254.21321 582.1106 254.66812 581.4299 255.15528 580.7731 255.6747 580.1401 256.19416 579.5072 256.74336 578.9013 257.3223 578.32229 257.90126 577.7433 258.5072 577.1941 259.14015 576.67477 259.77308 576.1553 260.42994 575.668 261.1107 575.21316 261.7915 574.75827 262.49296 574.3378 263.21504 573.95187 263.93717 573.5659 264.67643 573.21627 265.43287 572.9029 266.18934 572.5896 266.95933 572.3141 267.74287 572.0765 268.5264 571.8388 269.31968 571.6401 270.1227 571.48037 270.92579 571.3206 271.73475 571.2007 272.5496 571.1204 273.3644 571.04019 274.1812 571.00009 275 571 275.8188 571.00009 276.6356 571.04019 277.45045 571.1204 278.26527 571.2007 279.0742 571.3206 279.87724 571.48037 280.68028 571.6401 281.47355 571.8388 282.25709 572.0765 283.04063 572.3141 283.8106 572.5896 284.56706 572.9029 285.32353 573.21627 286.0628 573.5659 286.78489 573.95187 287.50697 574.3378 288.2084 574.75827 288.8892 575.21316 289.57 575.668 290.2269 576.1553 290.85984 576.67477 291.49275 577.1941 292.0987 577.7433 292.67765 578.32229 293.25663 578.9013 293.80583 579.5072 294.32527 580.1401 294.84468 580.7731 295.33183 581.4299 295.7867 582.1106 296.2416 582.7914 296.66206 583.49288 297.048 584.21499 297.43397 584.9371 297.78364 585.6764 298.09696 586.4328 298.4103 587.1893 298.68583 587.9593 298.92353 588.74288 299.1612 589.52639 299.3599 590.31967 299.5196 591.1227 299.67936 591.9257 299.79936 592.7347 299.8796 593.54959 299.9599 594.36447 300.00004 595.1812 300 596Z"/>
<text xml:space="preserve" transform="matrix(.7215496 0 0 .7215496 0 0)" font-size="12" font-family="ArialMT"><tspan y="599" x="263.375">Q</tspan></text>
<text xml:space="preserve" transform="matrix(.7215496 0 0 .7215496 0 0)" font-size="10" font-family="ArialMT"><tspan y="602.3906" x="272.71876 278.27876 281.05876">3.1</tspan></text>
</g>
</svg>
