<svg xmlns="http://www.w3.org/2000/svg" xmlns:xlink="http://www.w3.org/1999/xlink" version="1.1" width="595.92pt" height="844.07998pt" viewBox="0 0 595.92 844.07998">
<defs>
<clipPath id="clip_0">
<path transform="matrix(.24,0,0,.24,0,0)" d="M0 0H2483.3333V3515.0565H0Z" fill-rule="evenodd"/>
</clipPath>
<clipPath id="clip_1">
<path transform="matrix(.24,0,0,.24,0,0)" d="M0 0H2483.3333V3509.058H0Z" fill-rule="evenodd"/>
</clipPath>
</defs>
<g clip-path="url(#clip_0)">
<path transform="matrix(.71980676,0,0,.71980676,0,0)" d="M0 0H828V1172H0Z" fill="#ffffff"/>
<path transform="matrix(.71980676,0,0,.71980676,0,0)" d="M0 0H828V1170H0Z" fill="#ffffff"/>
</g>
<g clip-path="url(#clip_1)">
<path transform="matrix(.71980676,0,0,.71980676,.35990338,.35990338)" stroke-width="1" stroke-linecap="butt" stroke-miterlimit="10" stroke-linejoin="miter" fill="none" stroke="#000000" d="M301.25 1025H800V140H490V190H471.37"/>
<path transform="matrix(.71980676,0,0,.71980676,.35990338,.35990338)" d="M466.12 190 473.12 186.5 471.37 190 473.12 193.5 466.12 190Z"/>
<path transform="matrix(.71980676,0,0,.71980676,.35990338,.35990338)" stroke-width="1" stroke-linecap="butt" stroke-miterlimit="10" stroke-linejoin="miter" fill="none" stroke="#000000" d="M466.12 190 473.12 186.5 471.37 190 473.12 193.5 466.12 190Z"/>
<path transform="matrix(.71980676,0,0,.71980676,0,0)" d="M787 634H816V647H787Z" fill="#ffffff"/>
<text xml:space="preserve" transform="matrix(.71980676 0 0 .71980676 0 0)" font-size="11" font-family="Arial" font-weight="bold"><tspan y="644" x="786.53128 793.25228 801.1943 809.1363">TRUE</tspan></text>
<path transform="matrix(.71980676,0,0,.71980676,.35990338,.35990338)" stroke-width="1" stroke-linecap="butt" stroke-miterlimit="10" stroke-linejoin="miter" fill="none" stroke="#000000" d="M325 50H295 305 291.37"/>
<path transform="matrix(.71980676,0,0,.71980676,.35990338,.35990338)" d="M286.12 50 293.12 46.5 291.37 50 293.12 53.5 286.12 50Z"/>
<path transform="matrix(.71980676,0,0,.71980676,.35990338,.35990338)" stroke-width="1" stroke-linecap="butt" stroke-miterlimit="10" stroke-linejoin="miter" fill="none" stroke="#000000" d="M286.12 50 293.12 46.5 291.37 50 293.12 53.5 286.12 50Z"/>
<path transform="matrix(.71980676,0,0,.71980676,.35990338,.35990338)" stroke-width="1" stroke-linecap="butt" stroke-miterlimit="10" stroke-linejoin="miter" fill="none" stroke="#000000" d="M375 80V115H225V143.63"/>
<path transform="matrix(.71980676,0,0,.71980676,.35990338,.35990338)" d="M225 148.88 221.5 141.88 225 143.63 228.5 141.88 225 148.88Z"/>
<path transform="matrix(.71980676,0,0,.71980676,.35990338,.35990338)" stroke-width="1" stroke-linecap="butt" stroke-miterlimit="10" stroke-linejoin="miter" fill="none" stroke="#000000" d="M225 148.88 221.5 141.88 225 143.63 228.5 141.88 225 148.88Z"/>
<path transform="matrix(.71980676,0,0,.71980676,.35990338,.35990338)" d="M315 80 335 20H435L415 80H315Z" fill="#ffffff"/>
<path transform="matrix(.71980676,0,0,.71980676,.35990338,.35990338)" stroke-width="1" stroke-linecap="butt" stroke-miterlimit="10" stroke-linejoin="miter" fill="none" stroke="#000000" d="M315 80 335 20H435L415 80H315Z"/>
<text xml:space="preserve" transform="matrix(.71980676 0 0 .71980676 0 0)" font-size="12" font-family="ArialMT"><tspan y="54" x="330.64064 338.64463 345.31663 348.65263 356.65663 364.6606 373.32463 376.6606 379.32463 389.32063 395.9926 402.6646 409.3366 413.3326">S1 SAR imagery</tspan></text>
<path transform="matrix(.71980676,0,0,.71980676,.35990338,.35990338)" stroke-width="1" stroke-linecap="butt" stroke-miterlimit="10" stroke-linejoin="miter" fill="none" stroke="#000000" d="M225 80V143.63"/>
<path transform="matrix(.71980676,0,0,.71980676,.35990338,.35990338)" d="M225 148.88 221.5 141.88 225 143.63 228.5 141.88 225 148.88Z"/>
<path transform="matrix(.71980676,0,0,.71980676,.35990338,.35990338)" stroke-width="1" stroke-linecap="butt" stroke-miterlimit="10" stroke-linejoin="miter" fill="none" stroke="#000000" d="M225 148.88 221.5 141.88 225 143.63 228.5 141.88 225 148.88Z"/>
<path transform="matrix(.71980676,0,0,.71980676,.35990338,.35990338)" d="M174 20H276C276.59095 20 277.1762 20.057644 277.7558 20.17293 278.3354 20.28822 278.89817 20.458937 279.44413 20.685082 279.9901 20.911229 280.50877 21.188458 281.0001 21.516772 281.49147 21.845086 281.94609 22.218174 282.36396 22.636038 282.7818 23.0539 283.15489 23.508509 283.4832 23.999865 283.81153 24.491219 284.08876 25.00988 284.3149 25.555848 284.54106 26.101813 284.71177 26.66459 284.82704 27.244185 284.94236 27.823779 285 28.40905 285 29V71C285 71.59095 284.94236 72.176219 284.82704 72.755809 284.71177 73.3354 284.54106 73.89818 284.3149 74.444149 284.08876 74.990108 283.81153 75.50876 283.48323 76.000118 283.15489 76.49147 282.7818 76.94608 282.36396 77.36395 281.94609 77.78181 281.4915 78.15489 281.00013 78.48321 280.50877 78.81152 279.9901 79.08875 279.44413 79.3149 278.89817 79.541049 278.3354 79.71177 277.7558 79.82706 277.1762 79.942348 276.59095 79.99999 276 80H174C173.40904 79.99999 172.82378 79.942348 172.24419 79.82706 171.66458 79.71177 171.1018 79.541049 170.55583 79.3149 170.00988 79.08875 169.49121 78.81152 168.99987 78.48321 168.5085 78.15489 168.05388 77.78181 167.63602 77.36395 167.21814 76.94608 166.84505 76.49147 166.51674 76.000118 166.18843 75.50876 165.91121 74.990108 165.68506 74.444149 165.45891 73.89818 165.2882 73.3354 165.17292 72.755809 165.05764 72.176219 164.99999 71.59095 165 71V29C164.99999 28.40905 165.05764 27.823779 165.17292 27.244185 165.2882 26.66459 165.45891 26.101813 165.68506 25.555848 165.91121 25.00988 166.18843 24.491219 166.51674 23.999865 166.84505 23.508509 167.21814 23.0539 167.63602 22.636038 168.05388 22.218174 168.5085 21.845086 168.99985 21.516772 169.49121 21.188458 170.00988 20.911229 170.55583 20.685082 171.1018 20.458937 171.66458 20.28822 172.24419 20.17293 172.82378 20.057644 173.40904 20 174 20Z" fill="#ffffff"/>
<path transform="matrix(.71980676,0,0,.71980676,.35990338,.35990338)" stroke-width="1" stroke-linecap="butt" stroke-miterlimit="4" stroke-linejoin="miter" fill="none" stroke="#000000" d="M174 20H276C276.59095 20 277.1762 20.057644 277.7558 20.17293 278.3354 20.28822 278.89817 20.458937 279.44413 20.685082 279.9901 20.911229 280.50877 21.188458 281.0001 21.516772 281.49147 21.845086 281.94609 22.218174 282.36396 22.636038 282.7818 23.0539 283.15489 23.508509 283.4832 23.999865 283.81153 24.491219 284.08876 25.00988 284.3149 25.555848 284.54106 26.101813 284.71177 26.66459 284.82704 27.244185 284.94236 27.823779 285 28.40905 285 29V71C285 71.59095 284.94236 72.176219 284.82704 72.755809 284.71177 73.3354 284.54106 73.89818 284.3149 74.444149 284.08876 74.990108 283.81153 75.50876 283.48323 76.000118 283.15489 76.49147 282.7818 76.94608 282.36396 77.36395 281.94609 77.78181 281.4915 78.15489 281.00013 78.48321 280.50877 78.81152 279.9901 79.08875 279.44413 79.3149 278.89817 79.541049 278.3354 79.71177 277.7558 79.82706 277.1762 79.942348 276.59095 79.99999 276 80H174C173.40904 79.99999 172.82378 79.942348 172.24419 79.82706 171.66458 79.71177 171.1018 79.541049 170.55583 79.3149 170.00988 79.08875 169.49121 78.81152 168.99987 78.48321 168.5085 78.15489 168.05388 77.78181 167.63602 77.36395 167.21814 76.94608 166.84505 76.49147 166.51674 76.000118 166.18843 75.50876 165.91121 74.990108 165.68506 74.444149 165.45891 73.89818 165.2882 73.3354 165.17292 72.755809 165.05764 72.176219 164.99999 71.59095 165 71V29C164.99999 28.40905 165.05764 27.823779 165.17292 27.244185 165.2882 26.66459 165.45891 26.101813 165.68506 25.555848 165.91121 25.00988 166.18843 24.491219 166.51674 23.999865 166.84505 23.508509 167.21814 23.0539 167.63602 22.636038 168.05388 22.218174 168.5085 21.845086 168.99985 21.516772 169.49121 21.188458 170.00988 20.911229 170.55583 20.685082 171.1018 20.458937 171.66458 20.28822 172.24419 20.17293 172.82378 20.057644 173.40904 20 174 20Z"/>
<text xml:space="preserve" transform="matrix(.71980676 0 0 .71980676 0 0)" font-size="12" font-family="ArialMT"><tspan y="47" x="170.96875 178.97275 182.96875 189.64075 196.31275 200.30875 206.98075 212.98075 219.65274 225.65274 231.65274 234.31674 240.98874 247.66074 250.99674 257.66874 261.00474 264.34074 272.34474">Preprocessing of S1</tspan></text>
<text xml:space="preserve" transform="matrix(.71980676 0 0 .71980676 0 0)" font-size="12" font-family="ArialMT"><tspan y="62" x="179.98438 187.98838 195.99237 204.65637 207.99237 214.66437 221.33637 224.67237 231.34436 234.68036 238.67636 246.68036 255.34436 262.67637 266.01237">SAR data (SDFI)</tspan></text>
<path transform="matrix(.71980676,0,0,.71980676,.35990338,.35990338)" stroke-width="1" stroke-linecap="butt" stroke-miterlimit="10" stroke-linejoin="miter" fill="none" stroke="#000000" d="M505 80V115H225V143.63"/>
<path transform="matrix(.71980676,0,0,.71980676,.35990338,.35990338)" d="M225 148.88 221.5 141.88 225 143.63 228.5 141.88 225 148.88Z"/>
<path transform="matrix(.71980676,0,0,.71980676,.35990338,.35990338)" stroke-width="1" stroke-linecap="butt" stroke-miterlimit="10" stroke-linejoin="miter" fill="none" stroke="#000000" d="M225 148.88 221.5 141.88 225 143.63 228.5 141.88 225 148.88Z"/>
<path transform="matrix(.71980676,0,0,.71980676,.35990338,.35990338)" d="M445 80 465 20H565L545 80H445Z" fill="#ffffff"/>
<path transform="matrix(.71980676,0,0,.71980676,.35990338,.35990338)" stroke-width="1" stroke-linecap="butt" stroke-miterlimit="10" stroke-linejoin="miter" fill="none" stroke="#000000" d="M445 80 465 20H565L545 80H445Z"/>
<text xml:space="preserve" transform="matrix(.71980676 0 0 .71980676 0 0)" font-size="12" font-family="ArialMT"><tspan y="47" x="471.65626 480.32026 487.65226 497.64826 500.98426 504.98027 513.6442 516.3082 522.9802 526.3162 528.9802 535.6522">DTM (Digtial</tspan></text>
<text xml:space="preserve" transform="matrix(.71980676 0 0 .71980676 0 0)" font-size="12" font-family="ArialMT"><tspan y="62" x="467.98439 471.32038 477.99238 481.98838 485.98439 492.65638 495.32038 501.99238 505.32838 515.32437 521.99636 528.66836 535.34036 538.00436">terrain model)</tspan></text>
<path transform="matrix(.71980676,0,0,.71980676,.35990338,.35990338)" stroke-width="1" stroke-linecap="butt" stroke-miterlimit="10" stroke-linejoin="miter" fill="none" stroke="#000000" d="M635 80V115H225V143.63"/>
<path transform="matrix(.71980676,0,0,.71980676,.35990338,.35990338)" d="M225 148.88 221.5 141.88 225 143.63 228.5 141.88 225 148.88Z"/>
<path transform="matrix(.71980676,0,0,.71980676,.35990338,.35990338)" stroke-width="1" stroke-linecap="butt" stroke-miterlimit="10" stroke-linejoin="miter" fill="none" stroke="#000000" d="M225 148.88 221.5 141.88 225 143.63 228.5 141.88 225 148.88Z"/>
<path transform="matrix(.71980676,0,0,.71980676,.35990338,.35990338)" d="M575 80 595 20H695L675 80H575Z" fill="#ffffff"/>
<path transform="matrix(.71980676,0,0,.71980676,.35990338,.35990338)" stroke-width="1" stroke-linecap="butt" stroke-miterlimit="10" stroke-linejoin="miter" fill="none" stroke="#000000" d="M575 80 595 20H695L675 80H575Z"/>
<text xml:space="preserve" transform="matrix(.71980676 0 0 .71980676 0 0)" font-size="12" font-family="ArialMT"><tspan y="47" x="601.3125 610.6485 613.3125 619.9845 626.6565 633.3285 635.9925 639.3285 647.9925 654.6645 658.0005 664.6725">Global water</tspan></text>
<text xml:space="preserve" transform="matrix(.71980676 0 0 .71980676 0 0)" font-size="12" font-family="ArialMT"><tspan y="62" x="610.3125 613.6485 620.3205 624.31649 630.98849 636.98849 643.66049 650.33248 652.99649">threshold</tspan></text>
<path transform="matrix(.71980676,0,0,.71980676,.35990338,.35990338)" stroke-width="1" stroke-linecap="butt" stroke-miterlimit="10" stroke-linejoin="miter" fill="none" stroke="#000000" d="M762 80V115H225V143.63"/>
<path transform="matrix(.71980676,0,0,.71980676,.35990338,.35990338)" d="M225 148.88 221.5 141.88 225 143.63 228.5 141.88 225 148.88Z"/>
<path transform="matrix(.71980676,0,0,.71980676,.35990338,.35990338)" stroke-width="1" stroke-linecap="butt" stroke-miterlimit="10" stroke-linejoin="miter" fill="none" stroke="#000000" d="M225 148.88 221.5 141.88 225 143.63 228.5 141.88 225 148.88Z"/>
<path transform="matrix(.71980676,0,0,.71980676,.35990338,.35990338)" d="M702 80 722 20H822L802 80H702Z" fill="#ffffff"/>
<path transform="matrix(.71980676,0,0,.71980676,.35990338,.35990338)" stroke-width="1" stroke-linecap="butt" stroke-miterlimit="10" stroke-linejoin="miter" fill="none" stroke="#000000" d="M702 80 722 20H822L802 80H702Z"/>
<text xml:space="preserve" transform="matrix(.71980676 0 0 .71980676 0 0)" font-size="12" font-family="ArialMT"><tspan y="47" x="735.9844 745.98037 752.65237 758.65237 761.31637 771.3123 777.9843">maximum</tspan></text>
<text xml:space="preserve" transform="matrix(.71980676 0 0 .71980676 0 0)" font-size="12" font-family="ArialMT"><tspan y="62" x="746.96878 753.64077 760.31277 766.98477 770.32077">depth</tspan></text>
<path transform="matrix(.71980676,0,0,.71980676,.35990338,.35990338)" stroke-width="1" stroke-linecap="butt" stroke-miterlimit="10" stroke-linejoin="miter" fill="none" stroke="#000000" d="M225 230V250 253.63"/>
<path transform="matrix(.71980676,0,0,.71980676,.35990338,.35990338)" d="M225 258.88 221.5 251.88 225 253.63 228.5 251.88 225 258.88Z"/>
<path transform="matrix(.71980676,0,0,.71980676,.35990338,.35990338)" stroke-width="1" stroke-linecap="butt" stroke-miterlimit="10" stroke-linejoin="miter" fill="none" stroke="#000000" d="M225 258.88 221.5 251.88 225 253.63 228.5 251.88 225 258.88Z"/>
<path transform="matrix(.71980676,0,0,.71980676,.35990338,.35990338)" d="M167 150H283C283.78794 150 284.56828 150.07686 285.34107 150.23058 286.11387 150.3843 286.86424 150.61191 287.59217 150.91344 288.32014 151.21497 289.0117 151.5846 289.6668 152.02234 290.32197 152.4601 290.9281 152.95755 291.48527 153.51471 292.0424 154.07186 292.53984 154.67801 292.97758 155.33315 293.4153 155.98828 293.78495 156.67983 294.0865 157.40778 294.38804 158.13574 294.61567 158.88611 294.76939 159.65889 294.92314 160.4317 295 161.21207 295 162V218C295 218.78792 294.92314 219.56829 294.76939 220.34107 294.61567 221.11385 294.38804 221.86421 294.0865 222.59217 293.78495 223.32012 293.4153 224.01168 292.97758 224.66681 292.53984 225.32195 292.0424 225.9281 291.48527 226.48526 290.9281 227.0424 290.32197 227.53986 289.6668 227.97762 289.0117 228.41535 288.32014 228.78499 287.59217 229.08654 286.86424 229.38806 286.11387 229.61568 285.34107 229.76941 284.56828 229.92313 283.78794 229.99999 283 230H167C166.21205 229.99999 165.43169 229.92313 164.6589 229.76941 163.88611 229.61568 163.13573 229.38806 162.40778 229.08654 161.67983 228.78499 160.98827 228.41535 160.33313 227.97762 159.678 227.53986 159.07186 227.0424 158.51471 226.48526 157.95757 225.9281 157.46012 225.32195 157.02236 224.66681 156.5846 224.01168 156.21495 223.32013 155.91342 222.59218 155.6119 221.86423 155.38428 221.11385 155.23058 220.34107 155.07686 219.56829 155 218.78792 155 218V162C155 161.21207 155.07686 160.4317 155.23058 159.65889 155.38428 158.88611 155.6119 158.13574 155.91342 157.40778 156.21495 156.67983 156.5846 155.98828 157.02236 155.33315 157.46012 154.67801 157.95757 154.07186 158.51471 153.51471 159.07186 152.95755 159.678 152.4601 160.33313 152.02234 160.98827 151.5846 161.67983 151.21497 162.40778 150.91344 163.13573 150.61191 163.88611 150.3843 164.6589 150.23058 165.43169 150.07686 166.21205 150 167 150Z" fill="#ffffff"/>
<path transform="matrix(.71980676,0,0,.71980676,.35990338,.35990338)" stroke-width="1" stroke-linecap="butt" stroke-miterlimit="4" stroke-linejoin="miter" fill="none" stroke="#000000" d="M167 150H283C283.78794 150 284.56828 150.07686 285.34107 150.23058 286.11387 150.3843 286.86424 150.61191 287.59217 150.91344 288.32014 151.21497 289.0117 151.5846 289.6668 152.02234 290.32197 152.4601 290.9281 152.95755 291.48527 153.51471 292.0424 154.07186 292.53984 154.67801 292.97758 155.33315 293.4153 155.98828 293.78495 156.67983 294.0865 157.40778 294.38804 158.13574 294.61567 158.88611 294.76939 159.65889 294.92314 160.4317 295 161.21207 295 162V218C295 218.78792 294.92314 219.56829 294.76939 220.34107 294.61567 221.11385 294.38804 221.86421 294.0865 222.59217 293.78495 223.32012 293.4153 224.01168 292.97758 224.66681 292.53984 225.32195 292.0424 225.9281 291.48527 226.48526 290.9281 227.0424 290.32197 227.53986 289.6668 227.97762 289.0117 228.41535 288.32014 228.78499 287.59217 229.08654 286.86424 229.38806 286.11387 229.61568 285.34107 229.76941 284.56828 229.92313 283.78794 229.99999 283 230H167C166.21205 229.99999 165.43169 229.92313 164.6589 229.76941 163.88611 229.61568 163.13573 229.38806 162.40778 229.08654 161.67983 228.78499 160.98827 228.41535 160.33313 227.97762 159.678 227.53986 159.07186 227.0424 158.51471 226.48526 157.95757 225.9281 157.46012 225.32195 157.02236 224.66681 156.5846 224.01168 156.21495 223.32013 155.91342 222.59218 155.6119 221.86423 155.38428 221.11385 155.23058 220.34107 155.07686 219.56829 155 218.78792 155 218V162C155 161.21207 155.07686 160.4317 155.23058 159.65889 155.38428 158.88611 155.6119 158.13574 155.91342 157.40778 156.21495 156.67983 156.5846 155.98828 157.02236 155.33315 157.46012 154.67801 157.95757 154.07186 158.51471 153.51471 159.07186 152.95755 159.678 152.4601 160.33313 152.02234 160.98827 151.5846 161.67983 151.21497 162.40778 150.91344 163.13573 150.61191 163.88611 150.3843 164.6589 150.23058 165.43169 150.07686 166.21205 150 167 150Z"/>
<text xml:space="preserve" transform="matrix(.71980676 0 0 .71980676 0 0)" font-size="12" font-family="ArialMT"><tspan y="187" x="167.28125 175.28525 181.95725 188.62924 195.30124 198.63724 201.30124 207.30124 213.97324 217.30924 220.64524 227.31723 231.31324 237.98523 243.98523 250.65723 257.32923 259.99324 266.66523 269.32923 276.00123">Adaptive thresholding</tspan></text>
<text xml:space="preserve" transform="matrix(.71980676 0 0 .71980676 0 0)" font-size="12" font-family="ArialMT"><tspan y="202" x="200.3125 206.9845 209.6485 216.3205 222.9925 226.9885 229.6525 232.9885 239.66049">algorithm</tspan></text>
<path transform="matrix(.71980676,0,0,.71980676,.35990338,.35990338)" d="M754.5 260 822 305 754.5 350 687 305 754.5 260Z" fill="#ffffff"/>
<path transform="matrix(.71980676,0,0,.71980676,.35990338,.35990338)" stroke-width="1" stroke-linecap="butt" stroke-miterlimit="10" stroke-linejoin="miter" fill="none" stroke="#000000" d="M754.5 260 822 305 754.5 350 687 305 754.5 260Z"/>
<text xml:space="preserve" transform="matrix(.71980676 0 0 .71980676 0 0)" font-size="12" font-family="ArialMT"><tspan y="295" x="724.8125 734.8085 741.48049 747.48049 750.81649 757.48849 764.16049 770.83248 774.16848">max.depth</tspan></text>
<text xml:space="preserve" transform="matrix(.71980676 0 0 .71980676 0 0)" font-size="12" font-family="ArialMT"><tspan y="295" x="780.84048"> </tspan></text>
<text xml:space="preserve" transform="matrix(.71980676 0 0 .71980676 0 0)" font-size="12" font-family="ArialMT"><tspan y="309" x="705.7969 713.8009 722.4649 731.1289 734.4649 741.1369 743.8009 746.4649 749.8009 756.4729 763.1449 769.8169 776.4889 780.48489 787.15689 793.82888 797.16488">AND all quadrants</tspan></text>
<text xml:space="preserve" transform="matrix(.71980676 0 0 .71980676 0 0)" font-size="12" font-family="ArialMT"><tspan y="324" x="723.46878 730.14077 734.1367 740.8087 746.8087 753.4807 759.4807 765.4807 772.1527 778.8247">processed?</tspan></text>
<path transform="matrix(.71980676,0,0,.71980676,.35990338,.35990338)" stroke-width="1" stroke-linecap="butt" stroke-miterlimit="10" stroke-linejoin="miter" fill="none" stroke="#000000" d="M465 305H505V185H528.63"/>
<path transform="matrix(.71980676,0,0,.71980676,.35990338,.35990338)" d="M533.88 185 526.88 188.5 528.63 185 526.88 181.5 533.88 185Z"/>
<path transform="matrix(.71980676,0,0,.71980676,.35990338,.35990338)" stroke-width="1" stroke-linecap="butt" stroke-miterlimit="10" stroke-linejoin="miter" fill="none" stroke="#000000" d="M533.88 185 526.88 188.5 528.63 185 526.88 181.5 533.88 185Z"/>
<path transform="matrix(.71980676,0,0,.71980676,.35990338,.35990338)" stroke-width="1" stroke-linecap="butt" stroke-miterlimit="10" stroke-linejoin="miter" fill="none" stroke="#000000" d="M465 305H505V265H528.63"/>
<path transform="matrix(.71980676,0,0,.71980676,.35990338,.35990338)" d="M533.88 265 526.88 268.5 528.63 265 526.88 261.5 533.88 265Z"/>
<path transform="matrix(.71980676,0,0,.71980676,.35990338,.35990338)" stroke-width="1" stroke-linecap="butt" stroke-miterlimit="10" stroke-linejoin="miter" fill="none" stroke="#000000" d="M533.88 265 526.88 268.5 528.63 265 526.88 261.5 533.88 265Z"/>
<path transform="matrix(.71980676,0,0,.71980676,.35990338,.35990338)" stroke-width="1" stroke-linecap="butt" stroke-miterlimit="10" stroke-linejoin="miter" fill="none" stroke="#000000" d="M465 305H505V345H528.63"/>
<path transform="matrix(.71980676,0,0,.71980676,.35990338,.35990338)" d="M533.88 345 526.88 348.5 528.63 345 526.88 341.5 533.88 345Z"/>
<path transform="matrix(.71980676,0,0,.71980676,.35990338,.35990338)" stroke-width="1" stroke-linecap="butt" stroke-miterlimit="10" stroke-linejoin="miter" fill="none" stroke="#000000" d="M533.88 345 526.88 348.5 528.63 345 526.88 341.5 533.88 345Z"/>
<path transform="matrix(.71980676,0,0,.71980676,.35990338,.35990338)" stroke-width="1" stroke-linecap="butt" stroke-miterlimit="10" stroke-linejoin="miter" fill="none" stroke="#000000" d="M465 305H505V425H528.63"/>
<path transform="matrix(.71980676,0,0,.71980676,.35990338,.35990338)" d="M533.88 425 526.88 428.5 528.63 425 526.88 421.5 533.88 425Z"/>
<path transform="matrix(.71980676,0,0,.71980676,.35990338,.35990338)" stroke-width="1" stroke-linecap="butt" stroke-miterlimit="10" stroke-linejoin="miter" fill="none" stroke="#000000" d="M533.88 425 526.88 428.5 528.63 425 526.88 421.5 533.88 425Z"/>
<path transform="matrix(.71980676,0,0,.71980676,.35990338,.35990338)" d="M354 275H456C456.59095 275 457.1762 275.05766 457.7558 275.1729 458.33537 275.2882 458.89814 275.45893 459.4441 275.68507 459.99006 275.9112 460.50874 276.18843 461.0001 276.51673 461.49147 276.84507 461.94609 277.21815 462.36396 277.63603 462.7818 278.05387 463.15489 278.50846 463.48323 278.99983 463.81153 279.49119 464.08876 280.00984 464.3149 280.55583 464.54103 281.1018 464.71174 281.66459 464.82707 282.24415 464.94233 282.82377 464.99998 283.40904 465 284V326C464.99998 326.5909 464.94233 327.17619 464.82707 327.75578 464.71174 328.33537 464.54103 328.89814 464.3149 329.4441 464.08876 329.99006 463.81153 330.50874 463.4832 331.0001 463.15489 331.49147 462.7818 331.94606 462.36396 332.36393 461.94609 332.7818 461.49147 333.15489 461.0001 333.48316 460.50874 333.8115 459.99006 334.0887 459.4441 334.31486 458.89814 334.54103 458.33537 334.71177 457.7558 334.82704 457.1762 334.94233 456.59095 334.99998 456 335H354C353.40904 334.99998 352.82377 334.94233 352.24415 334.82704 351.66453 334.71177 351.10176 334.54103 350.5558 334.31486 350.00987 334.0887 349.49119 333.8115 348.99983 333.48316 348.50849 333.15489 348.0539 332.7818 347.63603 332.36393 347.21815 331.94606 346.84504 331.49147 346.51673 331.0001 346.18843 330.50874 345.9112 329.99006 345.68507 329.4441 345.4589 328.89814 345.28816 328.33537 345.17289 327.75578 345.05763 327.17619 344.99998 326.5909 345 326V284C344.99998 283.40904 345.05763 282.82377 345.17289 282.24415 345.28816 281.66459 345.4589 281.1018 345.68507 280.55583 345.9112 280.00984 346.18843 279.49119 346.51673 278.99983 346.84504 278.50846 347.21815 278.05387 347.63603 277.63603 348.0539 277.21815 348.50849 276.84507 348.99986 276.51673 349.4912 276.18843 350.00987 275.9112 350.5558 275.68507 351.10176 275.45893 351.66453 275.2882 352.24415 275.1729 352.82377 275.05766 353.40904 275 354 275Z" fill="#ffffff"/>
<path transform="matrix(.71980676,0,0,.71980676,.35990338,.35990338)" stroke-width="1" stroke-linecap="butt" stroke-miterlimit="4" stroke-linejoin="miter" fill="none" stroke="#000000" d="M354 275H456C456.59095 275 457.1762 275.05766 457.7558 275.1729 458.33537 275.2882 458.89814 275.45893 459.4441 275.68507 459.99006 275.9112 460.50874 276.18843 461.0001 276.51673 461.49147 276.84507 461.94609 277.21815 462.36396 277.63603 462.7818 278.05387 463.15489 278.50846 463.48323 278.99983 463.81153 279.49119 464.08876 280.00984 464.3149 280.55583 464.54103 281.1018 464.71174 281.66459 464.82707 282.24415 464.94233 282.82377 464.99998 283.40904 465 284V326C464.99998 326.5909 464.94233 327.17619 464.82707 327.75578 464.71174 328.33537 464.54103 328.89814 464.3149 329.4441 464.08876 329.99006 463.81153 330.50874 463.4832 331.0001 463.15489 331.49147 462.7818 331.94606 462.36396 332.36393 461.94609 332.7818 461.49147 333.15489 461.0001 333.48316 460.50874 333.8115 459.99006 334.0887 459.4441 334.31486 458.89814 334.54103 458.33537 334.71177 457.7558 334.82704 457.1762 334.94233 456.59095 334.99998 456 335H354C353.40904 334.99998 352.82377 334.94233 352.24415 334.82704 351.66453 334.71177 351.10176 334.54103 350.5558 334.31486 350.00987 334.0887 349.49119 333.8115 348.99983 333.48316 348.50849 333.15489 348.0539 332.7818 347.63603 332.36393 347.21815 331.94606 346.84504 331.49147 346.51673 331.0001 346.18843 330.50874 345.9112 329.99006 345.68507 329.4441 345.4589 328.89814 345.28816 328.33537 345.17289 327.75578 345.05763 327.17619 344.99998 326.5909 345 326V284C344.99998 283.40904 345.05763 282.82377 345.17289 282.24415 345.28816 281.66459 345.4589 281.1018 345.68507 280.55583 345.9112 280.00984 346.18843 279.49119 346.51673 278.99983 346.84504 278.50846 347.21815 278.05387 347.63603 277.63603 348.0539 277.21815 348.50849 276.84507 348.99986 276.51673 349.4912 276.18843 350.00987 275.9112 350.5558 275.68507 351.10176 275.45893 351.66453 275.2882 352.24415 275.1729 352.82377 275.05766 353.40904 275 354 275Z"/>
<text xml:space="preserve" transform="matrix(.71980676 0 0 .71980676 0 0)" font-size="12" font-family="ArialMT"><tspan y="309" x="367.96876 375.97276 382.64476 385.30876 387.97276 391.30876 394.64476 401.31675 407.98875 414.66075 421.33274 425.32875 432.00074 438.67274">Split quadrant</tspan></text>
<path transform="matrix(.71980676,0,0,.71980676,.35990338,.35990338)" stroke-width="1" stroke-linecap="butt" stroke-miterlimit="10" stroke-linejoin="miter" fill="none" stroke="#000000" d="M635 185H655V305H680.63"/>
<path transform="matrix(.71980676,0,0,.71980676,.35990338,.35990338)" d="M685.88 305 678.88 308.5 680.63 305 678.88 301.5 685.88 305Z"/>
<path transform="matrix(.71980676,0,0,.71980676,.35990338,.35990338)" stroke-width="1" stroke-linecap="butt" stroke-miterlimit="10" stroke-linejoin="miter" fill="none" stroke="#000000" d="M685.88 305 678.88 308.5 680.63 305 678.88 301.5 685.88 305Z"/>
<path transform="matrix(.71980676,0,0,.71980676,.35990338,.35990338)" d="M525 215 545 155H645L625 215H525Z" fill="#ffffff"/>
<path transform="matrix(.71980676,0,0,.71980676,.35990338,.35990338)" stroke-width="1" stroke-linecap="butt" stroke-miterlimit="10" stroke-linejoin="miter" fill="none" stroke="#000000" d="M525 215 545 155H645L625 215H525Z"/>
<text xml:space="preserve" transform="matrix(.71980676 0 0 .71980676 0 0)" font-size="12" font-family="ArialMT"><tspan y="182" x="573.65628 582.32028 592.9863">NW.</tspan></text>
<text xml:space="preserve" transform="matrix(.71980676 0 0 .71980676 0 0)" font-size="12" font-family="ArialMT"><tspan y="197" x="561.3125 567.9845 574.6565 581.3285 588.0005 591.99649 598.66848 605.34048">quadrant</tspan></text>
<path transform="matrix(.71980676,0,0,.71980676,.35990338,.35990338)" stroke-width="1" stroke-linecap="butt" stroke-miterlimit="10" stroke-linejoin="miter" fill="none" stroke="#000000" d="M635 265H655V305H680.63"/>
<path transform="matrix(.71980676,0,0,.71980676,.35990338,.35990338)" d="M685.88 305 678.88 308.5 680.63 305 678.88 301.5 685.88 305Z"/>
<path transform="matrix(.71980676,0,0,.71980676,.35990338,.35990338)" stroke-width="1" stroke-linecap="butt" stroke-miterlimit="10" stroke-linejoin="miter" fill="none" stroke="#000000" d="M685.88 305 678.88 308.5 680.63 305 678.88 301.5 685.88 305Z"/>
<path transform="matrix(.71980676,0,0,.71980676,.35990338,.35990338)" d="M525 295 545 235H645L625 295H525Z" fill="#ffffff"/>
<path transform="matrix(.71980676,0,0,.71980676,.35990338,.35990338)" stroke-width="1" stroke-linecap="butt" stroke-miterlimit="10" stroke-linejoin="miter" fill="none" stroke="#000000" d="M525 295 545 235H645L625 295H525Z"/>
<text xml:space="preserve" transform="matrix(.71980676 0 0 .71980676 0 0)" font-size="12" font-family="ArialMT"><tspan y="262" x="574.9844 583.6484 591.6524">NE.</tspan></text>
<text xml:space="preserve" transform="matrix(.71980676 0 0 .71980676 0 0)" font-size="12" font-family="ArialMT"><tspan y="277" x="561.3125 567.9845 574.6565 581.3285 588.0005 591.99649 598.66848 605.34048">quadrant</tspan></text>
<path transform="matrix(.71980676,0,0,.71980676,.35990338,.35990338)" stroke-width="1" stroke-linecap="butt" stroke-miterlimit="10" stroke-linejoin="miter" fill="none" stroke="#000000" d="M635 345H655V305H680.63"/>
<path transform="matrix(.71980676,0,0,.71980676,.35990338,.35990338)" d="M685.88 305 678.88 308.5 680.63 305 678.88 301.5 685.88 305Z"/>
<path transform="matrix(.71980676,0,0,.71980676,.35990338,.35990338)" stroke-width="1" stroke-linecap="butt" stroke-miterlimit="10" stroke-linejoin="miter" fill="none" stroke="#000000" d="M685.88 305 678.88 308.5 680.63 305 678.88 301.5 685.88 305Z"/>
<path transform="matrix(.71980676,0,0,.71980676,.35990338,.35990338)" d="M525 375 545 315H645L625 375H525Z" fill="#ffffff"/>
<path transform="matrix(.71980676,0,0,.71980676,.35990338,.35990338)" stroke-width="1" stroke-linecap="butt" stroke-miterlimit="10" stroke-linejoin="miter" fill="none" stroke="#000000" d="M525 375 545 315H645L625 375H525Z"/>
<text xml:space="preserve" transform="matrix(.71980676 0 0 .71980676 0 0)" font-size="12" font-family="ArialMT"><tspan y="342" x="573.9844 581.9884 592.65237">SW.</tspan></text>
<text xml:space="preserve" transform="matrix(.71980676 0 0 .71980676 0 0)" font-size="12" font-family="ArialMT"><tspan y="357" x="561.3125 567.9845 574.6565 581.3285 588.0005 591.99649 598.66848 605.34048">quadrant</tspan></text>
<path transform="matrix(.71980676,0,0,.71980676,.35990338,.35990338)" stroke-width="1" stroke-linecap="butt" stroke-miterlimit="10" stroke-linejoin="miter" fill="none" stroke="#000000" d="M635 425H655V305H680.63"/>
<path transform="matrix(.71980676,0,0,.71980676,.35990338,.35990338)" d="M685.88 305 678.88 308.5 680.63 305 678.88 301.5 685.88 305Z"/>
<path transform="matrix(.71980676,0,0,.71980676,.35990338,.35990338)" stroke-width="1" stroke-linecap="butt" stroke-miterlimit="10" stroke-linejoin="miter" fill="none" stroke="#000000" d="M685.88 305 678.88 308.5 680.63 305 678.88 301.5 685.88 305Z"/>
<path transform="matrix(.71980676,0,0,.71980676,.35990338,.35990338)" d="M525 455 545 395H645L625 455H525Z" fill="#ffffff"/>
<path transform="matrix(.71980676,0,0,.71980676,.35990338,.35990338)" stroke-width="1" stroke-linecap="butt" stroke-miterlimit="10" stroke-linejoin="miter" fill="none" stroke="#000000" d="M525 455 545 395H645L625 455H525Z"/>
<text xml:space="preserve" transform="matrix(.71980676 0 0 .71980676 0 0)" font-size="12" font-family="ArialMT"><tspan y="422" x="575.3281 583.33218 591.3362">SE.</tspan></text>
<text xml:space="preserve" transform="matrix(.71980676 0 0 .71980676 0 0)" font-size="12" font-family="ArialMT"><tspan y="437" x="561.3125 567.9845 574.6565 581.3285 588.0005 591.99649 598.66848 605.34048">quadrant</tspan></text>
<path transform="matrix(.71980676,0,0,.71980676,.35990338,.35990338)" stroke-width="1" stroke-linecap="butt" stroke-miterlimit="10" stroke-linejoin="miter" fill="none" stroke="#000000" d="M225 350V370 360 373.63"/>
<path transform="matrix(.71980676,0,0,.71980676,.35990338,.35990338)" d="M225 378.88 221.5 371.88 225 373.63 228.5 371.88 225 378.88Z"/>
<path transform="matrix(.71980676,0,0,.71980676,.35990338,.35990338)" stroke-width="1" stroke-linecap="butt" stroke-miterlimit="10" stroke-linejoin="miter" fill="none" stroke="#000000" d="M225 378.88 221.5 371.88 225 373.63 228.5 371.88 225 378.88Z"/>
<path transform="matrix(.71980676,0,0,.71980676,.35990338,.35990338)" d="M225 260 292.5 305 225 350 157.5 305 225 260Z" fill="#ffffff"/>
<path transform="matrix(.71980676,0,0,.71980676,.35990338,.35990338)" stroke-width="1" stroke-linecap="butt" stroke-miterlimit="10" stroke-linejoin="miter" fill="none" stroke="#000000" d="M225 260 292.5 305 225 350 157.5 305 225 260Z"/>
<text xml:space="preserve" transform="matrix(.71980676 0 0 .71980676 0 0)" font-size="12" font-family="ArialMT"><tspan y="302" x="181.15625 190.49225 200.48825 210.48426 214.48026 222.48426 225.14826 235.14426 241.81626 248.48825 255.16025 257.82426 260.48826 263.82426">GMM-Bimodality</tspan></text>
<text xml:space="preserve" transform="matrix(.71980676 0 0 .71980676 0 0)" font-size="12" font-family="ArialMT"><tspan y="317" x="209.8125 215.8125 222.4845 229.1565 235.1565">check</tspan></text>
<path transform="matrix(.71980676,0,0,.71980676,.35990338,.35990338)" stroke-width="1" stroke-linecap="butt" stroke-miterlimit="10" stroke-linejoin="miter" fill="none" stroke="#000000" d="M292.5 304.66 338.63 304.96"/>
<path transform="matrix(.71980676,0,0,.71980676,.35990338,.35990338)" d="M343.88 304.99 336.86 308.45 338.63 304.96 336.9 301.45 343.88 304.99Z"/>
<path transform="matrix(.71980676,0,0,.71980676,.35990338,.35990338)" stroke-width="1" stroke-linecap="butt" stroke-miterlimit="10" stroke-linejoin="miter" fill="none" stroke="#000000" d="M343.88 304.99 336.86 308.45 338.63 304.96 336.9 301.45 343.88 304.99Z"/>
<path transform="matrix(.71980676,0,0,.71980676,0,0)" d="M302 299H337V312H302Z" fill="#ffffff"/>
<text xml:space="preserve" transform="matrix(.71980676 0 0 .71980676 0 0)" font-size="11" font-family="Arial" font-weight="bold"><tspan y="309" x="301.78126 307.89356 315.83555 322.55656 329.89356">FALSE</tspan></text>
<path transform="matrix(.71980676,0,0,.71980676,.35990338,.35990338)" stroke-width="1" stroke-linecap="butt" stroke-miterlimit="10" stroke-linejoin="miter" fill="none" stroke="#000000" d="M225 440V460 450 463.63"/>
<path transform="matrix(.71980676,0,0,.71980676,.35990338,.35990338)" d="M225 468.88 221.5 461.88 225 463.63 228.5 461.88 225 468.88Z"/>
<path transform="matrix(.71980676,0,0,.71980676,.35990338,.35990338)" stroke-width="1" stroke-linecap="butt" stroke-miterlimit="10" stroke-linejoin="miter" fill="none" stroke="#000000" d="M225 468.88 221.5 461.88 225 463.63 228.5 461.88 225 468.88Z"/>
<path transform="matrix(.71980676,0,0,.71980676,.35990338,.35990338)" d="M174 380H276C276.59095 380 277.1762 380.05766 277.7558 380.17295 278.3354 380.2882 278.89817 380.4589 279.44413 380.68504 279.9901 380.9112 280.50877 381.18846 281.0001 381.51676 281.49147 381.84507 281.94609 382.21815 282.36396 382.63603 282.7818 383.05384 283.15489 383.50843 283.4832 383.9998 283.81153 384.49116 284.08876 385.0098 284.3149 385.5558 284.54106 386.10179 284.71177 386.66456 284.82704 387.24415 284.94236 387.82377 285 388.40904 285 389V431C285 431.59095 284.94236 432.1762 284.82704 432.75578 284.71177 433.33537 284.54106 433.89814 284.3149 434.4441 284.08876 434.99006 283.81153 435.5087 283.48323 436.00007 283.15489 436.49143 282.7818 436.94606 282.36396 437.36393 281.94609 437.78178 281.4915 438.15486 281.00013 438.48316 280.50877 438.81147 279.9901 439.0887 279.44413 439.31489 278.89817 439.54103 278.3354 439.71174 277.7558 439.827 277.1762 439.94233 276.59095 439.99998 276 440H174C173.40904 439.99998 172.82378 439.94233 172.24419 439.827 171.66458 439.71174 171.1018 439.54103 170.55583 439.31486 170.00988 439.08869 169.49121 438.81147 168.99987 438.48316 168.5085 438.15486 168.05388 437.78178 167.63602 437.36393 167.21814 436.94606 166.84505 436.49147 166.51674 436.0001 166.18843 435.50874 165.91121 434.99006 165.68506 434.4441 165.45891 433.89814 165.2882 433.33537 165.17292 432.75578 165.05764 432.1762 164.99999 431.59095 165 431V389C164.99999 388.40904 165.05764 387.82377 165.17292 387.24418 165.2882 386.66456 165.45891 386.10179 165.68506 385.5558 165.91121 385.0098 166.18843 384.49116 166.51674 383.9998 166.84505 383.50843 167.21814 383.05384 167.63602 382.63603 168.05388 382.21815 168.5085 381.84507 168.99985 381.51676 169.49121 381.18846 170.00988 380.91123 170.55583 380.68507 171.1018 380.45893 171.66458 380.2882 172.24419 380.17295 172.82378 380.05766 173.40904 380 174 380Z" fill="#ffffff"/>
<path transform="matrix(.71980676,0,0,.71980676,.35990338,.35990338)" stroke-width="1" stroke-linecap="butt" stroke-miterlimit="4" stroke-linejoin="miter" fill="none" stroke="#000000" d="M174 380H276C276.59095 380 277.1762 380.05766 277.7558 380.17295 278.3354 380.2882 278.89817 380.4589 279.44413 380.68504 279.9901 380.9112 280.50877 381.18846 281.0001 381.51676 281.49147 381.84507 281.94609 382.21815 282.36396 382.63603 282.7818 383.05384 283.15489 383.50843 283.4832 383.9998 283.81153 384.49116 284.08876 385.0098 284.3149 385.5558 284.54106 386.10179 284.71177 386.66456 284.82704 387.24415 284.94236 387.82377 285 388.40904 285 389V431C285 431.59095 284.94236 432.1762 284.82704 432.75578 284.71177 433.33537 284.54106 433.89814 284.3149 434.4441 284.08876 434.99006 283.81153 435.5087 283.48323 436.00007 283.15489 436.49143 282.7818 436.94606 282.36396 437.36393 281.94609 437.78178 281.4915 438.15486 281.00013 438.48316 280.50877 438.81147 279.9901 439.0887 279.44413 439.31489 278.89817 439.54103 278.3354 439.71174 277.7558 439.827 277.1762 439.94233 276.59095 439.99998 276 440H174C173.40904 439.99998 172.82378 439.94233 172.24419 439.827 171.66458 439.71174 171.1018 439.54103 170.55583 439.31486 170.00988 439.08869 169.49121 438.81147 168.99987 438.48316 168.5085 438.15486 168.05388 437.78178 167.63602 437.36393 167.21814 436.94606 166.84505 436.49147 166.51674 436.0001 166.18843 435.50874 165.91121 434.99006 165.68506 434.4441 165.45891 433.89814 165.2882 433.33537 165.17292 432.75578 165.05764 432.1762 164.99999 431.59095 165 431V389C164.99999 388.40904 165.05764 387.82377 165.17292 387.24418 165.2882 386.66456 165.45891 386.10179 165.68506 385.5558 165.91121 385.0098 166.18843 384.49116 166.51674 383.9998 166.84505 383.50843 167.21814 383.05384 167.63602 382.63603 168.05388 382.21815 168.5085 381.84507 168.99985 381.51676 169.49121 381.18846 170.00988 380.91123 170.55583 380.68507 171.1018 380.45893 171.66458 380.2882 172.24419 380.17295 172.82378 380.05766 173.40904 380 174 380Z"/>
<text xml:space="preserve" transform="matrix(.71980676 0 0 .71980676 0 0)" font-size="12" font-family="ArialMT"><tspan y="400" x="166.96875 174.30075 176.96475 180.30075 183.63675 191.64075 200.97675 208.98075 212.31674 218.98874 225.66074 232.33274 235.66873 239.00473 241.66873 248.34073 255.01273 258.34873 261.01274 267.68473 273.68473 280.35673">Fit KGE and find local</tspan></text>
<text xml:space="preserve" transform="matrix(.71980676 0 0 .71980676 0 0)" font-size="12" font-family="ArialMT"><tspan y="414" x="170.625 180.621 183.285 189.957 193.293 196.629 203.301 209.97299 213.30899 221.97299 228.64499 235.31699 241.98899 245.32498 251.32498 253.98899 260.66099 266.66099 272.66099">min. between class1</tspan></text>
<text xml:space="preserve" transform="matrix(.71980676 0 0 .71980676 0 0)" font-size="12" font-family="ArialMT"><tspan y="429" x="221.65625">2</tspan></text>
<path transform="matrix(.71980676,0,0,.71980676,.35990338,.35990338)" stroke-width="1" stroke-linecap="butt" stroke-miterlimit="10" stroke-linejoin="miter" fill="none" stroke="#000000" d="M754.5 350 755 570H105V305H151.13"/>
<path transform="matrix(.71980676,0,0,.71980676,.35990338,.35990338)" d="M156.38 305 149.38 308.5 151.13 305 149.38 301.5 156.38 305Z"/>
<path transform="matrix(.71980676,0,0,.71980676,.35990338,.35990338)" stroke-width="1" stroke-linecap="butt" stroke-miterlimit="10" stroke-linejoin="miter" fill="none" stroke="#000000" d="M156.38 305 149.38 308.5 151.13 305 149.38 301.5 156.38 305Z"/>
<path transform="matrix(.71980676,0,0,.71980676,0,0)" d="M365 565H400V578H365Z" fill="#ffffff"/>
<text xml:space="preserve" transform="matrix(.71980676 0 0 .71980676 0 0)" font-size="11" font-family="Arial" font-weight="bold"><tspan y="575" x="364.78126 370.89356 378.83555 385.55656 392.89356">FALSE</tspan></text>
<path transform="matrix(.71980676,0,0,.71980676,.35990338,.35990338)" stroke-width="1" stroke-linecap="butt" stroke-miterlimit="10" stroke-linejoin="miter" fill="none" stroke="#000000" d="M345 190H301.37"/>
<path transform="matrix(.71980676,0,0,.71980676,.35990338,.35990338)" d="M296.12 190 303.12 186.5 301.37 190 303.12 193.5 296.12 190Z"/>
<path transform="matrix(.71980676,0,0,.71980676,.35990338,.35990338)" stroke-width="1" stroke-linecap="butt" stroke-miterlimit="10" stroke-linejoin="miter" fill="none" stroke="#000000" d="M296.12 190 303.12 186.5 301.37 190 303.12 193.5 296.12 190Z"/>
<path transform="matrix(.71980676,0,0,.71980676,.35990338,.35990338)" d="M354 160H456C456.59095 160 457.1762 160.05765 457.7558 160.17293 458.33537 160.28821 458.89814 160.45893 459.4441 160.68506 459.99006 160.91121 460.50874 161.18843 461.0001 161.51676 461.49147 161.84508 461.94609 162.21817 462.36396 162.63603 462.7818 163.0539 463.15489 163.50852 463.48323 163.99987 463.81153 164.49121 464.08876 165.00988 464.3149 165.55583 464.54103 166.10179 464.71174 166.66457 464.82707 167.24416 464.94233 167.82376 464.99998 168.40904 465 169V211C464.99998 211.59093 464.94233 212.1762 464.82707 212.75579 464.71174 213.33539 464.54103 213.89817 464.3149 214.44412 464.08876 214.99008 463.81153 215.50875 463.4832 216.00009 463.15489 216.49146 462.7818 216.94608 462.36396 217.36394 461.94609 217.7818 461.49147 218.15489 461.0001 218.4832 460.50874 218.81151 459.99006 219.08873 459.4441 219.31488 458.89814 219.54103 458.33537 219.71175 457.7558 219.82704 457.1762 219.94234 456.59095 219.99999 456 220H354C353.40904 219.99999 352.82377 219.94234 352.24415 219.82704 351.66453 219.71175 351.10176 219.54103 350.5558 219.31488 350.00987 219.08873 349.49119 218.81151 348.99983 218.48322 348.50849 218.15489 348.0539 217.7818 347.63603 217.36394 347.21815 216.94608 346.84504 216.49146 346.51673 216.0001 346.18843 215.50875 345.9112 214.99008 345.68507 214.44412 345.4589 213.89817 345.28816 213.33539 345.17289 212.7558 345.05763 212.1762 344.99998 211.59093 345 211V169C344.99998 168.40904 345.05763 167.82376 345.17289 167.24416 345.28816 166.66457 345.4589 166.10179 345.68507 165.55583 345.9112 165.00988 346.18843 164.49121 346.51673 163.99987 346.84504 163.50852 347.21815 163.0539 347.63603 162.63603 348.0539 162.21817 348.50849 161.84508 348.99986 161.51676 349.4912 161.18843 350.00987 160.91121 350.5558 160.68506 351.10176 160.45893 351.66453 160.28821 352.24415 160.17293 352.82377 160.05765 353.40904 160 354 160Z" fill="#ffffff"/>
<path transform="matrix(.71980676,0,0,.71980676,.35990338,.35990338)" stroke-width="1" stroke-linecap="butt" stroke-miterlimit="4" stroke-linejoin="miter" fill="none" stroke="#000000" d="M354 160H456C456.59095 160 457.1762 160.05765 457.7558 160.17293 458.33537 160.28821 458.89814 160.45893 459.4441 160.68506 459.99006 160.91121 460.50874 161.18843 461.0001 161.51676 461.49147 161.84508 461.94609 162.21817 462.36396 162.63603 462.7818 163.0539 463.15489 163.50852 463.48323 163.99987 463.81153 164.49121 464.08876 165.00988 464.3149 165.55583 464.54103 166.10179 464.71174 166.66457 464.82707 167.24416 464.94233 167.82376 464.99998 168.40904 465 169V211C464.99998 211.59093 464.94233 212.1762 464.82707 212.75579 464.71174 213.33539 464.54103 213.89817 464.3149 214.44412 464.08876 214.99008 463.81153 215.50875 463.4832 216.00009 463.15489 216.49146 462.7818 216.94608 462.36396 217.36394 461.94609 217.7818 461.49147 218.15489 461.0001 218.4832 460.50874 218.81151 459.99006 219.08873 459.4441 219.31488 458.89814 219.54103 458.33537 219.71175 457.7558 219.82704 457.1762 219.94234 456.59095 219.99999 456 220H354C353.40904 219.99999 352.82377 219.94234 352.24415 219.82704 351.66453 219.71175 351.10176 219.54103 350.5558 219.31488 350.00987 219.08873 349.49119 218.81151 348.99983 218.48322 348.50849 218.15489 348.0539 217.7818 347.63603 217.36394 347.21815 216.94608 346.84504 216.49146 346.51673 216.0001 346.18843 215.50875 345.9112 214.99008 345.68507 214.44412 345.4589 213.89817 345.28816 213.33539 345.17289 212.7558 345.05763 212.1762 344.99998 211.59093 345 211V169C344.99998 168.40904 345.05763 167.82376 345.17289 167.24416 345.28816 166.66457 345.4589 166.10179 345.68507 165.55583 345.9112 165.00988 346.18843 164.49121 346.51673 163.99987 346.84504 163.50852 347.21815 163.0539 347.63603 162.63603 348.0539 162.21817 348.50849 161.84508 348.99986 161.51676 349.4912 161.18843 350.00987 160.91121 350.5558 160.68506 351.10176 160.45893 351.66453 160.28821 352.24415 160.17293 352.82377 160.05765 353.40904 160 354 160Z"/>
<text xml:space="preserve" transform="matrix(.71980676 0 0 .71980676 0 0)" font-size="12" font-family="ArialMT"><tspan y="194" x="360.96876 368.97276 372.96876 379.64076 385.64076 392.31275 398.31275 404.31275 407.64875 414.32075 420.99275 426.99275 430.32875 433.66474 437.00074 439.66474 442.32875">Process next tile</tspan></text>
<path transform="matrix(.71980676,0,0,.71980676,.35990338,.35990338)" stroke-width="1" stroke-linecap="butt" stroke-miterlimit="10" stroke-linejoin="miter" fill="none" stroke="#000000" d="M754.5 260 755 140H490V190H471.37"/>
<path transform="matrix(.71980676,0,0,.71980676,.35990338,.35990338)" d="M466.12 190 473.12 186.5 471.37 190 473.12 193.5 466.12 190Z"/>
<path transform="matrix(.71980676,0,0,.71980676,.35990338,.35990338)" stroke-width="1" stroke-linecap="butt" stroke-miterlimit="10" stroke-linejoin="miter" fill="none" stroke="#000000" d="M466.12 190 473.12 186.5 471.37 190 473.12 193.5 466.12 190Z"/>
<path transform="matrix(.71980676,0,0,.71980676,0,0)" d="M632 135H661V148H632Z" fill="#ffffff"/>
<text xml:space="preserve" transform="matrix(.71980676 0 0 .71980676 0 0)" font-size="11" font-family="Arial" font-weight="bold"><tspan y="145" x="631.53128 638.25228 646.1943 654.1363">TRUE</tspan></text>
<path transform="matrix(.71980676,0,0,.71980676,.35990338,.35990338)" d="M225 470 292.5 515 225 560 157.5 515 225 470Z" fill="#ffffff"/>
<path transform="matrix(.71980676,0,0,.71980676,.35990338,.35990338)" stroke-width="1" stroke-linecap="butt" stroke-miterlimit="10" stroke-linejoin="miter" fill="none" stroke="#000000" d="M225 470 292.5 515 225 560 157.5 515 225 470Z"/>
<text xml:space="preserve" transform="matrix(.71980676 0 0 .71980676 0 0)" font-size="12" font-family="ArialMT"><tspan y="512" x="175.29688 181.96887 188.64087 194.64087 201.31287 203.97687 207.31287 217.30887 219.97287 226.64487 229.98087 233.31687 240.32486 243.66086 250.33286 252.99686 259.66886 266.34086 273.01286">Local min. &#x003c; global</tspan></text>
<text xml:space="preserve" transform="matrix(.71980676 0 0 .71980676 0 0)" font-size="12" font-family="ArialMT"><tspan y="527" x="184.46875 193.13275 199.80475 203.14075 209.81275 213.80875 217.14475 220.48075 227.15274 231.14875 237.82074 243.82074 250.49274 257.16474 259.82875">water threshold</tspan></text>
<path transform="matrix(.71980676,0,0,.71980676,.35990338,.35990338)" stroke-width="1" stroke-linecap="butt" stroke-miterlimit="10" stroke-linejoin="miter" fill="none" stroke="#000000" d="M292.5 515H405V341.37"/>
<path transform="matrix(.71980676,0,0,.71980676,.35990338,.35990338)" d="M405 336.12 408.5 343.12 405 341.37 401.5 343.12 405 336.12Z"/>
<path transform="matrix(.71980676,0,0,.71980676,.35990338,.35990338)" stroke-width="1" stroke-linecap="butt" stroke-miterlimit="10" stroke-linejoin="miter" fill="none" stroke="#000000" d="M405 336.12 408.5 343.12 405 341.37 401.5 343.12 405 336.12Z"/>
<path transform="matrix(.71980676,0,0,.71980676,0,0)" d="M389 476H424V489H389Z" fill="#ffffff"/>
<text xml:space="preserve" transform="matrix(.71980676 0 0 .71980676 0 0)" font-size="11" font-family="Arial" font-weight="bold"><tspan y="486" x="388.78126 394.89356 402.83555 409.55656 416.89356">FALSE</tspan></text>
<path transform="matrix(.71980676,0,0,.71980676,.35990338,.35990338)" stroke-width="1" stroke-linecap="butt" stroke-miterlimit="10" stroke-linejoin="miter" fill="none" stroke="#000000" d="M225 670V690 680 693.63"/>
<path transform="matrix(.71980676,0,0,.71980676,.35990338,.35990338)" d="M225 698.88 221.5 691.88 225 693.63 228.5 691.88 225 698.88Z"/>
<path transform="matrix(.71980676,0,0,.71980676,.35990338,.35990338)" stroke-width="1" stroke-linecap="butt" stroke-miterlimit="10" stroke-linejoin="miter" fill="none" stroke="#000000" d="M225 698.88 221.5 691.88 225 693.63 228.5 691.88 225 698.88Z"/>
<path transform="matrix(.71980676,0,0,.71980676,.35990338,.35990338)" d="M174 610H276C276.59095 610 277.1762 610.0576 277.7558 610.1729 278.3354 610.2882 278.89817 610.4589 279.44413 610.685 279.9901 610.91116 280.50877 611.1884 281.0001 611.5167 281.49147 611.84506 281.94609 612.21817 282.36396 612.63607 282.7818 613.0539 283.15489 613.5085 283.4832 613.9999 283.81153 614.4912 284.08876 615.0099 284.3149 615.55587 284.54106 616.10177 284.71177 616.6645 284.82704 617.24417 284.94236 617.8237 285 618.409 285 619V661C285 661.5909 284.94236 662.17617 284.82704 662.75576 284.71177 663.33529 284.54106 663.8981 284.3149 664.44406 284.08876 664.99 283.81153 665.50869 283.48323 666.00009 283.15489 666.49148 282.7818 666.94607 282.36396 667.3639 281.94609 667.7817 281.4915 668.1548 281.00013 668.48318 280.50877 668.8114 279.9901 669.0886 279.44413 669.3148 278.89817 669.54098 278.3354 669.7117 277.7558 669.82699 277.1762 669.94229 276.59095 669.99996 276 670H174C173.40904 669.99996 172.82378 669.94229 172.24419 669.82699 171.66458 669.7117 171.1018 669.54098 170.55583 669.3148 170.00988 669.0886 169.49121 668.8114 168.99987 668.48318 168.5085 668.1548 168.05388 667.7817 167.63602 667.3639 167.21814 666.94607 166.84505 666.49148 166.51674 666.00009 166.18843 665.50869 165.91121 664.99 165.68506 664.44406 165.45891 663.8981 165.2882 663.33529 165.17292 662.75576 165.05764 662.17617 164.99999 661.5909 165 661V619C164.99999 618.409 165.05764 617.8237 165.17292 617.24417 165.2882 616.6645 165.45891 616.10177 165.68506 615.55587 165.91121 615.0099 166.18843 614.4912 166.51674 613.9998 166.84505 613.5085 167.21814 613.0539 167.63602 612.63607 168.05388 612.21817 168.5085 611.8451 168.99985 611.5168 169.49121 611.1884 170.00988 610.91116 170.55583 610.685 171.1018 610.4589 171.66458 610.2882 172.24419 610.1729 172.82378 610.0576 173.40904 610 174 610Z" fill="#ffffff"/>
<path transform="matrix(.71980676,0,0,.71980676,.35990338,.35990338)" stroke-width="1" stroke-linecap="butt" stroke-miterlimit="4" stroke-linejoin="miter" fill="none" stroke="#000000" d="M174 610H276C276.59095 610 277.1762 610.0576 277.7558 610.1729 278.3354 610.2882 278.89817 610.4589 279.44413 610.685 279.9901 610.91116 280.50877 611.1884 281.0001 611.5167 281.49147 611.84506 281.94609 612.21817 282.36396 612.63607 282.7818 613.0539 283.15489 613.5085 283.4832 613.9999 283.81153 614.4912 284.08876 615.0099 284.3149 615.55587 284.54106 616.10177 284.71177 616.6645 284.82704 617.24417 284.94236 617.8237 285 618.409 285 619V661C285 661.5909 284.94236 662.17617 284.82704 662.75576 284.71177 663.33529 284.54106 663.8981 284.3149 664.44406 284.08876 664.99 283.81153 665.50869 283.48323 666.00009 283.15489 666.49148 282.7818 666.94607 282.36396 667.3639 281.94609 667.7817 281.4915 668.1548 281.00013 668.48318 280.50877 668.8114 279.9901 669.0886 279.44413 669.3148 278.89817 669.54098 278.3354 669.7117 277.7558 669.82699 277.1762 669.94229 276.59095 669.99996 276 670H174C173.40904 669.99996 172.82378 669.94229 172.24419 669.82699 171.66458 669.7117 171.1018 669.54098 170.55583 669.3148 170.00988 669.0886 169.49121 668.8114 168.99987 668.48318 168.5085 668.1548 168.05388 667.7817 167.63602 667.3639 167.21814 666.94607 166.84505 666.49148 166.51674 666.00009 166.18843 665.50869 165.91121 664.99 165.68506 664.44406 165.45891 663.8981 165.2882 663.33529 165.17292 662.75576 165.05764 662.17617 164.99999 661.5909 165 661V619C164.99999 618.409 165.05764 617.8237 165.17292 617.24417 165.2882 616.6645 165.45891 616.10177 165.68506 615.55587 165.91121 615.0099 166.18843 614.4912 166.51674 613.9998 166.84505 613.5085 167.21814 613.0539 167.63602 612.63607 168.05388 612.21817 168.5085 611.8451 168.99985 611.5168 169.49121 611.1884 170.00988 610.91116 170.55583 610.685 171.1018 610.4589 171.66458 610.2882 172.24419 610.1729 172.82378 610.0576 173.40904 610 174 610Z"/>
<text xml:space="preserve" transform="matrix(.71980676 0 0 .71980676 0 0)" font-size="12" font-family="ArialMT"><tspan y="644" x="183.29688 191.96088 198.63288 205.30487 207.96887 214.64087 221.31287 224.64887 231.32086 235.31687 241.98886 250.65287 253.31687 259.98887">Region growing</tspan></text>
<path transform="matrix(.71980676,0,0,.71980676,.35990338,.35990338)" stroke-width="1" stroke-linecap="butt" stroke-miterlimit="10" stroke-linejoin="miter" fill="none" stroke="#000000" d="M225 560V603.63"/>
<path transform="matrix(.71980676,0,0,.71980676,.35990338,.35990338)" d="M225 608.88 221.5 601.88 225 603.63 228.5 601.88 225 608.88Z"/>
<path transform="matrix(.71980676,0,0,.71980676,.35990338,.35990338)" stroke-width="1" stroke-linecap="butt" stroke-miterlimit="10" stroke-linejoin="miter" fill="none" stroke="#000000" d="M225 608.88 221.5 601.88 225 603.63 228.5 601.88 225 608.88Z"/>
<path transform="matrix(.71980676,0,0,.71980676,0,0)" d="M212 580H241V593H212Z" fill="#ffffff"/>
<text xml:space="preserve" transform="matrix(.71980676 0 0 .71980676 0 0)" font-size="11" font-family="Arial" font-weight="bold"><tspan y="590" x="211.53125 218.25225 226.19425 234.13625">TRUE</tspan></text>
<path transform="matrix(.71980676,0,0,.71980676,.35990338,.35990338)" d="M225 700 292.5 745 225 790 157.5 745 225 700Z" fill="#ffffff"/>
<path transform="matrix(.71980676,0,0,.71980676,.35990338,.35990338)" stroke-width="1" stroke-linecap="butt" stroke-miterlimit="10" stroke-linejoin="miter" fill="none" stroke="#000000" d="M225 700 292.5 745 225 790 157.5 745 225 700Z"/>
<text xml:space="preserve" transform="matrix(.71980676 0 0 .71980676 0 0)" font-size="12" font-family="ArialMT"><tspan y="735" x="192.79688 198.79688 205.46887 212.14087 218.81287 225.48487 229.48087 236.15287 242.82486 249.49686 252.16086">Topograhpic</tspan></text>
<text xml:space="preserve" transform="matrix(.71980676 0 0 .71980676 0 0)" font-size="12" font-family="ArialMT"><tspan y="749" x="171.79688 178.46887 181.13288 187.80487 193.80487 200.47687 203.81287 206.47687 213.14887 219.82086 223.15686 229.15686 235.82886 239.82486 243.82086 250.49286 256.49287 259.82887 262.49287 269.16487 275.83686">elevation correction,</tspan></text>
<text xml:space="preserve" transform="matrix(.71980676 0 0 .71980676 0 0)" font-size="12" font-family="ArialMT"><tspan y="764" x="197.46875 204.80075 212.80475 216.14075 219.47675 226.48474 233.49274 236.82874 243.50074 246.83673">TPI &#x003e;= 0.5</tspan></text>
<path transform="matrix(.71980676,0,0,.71980676,.35990338,.35990338)" stroke-width="1" stroke-linecap="butt" stroke-miterlimit="10" stroke-linejoin="miter" fill="none" stroke="#000000" d="M157.5 825H225.5L225.05 883.63"/>
<path transform="matrix(.71980676,0,0,.71980676,.35990338,.35990338)" d="M225.01 888.88 221.56 881.86 225.05 883.63 228.56 881.91 225.01 888.88Z"/>
<path transform="matrix(.71980676,0,0,.71980676,.35990338,.35990338)" stroke-width="1" stroke-linecap="butt" stroke-miterlimit="10" stroke-linejoin="miter" fill="none" stroke="#000000" d="M225.01 888.88 221.56 881.86 225.05 883.63 228.56 881.91 225.01 888.88Z"/>
<path transform="matrix(.71980676,0,0,.71980676,.35990338,.35990338)" d="M40.5 790H147C147.68944 790 148.37226 790.06729 149.04845 790.2017 149.72464 790.33627 150.38121 790.5354 151.01816 790.7992 151.65514 791.063 152.26024 791.3864 152.83348 791.7695 153.40673 792.15249 153.9371 792.58779 154.42462 793.07528 154.91213 793.56277 155.3474 794.0931 155.73043 794.6664 156.11345 795.23959 156.43688 795.84469 156.70072 796.4817 156.96456 797.11868 157.16373 797.77529 157.29824 798.4515 157.43274 799.1277 157.5 799.8105 157.5 800.5V849.5C157.5 850.1894 157.43274 850.87216 157.29824 851.5483 157.16373 852.2245 156.96456 852.88107 156.70072 853.51809 156.43688 854.155 156.11345 854.76016 155.73043 855.3334 155.3474 855.9067 154.91213 856.4371 154.42462 856.92459 153.9371 857.41207 153.40673 857.84738 152.83348 858.23037 152.26024 858.6134 151.65514 858.9368 151.01816 859.2006 150.38121 859.4645 149.72464 859.66366 149.04845 859.79818 148.37226 859.93276 147.68944 860 147 860H40.5C39.81056 860 39.127744 859.93276 38.451547 859.7982 37.775354 859.66366 37.11878 859.4645 36.48182 859.2006 35.84486 858.9368 35.239759 858.6134 34.66651 858.23037 34.09326 857.84738 33.562887 857.41207 33.07538 856.92459 32.58787 856.4371 32.1526 855.9067 31.769568 855.3334 31.386534 854.76016 31.063099 854.155 30.799262 853.5181 30.535424 852.8811 30.336255 852.22457 30.201752 851.54837 30.067248 850.87216 29.999999 850.1894 30 849.5V800.5C29.999999 799.8105 30.067248 799.1277 30.201752 798.4515 30.336255 797.77529 30.535424 797.11868 30.799262 796.4817 31.063099 795.84469 31.386534 795.23959 31.769566 794.6664 32.1526 794.0931 32.58787 793.56277 33.07538 793.07528 33.562887 792.58779 34.09326 792.1525 34.66651 791.76956 35.239759 791.3864 35.84486 791.063 36.48182 790.7992 37.11878 790.5354 37.775354 790.33627 38.451547 790.2017 39.127744 790.06729 39.81056 790 40.5 790Z" fill="#ffffff"/>
<path transform="matrix(.71980676,0,0,.71980676,.35990338,.35990338)" stroke-width="1" stroke-linecap="butt" stroke-miterlimit="4" stroke-linejoin="miter" fill="none" stroke="#000000" d="M40.5 790H147C147.68944 790 148.37226 790.06729 149.04845 790.2017 149.72464 790.33627 150.38121 790.5354 151.01816 790.7992 151.65514 791.063 152.26024 791.3864 152.83348 791.7695 153.40673 792.15249 153.9371 792.58779 154.42462 793.07528 154.91213 793.56277 155.3474 794.0931 155.73043 794.6664 156.11345 795.23959 156.43688 795.84469 156.70072 796.4817 156.96456 797.11868 157.16373 797.77529 157.29824 798.4515 157.43274 799.1277 157.5 799.8105 157.5 800.5V849.5C157.5 850.1894 157.43274 850.87216 157.29824 851.5483 157.16373 852.2245 156.96456 852.88107 156.70072 853.51809 156.43688 854.155 156.11345 854.76016 155.73043 855.3334 155.3474 855.9067 154.91213 856.4371 154.42462 856.92459 153.9371 857.41207 153.40673 857.84738 152.83348 858.23037 152.26024 858.6134 151.65514 858.9368 151.01816 859.2006 150.38121 859.4645 149.72464 859.66366 149.04845 859.79818 148.37226 859.93276 147.68944 860 147 860H40.5C39.81056 860 39.127744 859.93276 38.451547 859.7982 37.775354 859.66366 37.11878 859.4645 36.48182 859.2006 35.84486 858.9368 35.239759 858.6134 34.66651 858.23037 34.09326 857.84738 33.562887 857.41207 33.07538 856.92459 32.58787 856.4371 32.1526 855.9067 31.769568 855.3334 31.386534 854.76016 31.063099 854.155 30.799262 853.5181 30.535424 852.8811 30.336255 852.22457 30.201752 851.54837 30.067248 850.87216 29.999999 850.1894 30 849.5V800.5C29.999999 799.8105 30.067248 799.1277 30.201752 798.4515 30.336255 797.77529 30.535424 797.11868 30.799262 796.4817 31.063099 795.84469 31.386534 795.23959 31.769566 794.6664 32.1526 794.0931 32.58787 793.56277 33.07538 793.07528 33.562887 792.58779 34.09326 792.1525 34.66651 791.76956 35.239759 791.3864 35.84486 791.063 36.48182 790.7992 37.11878 790.5354 37.775354 790.33627 38.451547 790.2017 39.127744 790.06729 39.81056 790 40.5 790Z"/>
<text xml:space="preserve" transform="matrix(.71980676 0 0 .71980676 0 0)" font-size="12" font-family="ArialMT"><tspan y="808" x="41.96875 47.96875 54.64075 61.31275 64.64875 74.64475 81.31676 87.988758 93.988758 97.32475 103.32475 109.99675 112.66075 115.32475 121.32475 124.66075 133.32476 135.98876 139.32476">Too many cells with</tspan></text>
<text xml:space="preserve" transform="matrix(.71980676 0 0 .71980676 0 0)" font-size="12" font-family="ArialMT"><tspan y="822" x="52.625 59.297 61.961004 68.633 75.30501 81.977008 85.97301 89.309009 95.981 98.645008 105.317 108.653 111.989 115.325 121.996997 128.66899">higher ele. than</tspan></text>
<text xml:space="preserve" transform="matrix(.71980676 0 0 .71980676 0 0)" font-size="12" font-family="ArialMT"><tspan y="837" x="38.625 44.625 51.297 55.293 59.288999 65.961 72.632999 79.30499 85.97699 88.64099 95.31299 101.984989 107.984989 111.320987 114.65698 121.32898 127.32898 133.32898 135.99298 142.66498">surroundings, assign</tspan></text>
<text xml:space="preserve" transform="matrix(.71980676 0 0 .71980676 0 0)" font-size="12" font-family="ArialMT"><tspan y="851" x="34.96875 40.96875 47.64075 53.64075 60.31275 66.98476 73.65675 80.32875 84.32475 90.32475 93.66075 99.66075 102.32475 108.99675 114.99675 120.99675 124.33275 130.33275 137.00475 139.66875 146.34075">secondary class/value</tspan></text>
<path transform="matrix(.71980676,0,0,.71980676,.35990338,.35990338)" stroke-width="1" stroke-linecap="butt" stroke-miterlimit="10" stroke-linejoin="miter" fill="none" stroke="#000000" d="M157.5 745H94L93.79 783.63"/>
<path transform="matrix(.71980676,0,0,.71980676,.35990338,.35990338)" d="M93.76 788.88 90.3 781.86 93.79 783.63 97.3 781.9 93.76 788.88Z"/>
<path transform="matrix(.71980676,0,0,.71980676,.35990338,.35990338)" stroke-width="1" stroke-linecap="butt" stroke-miterlimit="10" stroke-linejoin="miter" fill="none" stroke="#000000" d="M93.76 788.88 90.3 781.86 93.79 783.63 97.3 781.9 93.76 788.88Z"/>
<path transform="matrix(.71980676,0,0,.71980676,0,0)" d="M90 740H119V753H90Z" fill="#ffffff"/>
<text xml:space="preserve" transform="matrix(.71980676 0 0 .71980676 0 0)" font-size="11" font-family="Arial" font-weight="bold"><tspan y="750" x="89.53125 96.25225 104.19425 112.13625">TRUE</tspan></text>
<path transform="matrix(.71980676,0,0,.71980676,.35990338,.35990338)" stroke-width="1" stroke-linecap="butt" stroke-miterlimit="10" stroke-linejoin="miter" fill="none" stroke="#000000" d="M292.5 745H354L353.79 783.63"/>
<path transform="matrix(.71980676,0,0,.71980676,.35990338,.35990338)" d="M353.76 788.88 350.3 781.86 353.79 783.63 357.3 781.9 353.76 788.88Z"/>
<path transform="matrix(.71980676,0,0,.71980676,.35990338,.35990338)" stroke-width="1" stroke-linecap="butt" stroke-miterlimit="10" stroke-linejoin="miter" fill="none" stroke="#000000" d="M353.76 788.88 350.3 781.86 353.79 783.63 357.3 781.9 353.76 788.88Z"/>
<path transform="matrix(.71980676,0,0,.71980676,0,0)" d="M329 740H364V753H329Z" fill="#ffffff"/>
<text xml:space="preserve" transform="matrix(.71980676 0 0 .71980676 0 0)" font-size="11" font-family="Arial" font-weight="bold"><tspan y="750" x="328.78126 334.89356 342.83555 349.55656 356.89356">FALSE</tspan></text>
<path transform="matrix(.71980676,0,0,.71980676,.35990338,.35990338)" stroke-width="1" stroke-linecap="butt" stroke-miterlimit="10" stroke-linejoin="miter" fill="none" stroke="#000000" d="M292.5 825H225.5L225.05 883.63"/>
<path transform="matrix(.71980676,0,0,.71980676,.35990338,.35990338)" d="M225.01 888.88 221.56 881.86 225.05 883.63 228.56 881.91 225.01 888.88Z"/>
<path transform="matrix(.71980676,0,0,.71980676,.35990338,.35990338)" stroke-width="1" stroke-linecap="butt" stroke-miterlimit="10" stroke-linejoin="miter" fill="none" stroke="#000000" d="M225.01 888.88 221.56 881.86 225.05 883.63 228.56 881.91 225.01 888.88Z"/>
<path transform="matrix(.71980676,0,0,.71980676,.35990338,.35990338)" d="M303 790H409.5C410.18943 790 410.87223 790.06729 411.5484 790.2017 412.22459 790.33627 412.88117 790.5354 413.5181 790.7992 414.1551 791.063 414.7602 791.3864 415.3334 791.7695 415.90669 792.15249 416.43708 792.58779 416.9246 793.07528 417.41209 793.56277 417.84733 794.0931 418.23036 794.6664 418.61338 795.23959 418.93684 795.84469 419.20069 796.4817 419.46455 797.11868 419.66374 797.77529 419.79823 798.4515 419.93275 799.1277 420 799.8105 420 800.5V849.5C420 850.1894 419.93275 850.87216 419.79823 851.5483 419.66374 852.2245 419.46455 852.88107 419.20069 853.51809 418.93684 854.155 418.61338 854.76016 418.23036 855.3334 417.84733 855.9067 417.41209 856.4371 416.9246 856.92459 416.43708 857.41207 415.9067 857.84738 415.33348 858.23037 414.7602 858.6134 414.1551 858.9368 413.51814 859.2006 412.88117 859.4645 412.2246 859.66366 411.54844 859.79818 410.87226 859.93276 410.18943 860 409.5 860H303C302.31056 860 301.62773 859.93276 300.95155 859.7982 300.2753 859.66366 299.6187 859.4645 298.98179 859.2006 298.34483 858.9368 297.73973 858.6134 297.16648 858.23037 296.59324 857.84738 296.06288 857.41207 295.57536 856.92459 295.08784 856.4371 294.65257 855.9067 294.2695 855.3334 293.88648 854.76016 293.56306 854.155 293.29924 853.5181 293.0354 852.8811 292.8362 852.22457 292.70173 851.54837 292.56724 850.87216 292.49998 850.1894 292.5 849.5V800.5C292.49998 799.8105 292.56724 799.1277 292.70173 798.4515 292.8362 797.77529 293.0354 797.11868 293.29924 796.4817 293.56306 795.84469 293.88648 795.23959 294.2695 794.6664 294.65257 794.0931 295.08784 793.56277 295.57536 793.07528 296.06288 792.58779 296.59324 792.1525 297.16648 791.76956 297.73973 791.3864 298.34483 791.063 298.98179 790.7992 299.6187 790.5354 300.2753 790.33627 300.95155 790.2017 301.62773 790.06729 302.31056 790 303 790Z" fill="#ffffff"/>
<path transform="matrix(.71980676,0,0,.71980676,.35990338,.35990338)" stroke-width="1" stroke-linecap="butt" stroke-miterlimit="4" stroke-linejoin="miter" fill="none" stroke="#000000" d="M303 790H409.5C410.18943 790 410.87223 790.06729 411.5484 790.2017 412.22459 790.33627 412.88117 790.5354 413.5181 790.7992 414.1551 791.063 414.7602 791.3864 415.3334 791.7695 415.90669 792.15249 416.43708 792.58779 416.9246 793.07528 417.41209 793.56277 417.84733 794.0931 418.23036 794.6664 418.61338 795.23959 418.93684 795.84469 419.20069 796.4817 419.46455 797.11868 419.66374 797.77529 419.79823 798.4515 419.93275 799.1277 420 799.8105 420 800.5V849.5C420 850.1894 419.93275 850.87216 419.79823 851.5483 419.66374 852.2245 419.46455 852.88107 419.20069 853.51809 418.93684 854.155 418.61338 854.76016 418.23036 855.3334 417.84733 855.9067 417.41209 856.4371 416.9246 856.92459 416.43708 857.41207 415.9067 857.84738 415.33348 858.23037 414.7602 858.6134 414.1551 858.9368 413.51814 859.2006 412.88117 859.4645 412.2246 859.66366 411.54844 859.79818 410.87226 859.93276 410.18943 860 409.5 860H303C302.31056 860 301.62773 859.93276 300.95155 859.7982 300.2753 859.66366 299.6187 859.4645 298.98179 859.2006 298.34483 858.9368 297.73973 858.6134 297.16648 858.23037 296.59324 857.84738 296.06288 857.41207 295.57536 856.92459 295.08784 856.4371 294.65257 855.9067 294.2695 855.3334 293.88648 854.76016 293.56306 854.155 293.29924 853.5181 293.0354 852.8811 292.8362 852.22457 292.70173 851.54837 292.56724 850.87216 292.49998 850.1894 292.5 849.5V800.5C292.49998 799.8105 292.56724 799.1277 292.70173 798.4515 292.8362 797.77529 293.0354 797.11868 293.29924 796.4817 293.56306 795.84469 293.88648 795.23959 294.2695 794.6664 294.65257 794.0931 295.08784 793.56277 295.57536 793.07528 296.06288 792.58779 296.59324 792.1525 297.16648 791.76956 297.73973 791.3864 298.34483 791.063 298.98179 790.7992 299.6187 790.5354 300.2753 790.33627 300.95155 790.2017 301.62773 790.06729 302.31056 790 303 790Z"/>
<text xml:space="preserve" transform="matrix(.71980676 0 0 .71980676 0 0)" font-size="12" font-family="ArialMT"><tspan y="815" x="295.96876 304.63276 311.30476 313.96876 316.63276 322.63276 325.96876 334.63276 337.29676 340.63276 347.30476 349.96876 356.64076 359.97676 366.64875 372.64875 378.64875 385.32075 391.99275 395.32875 402.00074 408.67274 411.33674">Cells within acceptable</tspan></text>
<text xml:space="preserve" transform="matrix(.71980676 0 0 .71980676 0 0)" font-size="12" font-family="ArialMT"><tspan y="829" x="309.625 316.297 318.961 325.633 328.969 332.305 336.301 342.973 349.645 356.317 362.98899 366.32499 369.66099 376.33299 382.33299 388.33299 390.99699 397.66899">ele. range, assign</tspan></text>
<text xml:space="preserve" transform="matrix(.71980676 0 0 .71980676 0 0)" font-size="12" font-family="ArialMT"><tspan y="844" x="305.64064 312.31263 316.30863 318.97264 328.96864 335.64064 339.63664 345.63664 348.97264 354.97264 357.63664 364.30863 370.30863 376.30863 379.64463 385.64463 392.31663 394.98063 401.65263">primary class/value</tspan></text>
<path transform="matrix(.71980676,0,0,.71980676,.35990338,.35990338)" stroke-width="1" stroke-linecap="butt" stroke-miterlimit="10" stroke-linejoin="miter" fill="none" stroke="#000000" d="M225 950 225.5 971 225.06 1018.63"/>
<path transform="matrix(.71980676,0,0,.71980676,.35990338,.35990338)" d="M225.01 1023.88 221.58 1016.85 225.06 1018.63 228.58 1016.91 225.01 1023.88Z"/>
<path transform="matrix(.71980676,0,0,.71980676,.35990338,.35990338)" stroke-width="1" stroke-linecap="butt" stroke-miterlimit="10" stroke-linejoin="miter" fill="none" stroke="#000000" d="M225.01 1023.88 221.58 1016.85 225.06 1018.63 228.58 1016.91 225.01 1023.88Z"/>
<path transform="matrix(.71980676,0,0,.71980676,.35990338,.35990338)" d="M225 970 301.25 1025 225 1080 148.75 1025 225 970Z" fill="#ffffff"/>
<path transform="matrix(.71980676,0,0,.71980676,.35990338,.35990338)" stroke-width="1" stroke-linecap="butt" stroke-miterlimit="10" stroke-linejoin="miter" fill="none" stroke="#000000" d="M225 970 301.25 1025 225 1080 148.75 1025 225 970Z"/>
<text xml:space="preserve" transform="matrix(.71980676 0 0 .71980676 0 0)" font-size="12" font-family="ArialMT"><tspan y="1015" x="191.46875 199.47275 206.14475 216.14075 222.81275 226.14875 232.82074 239.49274 246.16474 249.50074">Same depth</tspan></text>
<text xml:space="preserve" transform="matrix(.71980676 0 0 .71980676 0 0)" font-size="12" font-family="ArialMT"><tspan y="1015" x="256.17274"> </tspan></text>
<text xml:space="preserve" transform="matrix(.71980676 0 0 .71980676 0 0)" font-size="12" font-family="ArialMT"><tspan y="1029" x="197.125 203.797 210.469 217.14099 223.81299 227.80899 234.48099 241.15299 244.48899">quadrants</tspan></text>
<text xml:space="preserve" transform="matrix(.71980676 0 0 .71980676 0 0)" font-size="12" font-family="ArialMT"><tspan y="1029" x="250.48899"> </tspan></text>
<text xml:space="preserve" transform="matrix(.71980676 0 0 .71980676 0 0)" font-size="12" font-family="ArialMT"><tspan y="1044" x="194.46875 201.14075 205.13675 211.80875 217.80875 224.48075 230.48075 236.48075 243.15274 249.82474">processed?</tspan></text>
<path transform="matrix(.71980676,0,0,.71980676,.35990338,.35990338)" stroke-width="1" stroke-linecap="butt" stroke-miterlimit="10" stroke-linejoin="miter" fill="none" stroke="#000000" d="M148.75 1025H20V305H151.13"/>
<path transform="matrix(.71980676,0,0,.71980676,.35990338,.35990338)" d="M156.38 305 149.38 308.5 151.13 305 149.38 301.5 156.38 305Z"/>
<path transform="matrix(.71980676,0,0,.71980676,.35990338,.35990338)" stroke-width="1" stroke-linecap="butt" stroke-miterlimit="10" stroke-linejoin="miter" fill="none" stroke="#000000" d="M156.38 305 149.38 308.5 151.13 305 149.38 301.5 156.38 305Z"/>
<path transform="matrix(.71980676,0,0,.71980676,0,0)" d="M4 655H39V668H4Z" fill="#ffffff"/>
<text xml:space="preserve" transform="matrix(.71980676 0 0 .71980676 0 0)" font-size="11" font-family="Arial" font-weight="bold"><tspan y="665" x="3.78125 9.893555 17.835556 24.556557 31.893559">FALSE</tspan></text>
<path transform="matrix(.71980676,0,0,.71980676,.35990338,.35990338)" d="M165 950 185 890H285L265 950H165Z" fill="#ffffff"/>
<path transform="matrix(.71980676,0,0,.71980676,.35990338,.35990338)" stroke-width="1" stroke-linecap="butt" stroke-miterlimit="10" stroke-linejoin="miter" fill="none" stroke="#000000" d="M165 950 185 890H285L265 950H165Z"/>
<text xml:space="preserve" transform="matrix(.71980676 0 0 .71980676 0 0)" font-size="12" font-family="ArialMT"><tspan y="910" x="188.64063 191.97663 201.97263 208.64463 215.31662 218.65262 225.32462 228.66062 235.33261 237.99662 244.66861 251.3406 255.33661">Impute binary</tspan></text>
<text xml:space="preserve" transform="matrix(.71980676 0 0 .71980676 0 0)" font-size="12" font-family="ArialMT"><tspan y="924" x="182.29688 188.29688 194.96887 201.64087 211.63687 218.30887 224.98087 228.31687 234.98886 238.32486 240.98886 247.66086 254.33286 257.66886 261.00486">segmentation to</tspan></text>
<text xml:space="preserve" transform="matrix(.71980676 0 0 .71980676 0 0)" font-size="12" font-family="ArialMT"><tspan y="939" x="191.29688 197.96887 204.64087 207.97687 214.64887 221.32086 224.65686 227.99286 231.98886 238.66086 244.66086 247.99686 254.66886">output raster</tspan></text>
</g>
</svg>
