<svg xmlns="http://www.w3.org/2000/svg" xmlns:xlink="http://www.w3.org/1999/xlink" version="1.1" width="534pt" height="672pt" viewBox="0 0 534 672">
<defs>
<clipPath id="clip_0">
<path transform="matrix(.24,0,0,.24,0,0)" d="M0 0H2225V2799.9664H0Z" fill-rule="evenodd"/>
</clipPath>
<clipPath id="clip_1">
<path transform="matrix(.24,0,0,.24,0,0)" d="M0 0H2225V2793.977H0Z" fill-rule="evenodd"/>
</clipPath>
</defs>
<g clip-path="url(#clip_0)">
<path transform="matrix(.71870788,0,0,.71870788,0,0)" d="M0 0H743V935H0Z" fill="#ffffff"/>
</g>
<g clip-path="url(#clip_1)">
<path transform="matrix(.71870788,0,0,.71870788,.35935394,.35935394)" stroke-width="1" stroke-linecap="butt" stroke-miterlimit="10" stroke-linejoin="miter" fill="none" stroke="#000000" d="M61 61V81 71 84.63"/>
<path transform="matrix(.71870788,0,0,.71870788,.35935394,.35935394)" d="M61 89.88 57.5 82.88 61 84.63 64.5 82.88 61 89.88Z"/>
<path transform="matrix(.71870788,0,0,.71870788,.35935394,.35935394)" stroke-width="1" stroke-linecap="butt" stroke-miterlimit="10" stroke-linejoin="miter" fill="none" stroke="#000000" d="M61 89.88 57.5 82.88 61 84.63 64.5 82.88 61 89.88Z"/>
<path transform="matrix(.71870788,0,0,.71870788,.35935394,.35935394)" d="M1 1H121V61H1Z" fill="#ffffff"/>
<path transform="matrix(.71870788,0,0,.71870788,.35935394,.35935394)" stroke-width="1" stroke-linecap="butt" stroke-miterlimit="4" stroke-linejoin="miter" fill="none" stroke="#000000" d="M1 1H121V61H1Z"/>
<text xml:space="preserve" transform="matrix(.71870788 0 0 .71870788 0 0)" font-size="12" font-family="ArialMT"><tspan y="28" x="32.3125 35.6485 42.3205 44.9845 48.320505 50.984506 57.656507 60.320508 63.65651 66.99251 69.65651 76.32851 83.0005">Initial flood</tspan></text>
<text xml:space="preserve" transform="matrix(.71870788 0 0 .71870788 0 0)" font-size="12" font-family="ArialMT"><tspan y="43" x="24.96875 30.96875 37.64075 44.31275 54.308755 60.980756 67.652759 70.988758 77.66075 80.99675 83.66075 90.33275">segmentation</tspan></text>
<path transform="matrix(.71870788,0,0,.71870788,.35935394,.35935394)" stroke-width="1" stroke-linecap="butt" stroke-miterlimit="10" stroke-linejoin="miter" fill="none" stroke="#000000" d="M491 61V284.63"/>
<path transform="matrix(.71870788,0,0,.71870788,.35935394,.35935394)" d="M491 289.88 487.5 282.88 491 284.63 494.5 282.88 491 289.88Z"/>
<path transform="matrix(.71870788,0,0,.71870788,.35935394,.35935394)" stroke-width="1" stroke-linecap="butt" stroke-miterlimit="10" stroke-linejoin="miter" fill="none" stroke="#000000" d="M491 289.88 487.5 282.88 491 284.63 494.5 282.88 491 289.88Z"/>
<path transform="matrix(.71870788,0,0,.71870788,.35935394,.35935394)" d="M431 1H551V61H431Z" fill="#ffffff"/>
<path transform="matrix(.71870788,0,0,.71870788,.35935394,.35935394)" stroke-width="1" stroke-linecap="butt" stroke-miterlimit="4" stroke-linejoin="miter" fill="none" stroke="#000000" d="M431 1H551V61H431Z"/>
<text xml:space="preserve" transform="matrix(.71870788 0 0 .71870788 0 0)" font-size="12" font-family="ArialMT"><tspan y="35" x="445.29689 453.30088 456.63688 460.63288 467.30488 473.97688 483.97288 487.30888 493.98088 497.97688 504.64888 511.32087 517.32089 523.99288 530.66488">Stream branches</tspan></text>
<path transform="matrix(.71870788,0,0,.71870788,.35935394,.35935394)" stroke-width="1" stroke-linecap="butt" stroke-miterlimit="10" stroke-linejoin="miter" fill="none" stroke="#000000" d="M221 61V81 71 84.63"/>
<path transform="matrix(.71870788,0,0,.71870788,.35935394,.35935394)" d="M221 89.88 217.5 82.88 221 84.63 224.5 82.88 221 89.88Z"/>
<path transform="matrix(.71870788,0,0,.71870788,.35935394,.35935394)" stroke-width="1" stroke-linecap="butt" stroke-miterlimit="10" stroke-linejoin="miter" fill="none" stroke="#000000" d="M221 89.88 217.5 82.88 221 84.63 224.5 82.88 221 89.88Z"/>
<path transform="matrix(.71870788,0,0,.71870788,.35935394,.35935394)" d="M161 1H281V61H161Z" fill="#ffffff"/>
<path transform="matrix(.71870788,0,0,.71870788,.35935394,.35935394)" stroke-width="1" stroke-linecap="butt" stroke-miterlimit="4" stroke-linejoin="miter" fill="none" stroke="#000000" d="M161 1H281V61H161Z"/>
<text xml:space="preserve" transform="matrix(.71870788 0 0 .71870788 0 0)" font-size="12" font-family="ArialMT"><tspan y="35" x="207.65625 216.32025 224.32425">DEM</tspan></text>
<path transform="matrix(.71870788,0,0,.71870788,.35935394,.35935394)" stroke-width="1" stroke-linecap="butt" stroke-miterlimit="10" stroke-linejoin="miter" fill="none" stroke="#000000" d="M221 151V176H141V194.63"/>
<path transform="matrix(.71870788,0,0,.71870788,.35935394,.35935394)" d="M141 199.88 137.5 192.88 141 194.63 144.5 192.88 141 199.88Z"/>
<path transform="matrix(.71870788,0,0,.71870788,.35935394,.35935394)" stroke-width="1" stroke-linecap="butt" stroke-miterlimit="10" stroke-linejoin="miter" fill="none" stroke="#000000" d="M141 199.88 137.5 192.88 141 194.63 144.5 192.88 141 199.88Z"/>
<path transform="matrix(.71870788,0,0,.71870788,.35935394,.35935394)" d="M161 91H281V151H161Z" fill="#ffffff"/>
<path transform="matrix(.71870788,0,0,.71870788,.35935394,.35935394)" stroke-width="1" stroke-linecap="butt" stroke-miterlimit="4" stroke-linejoin="miter" fill="none" stroke="#000000" d="M161 91H281V151H161Z"/>
<text xml:space="preserve" transform="matrix(.71870788 0 0 .71870788 0 0)" font-size="12" font-family="ArialMT"><tspan y="118" x="177.625 185.629 192.301 194.965 200.965 207.637 214.30899 220.98099 224.31699 230.31699 236.98899 243.66098 246.99698 253.66898 260.34098">Polygon contour</tspan></text>
<text xml:space="preserve" transform="matrix(.71870788 0 0 .71870788 0 0)" font-size="12" font-family="ArialMT"><tspan y="133" x="196.96875 203.64075 206.30475 212.97675 218.97675 225.64875 228.98474 231.64875 238.32074">elevation</tspan></text>
<path transform="matrix(.71870788,0,0,.71870788,.35935394,.35935394)" stroke-width="1" stroke-linecap="butt" stroke-miterlimit="10" stroke-linejoin="miter" fill="none" stroke="#000000" d="M61 151V176H141V194.63"/>
<path transform="matrix(.71870788,0,0,.71870788,.35935394,.35935394)" d="M141 199.88 137.5 192.88 141 194.63 144.5 192.88 141 199.88Z"/>
<path transform="matrix(.71870788,0,0,.71870788,.35935394,.35935394)" stroke-width="1" stroke-linecap="butt" stroke-miterlimit="10" stroke-linejoin="miter" fill="none" stroke="#000000" d="M141 199.88 137.5 192.88 141 194.63 144.5 192.88 141 199.88Z"/>
<path transform="matrix(.71870788,0,0,.71870788,.35935394,.35935394)" d="M1 91H121V151H1Z" fill="#ffffff"/>
<path transform="matrix(.71870788,0,0,.71870788,.35935394,.35935394)" stroke-width="1" stroke-linecap="butt" stroke-miterlimit="4" stroke-linejoin="miter" fill="none" stroke="#000000" d="M1 91H121V151H1Z"/>
<text xml:space="preserve" transform="matrix(.71870788 0 0 .71870788 0 0)" font-size="12" font-family="ArialMT"><tspan y="125" x="26.3125 33.654298 40.326299 46.326299 49.6623 56.3343 60.3303 63.666299 67.0023 69.6663 76.3383 83.0103 89.6823">Vector floods</tspan></text>
<path transform="matrix(.71870788,0,0,.71870788,.35935394,.35935394)" stroke-width="1" stroke-linecap="butt" stroke-miterlimit="10" stroke-linejoin="miter" fill="none" stroke="#000000" d="M141 261V281 271 284.63"/>
<path transform="matrix(.71870788,0,0,.71870788,.35935394,.35935394)" d="M141 289.88 137.5 282.88 141 284.63 144.5 282.88 141 289.88Z"/>
<path transform="matrix(.71870788,0,0,.71870788,.35935394,.35935394)" stroke-width="1" stroke-linecap="butt" stroke-miterlimit="10" stroke-linejoin="miter" fill="none" stroke="#000000" d="M141 289.88 137.5 282.88 141 284.63 144.5 282.88 141 289.88Z"/>
<path transform="matrix(.71870788,0,0,.71870788,.35935394,.35935394)" d="M81 201H201V261H81Z" fill="#ffffff"/>
<path transform="matrix(.71870788,0,0,.71870788,.35935394,.35935394)" stroke-width="1" stroke-linecap="butt" stroke-miterlimit="4" stroke-linejoin="miter" fill="none" stroke="#000000" d="M81 201H201V261H81Z"/>
<text xml:space="preserve" transform="matrix(.71870788 0 0 .71870788 0 0)" font-size="12" font-family="ArialMT"><tspan y="228" x="85.953128 89.28912 95.96112 104.62512 107.96112 114.63312 121.305118 124.64111 133.30512 139.97711 146.64911 153.3211 156.6571 159.9931 162.6571 169.3291 176.0011 182.6731 189.3451">IoU between flooded</tspan></text>
<text xml:space="preserve" transform="matrix(.71870788 0 0 .71870788 0 0)" font-size="12" font-family="ArialMT"><tspan y="243" x="92.625 99.297 103.293 109.965 116.63699 119.97299 126.64499 133.31699 139.98899 143.32498 149.32498 155.99698 162.66898 166.00498 172.67697 179.34897 183.34497">area and contours</tspan></text>
<path transform="matrix(.71870788,0,0,.71870788,.35935394,.35935394)" stroke-width="1" stroke-linecap="butt" stroke-miterlimit="10" stroke-linejoin="miter" fill="none" stroke="#000000" d="M211 356H414.63"/>
<path transform="matrix(.71870788,0,0,.71870788,.35935394,.35935394)" d="M419.88 356 412.88 359.5 414.63 356 412.88 352.5 419.88 356Z"/>
<path transform="matrix(.71870788,0,0,.71870788,.35935394,.35935394)" stroke-width="1" stroke-linecap="butt" stroke-miterlimit="10" stroke-linejoin="miter" fill="none" stroke="#000000" d="M419.88 356 412.88 359.5 414.63 356 412.88 352.5 419.88 356Z"/>
<path transform="matrix(.71870788,0,0,.71870788,0,0)" d="M288 351H310V364H288Z" fill="#ffffff"/>
<text xml:space="preserve" transform="matrix(.71870788 0 0 .71870788 0 0)" font-size="11" font-family="ArialMT"><tspan y="361" x="287.5 294.837 302.174">YES</tspan></text>
<path transform="matrix(.71870788,0,0,.71870788,.35935394,.35935394)" stroke-width="1" stroke-linecap="butt" stroke-miterlimit="10" stroke-linejoin="miter" fill="none" stroke="#000000" d="M141 421V474.63"/>
<path transform="matrix(.71870788,0,0,.71870788,.35935394,.35935394)" d="M141 479.88 137.5 472.88 141 474.63 144.5 472.88 141 479.88Z"/>
<path transform="matrix(.71870788,0,0,.71870788,.35935394,.35935394)" stroke-width="1" stroke-linecap="butt" stroke-miterlimit="10" stroke-linejoin="miter" fill="none" stroke="#000000" d="M141 479.88 137.5 472.88 141 474.63 144.5 472.88 141 479.88Z"/>
<path transform="matrix(.71870788,0,0,.71870788,0,0)" d="M134 441H151V454H134Z" fill="#ffffff"/>
<text xml:space="preserve" transform="matrix(.71870788 0 0 .71870788 0 0)" font-size="11" font-family="ArialMT"><tspan y="451" x="134.25 142.192">NO</tspan></text>
<path transform="matrix(.71870788,0,0,.71870788,.35935394,.35935394)" d="M141 291 211 356 141 421 71 356 141 291Z" fill="#ffffff"/>
<path transform="matrix(.71870788,0,0,.71870788,.35935394,.35935394)" stroke-width="1" stroke-linecap="butt" stroke-miterlimit="10" stroke-linejoin="miter" fill="none" stroke="#000000" d="M141 291 211 356 141 421 71 356 141 291Z"/>
<text xml:space="preserve" transform="matrix(.71870788 0 0 .71870788 0 0)" font-size="12" font-family="ArialMT"><tspan y="339" x="107.640628 116.30463 122.97662 129.64862 135.64862 138.98462 145.65662 152.32862 158.32862 161.66461 165.00061 168.33661 171.00061">Does best fit</tspan></text>
<text xml:space="preserve" transform="matrix(.71870788 0 0 .71870788 0 0)" font-size="12" font-family="ArialMT"><tspan y="353" x="121.640628 128.31262 134.31262 140.31262 146.98462 153.65662">exceed</tspan></text>
<text xml:space="preserve" transform="matrix(.71870788 0 0 .71870788 0 0)" font-size="12" font-family="ArialMT"><tspan y="368" x="100.3125 103.6485 112.3125 118.9845 122.320499 125.656497 128.3205 138.3165 144.9885 150.9885 154.3245 156.9885 163.66049 166.3245 169.66049 172.3245 178.99649">two times initial</tspan></text>
<text xml:space="preserve" transform="matrix(.71870788 0 0 .71870788 0 0)" font-size="12" font-family="ArialMT"><tspan y="382" x="110.96875 114.30475 116.96875 123.64075 130.31275 136.98474 140.32074 146.99274 150.98874 157.66074 164.33274">flood area?</tspan></text>
<path transform="matrix(.71870788,0,0,.71870788,.35935394,.35935394)" stroke-width="1" stroke-linecap="butt" stroke-miterlimit="10" stroke-linejoin="miter" fill="none" stroke="#000000" d="M491 421V474.63"/>
<path transform="matrix(.71870788,0,0,.71870788,.35935394,.35935394)" d="M491 479.88 487.5 472.88 491 474.63 494.5 472.88 491 479.88Z"/>
<path transform="matrix(.71870788,0,0,.71870788,.35935394,.35935394)" stroke-width="1" stroke-linecap="butt" stroke-miterlimit="10" stroke-linejoin="miter" fill="none" stroke="#000000" d="M491 479.88 487.5 472.88 491 474.63 494.5 472.88 491 479.88Z"/>
<path transform="matrix(.71870788,0,0,.71870788,0,0)" d="M483 447H505V460H483Z" fill="#ffffff"/>
<text xml:space="preserve" transform="matrix(.71870788 0 0 .71870788 0 0)" font-size="11" font-family="ArialMT"><tspan y="457" x="482.5 489.837 497.174">YES</tspan></text>
<path transform="matrix(.71870788,0,0,.71870788,.35935394,.35935394)" stroke-width="1" stroke-linecap="butt" stroke-miterlimit="10" stroke-linejoin="miter" fill="none" stroke="#000000" d="M561 356H614.63"/>
<path transform="matrix(.71870788,0,0,.71870788,.35935394,.35935394)" d="M619.88 356 612.88 359.5 614.63 356 612.88 352.5 619.88 356Z"/>
<path transform="matrix(.71870788,0,0,.71870788,.35935394,.35935394)" stroke-width="1" stroke-linecap="butt" stroke-miterlimit="10" stroke-linejoin="miter" fill="none" stroke="#000000" d="M619.88 356 612.88 359.5 614.63 356 612.88 352.5 619.88 356Z"/>
<path transform="matrix(.71870788,0,0,.71870788,0,0)" d="M584 351H601V364H584Z" fill="#ffffff"/>
<text xml:space="preserve" transform="matrix(.71870788 0 0 .71870788 0 0)" font-size="11" font-family="ArialMT"><tspan y="361" x="584.25 592.192">NO</tspan></text>
<path transform="matrix(.71870788,0,0,.71870788,.35935394,.35935394)" d="M491 291 561 356 491 421 421 356 491 291Z" fill="#ffffff"/>
<path transform="matrix(.71870788,0,0,.71870788,.35935394,.35935394)" stroke-width="1" stroke-linecap="butt" stroke-miterlimit="10" stroke-linejoin="miter" fill="none" stroke="#000000" d="M491 291 561 356 491 421 421 356 491 291Z"/>
<text xml:space="preserve" transform="matrix(.71870788 0 0 .71870788 0 0)" font-size="12" font-family="ArialMT"><tspan y="353" x="448.625 457.289 463.961 470.633 476.633 479.969 483.305 485.969 492.641 499.313 505.985 509.32099 515.993 519.98898 526.66098">Does flood area</tspan></text>
<text xml:space="preserve" transform="matrix(.71870788 0 0 .71870788 0 0)" font-size="12" font-family="ArialMT"><tspan y="368" x="439.96876 442.63276 449.30476 452.64076 459.31275 463.30876 469.30876 475.98075 481.98075 485.31675 488.65275 495.32475 498.66075 505.33274 509.32875 516.00076 522.6727 528.6727 535.3447">intersect a branch?</tspan></text>
<path transform="matrix(.71870788,0,0,.71870788,.35935394,.35935394)" stroke-width="1" stroke-linecap="butt" stroke-miterlimit="10" stroke-linejoin="miter" fill="none" stroke="#000000" d="M491 541V561H411V574.63"/>
<path transform="matrix(.71870788,0,0,.71870788,.35935394,.35935394)" d="M411 579.88 407.5 572.88 411 574.63 414.5 572.88 411 579.88Z"/>
<path transform="matrix(.71870788,0,0,.71870788,.35935394,.35935394)" stroke-width="1" stroke-linecap="butt" stroke-miterlimit="10" stroke-linejoin="miter" fill="none" stroke="#000000" d="M411 579.88 407.5 572.88 411 574.63 414.5 572.88 411 579.88Z"/>
<path transform="matrix(.71870788,0,0,.71870788,.35935394,.35935394)" stroke-width="1" stroke-linecap="butt" stroke-miterlimit="10" stroke-linejoin="miter" fill="none" stroke="#000000" d="M491 541V561H571V574.63"/>
<path transform="matrix(.71870788,0,0,.71870788,.35935394,.35935394)" d="M571 579.88 567.5 572.88 571 574.63 574.5 572.88 571 579.88Z"/>
<path transform="matrix(.71870788,0,0,.71870788,.35935394,.35935394)" stroke-width="1" stroke-linecap="butt" stroke-miterlimit="10" stroke-linejoin="miter" fill="none" stroke="#000000" d="M571 579.88 567.5 572.88 571 574.63 574.5 572.88 571 579.88Z"/>
<path transform="matrix(.71870788,0,0,.71870788,.35935394,.35935394)" d="M431 481H551V541H431Z" fill="#ffffff"/>
<path transform="matrix(.71870788,0,0,.71870788,.35935394,.35935394)" stroke-width="1" stroke-linecap="butt" stroke-miterlimit="4" stroke-linejoin="miter" fill="none" stroke="#000000" d="M431 481H551V541H431Z"/>
<text xml:space="preserve" transform="matrix(.71870788 0 0 .71870788 0 0)" font-size="12" font-family="ArialMT"><tspan y="501" x="438.29689 445.62889 448.29289 454.96488 461.63688 464.97288 467.63688 474.30888 480.98088 487.65287 494.32487 500.32487 503.66087 506.99687 512.9968 516.3328 520.3288 527.0008 533.6728">Find longest stream</tspan></text>
<text xml:space="preserve" transform="matrix(.71870788 0 0 .71870788 0 0)" font-size="12" font-family="ArialMT"><tspan y="515" x="449.29689 455.96888 459.96488 466.63688 473.30888 479.30888 485.98088 489.31687 495.98887 502.66087 509.33287 512.6689 519.3409 526.0129">branch and end</tspan></text>
<text xml:space="preserve" transform="matrix(.71870788 0 0 .71870788 0 0)" font-size="12" font-family="ArialMT"><tspan y="530" x="474.65626 480.65626 487.32826 491.32426 494.66026 501.33226">vertex</tspan></text>
<path transform="matrix(.71870788,0,0,.71870788,.35935394,.35935394)" d="M621 326H741V386H621Z" fill="#ffffff"/>
<path transform="matrix(.71870788,0,0,.71870788,.35935394,.35935394)" stroke-width="1" stroke-linecap="butt" stroke-miterlimit="4" stroke-linejoin="miter" fill="none" stroke="#000000" d="M621 326H741V386H621Z"/>
<text xml:space="preserve" transform="matrix(.71870788 0 0 .71870788 0 0)" font-size="12" font-family="ArialMT"><tspan y="346" x="628.625 637.289 643.961 646.625 653.297 656.633 663.305 666.641 669.977 672.641 679.313 685.985 692.657 695.993 699.329 706.001 712.673 716.009 722.68099 726.67697">Delete flood feature</tspan></text>
<text xml:space="preserve" transform="matrix(.71870788 0 0 .71870788 0 0)" font-size="12" font-family="ArialMT"><tspan y="360" x="675.65628 682.32827">or</tspan></text>
<text xml:space="preserve" transform="matrix(.71870788 0 0 .71870788 0 0)" font-size="12" font-family="ArialMT"><tspan y="375" x="627.2969 635.3009 641.3009 647.3009 649.9649 656.6369 663.3089 666.6449 673.3164 681.32046 687.99246 695.99649 704.0005 707.3365 713.3365 716.0005 722.6725 728.6725">Assign FALSE class</tspan></text>
<path transform="matrix(.71870788,0,0,.71870788,.35935394,.35935394)" stroke-width="1" stroke-linecap="butt" stroke-miterlimit="10" stroke-linejoin="miter" fill="none" stroke="#000000" d="M411 641V666H491V684.63"/>
<path transform="matrix(.71870788,0,0,.71870788,.35935394,.35935394)" d="M491 689.88 487.5 682.88 491 684.63 494.5 682.88 491 689.88Z"/>
<path transform="matrix(.71870788,0,0,.71870788,.35935394,.35935394)" stroke-width="1" stroke-linecap="butt" stroke-miterlimit="10" stroke-linejoin="miter" fill="none" stroke="#000000" d="M491 689.88 487.5 682.88 491 684.63 494.5 682.88 491 689.88Z"/>
<path transform="matrix(.71870788,0,0,.71870788,.35935394,.35935394)" d="M351 581H471V641H351Z" fill="#ffffff"/>
<path transform="matrix(.71870788,0,0,.71870788,.35935394,.35935394)" stroke-width="1" stroke-linecap="butt" stroke-miterlimit="4" stroke-linejoin="miter" fill="none" stroke="#000000" d="M351 581H471V641H351Z"/>
<text xml:space="preserve" transform="matrix(.71870788 0 0 .71870788 0 0)" font-size="12" font-family="ArialMT"><tspan y="608" x="352.96876 361.63276 365.62876 372.30076 378.97276 382.30876 388.98075 392.31675 398.98875 401.65275 407.65275 410.98875 417.66075 424.33274 430.33274 437.00474 441.00074 444.33674 448.33274 455.00474 465.00074">Create distance-from-</tspan></text>
<text xml:space="preserve" transform="matrix(.71870788 0 0 .71870788 0 0)" font-size="12" font-family="ArialMT"><tspan y="623" x="369.3125 375.9845 382.6565 389.3285 393.3245 399.3245 405.9965 409.9925 413.3285 420.0005 426.0005 429.3365 439.3325 446.0045">end-vertex map</tspan></text>
<path transform="matrix(.71870788,0,0,.71870788,.35935394,.35935394)" stroke-width="1" stroke-linecap="butt" stroke-miterlimit="10" stroke-linejoin="miter" fill="none" stroke="#000000" d="M571 641V666H491V684.63"/>
<path transform="matrix(.71870788,0,0,.71870788,.35935394,.35935394)" d="M491 689.88 487.5 682.88 491 684.63 494.5 682.88 491 689.88Z"/>
<path transform="matrix(.71870788,0,0,.71870788,.35935394,.35935394)" stroke-width="1" stroke-linecap="butt" stroke-miterlimit="10" stroke-linejoin="miter" fill="none" stroke="#000000" d="M491 689.88 487.5 682.88 491 684.63 494.5 682.88 491 689.88Z"/>
<path transform="matrix(.71870788,0,0,.71870788,.35935394,.35935394)" d="M511 581H631V641H511Z" fill="#ffffff"/>
<path transform="matrix(.71870788,0,0,.71870788,.35935394,.35935394)" stroke-width="1" stroke-linecap="butt" stroke-miterlimit="4" stroke-linejoin="miter" fill="none" stroke="#000000" d="M511 581H631V641H511Z"/>
<text xml:space="preserve" transform="matrix(.71870788 0 0 .71870788 0 0)" font-size="12" font-family="ArialMT"><tspan y="601" x="519.2969 527.9609 534.6329 537.2969 543.2969 549.9689 552.6329 559.3049 562.64089 569.31289 572.64889 579.32089 585.99288 592.66488 599.33688 606.00888 612.68087 616.6768">Calculate boundary</tspan></text>
<text xml:space="preserve" transform="matrix(.71870788 0 0 .71870788 0 0)" font-size="12" font-family="ArialMT"><tspan y="615" x="525.625 532.297 534.961 541.633 547.633 554.305 557.641 560.305 566.977 573.649 576.985 583.657 586.993 590.329 593.665 596.329 603.001 609.673">elevation of flood</tspan></text>
<text xml:space="preserve" transform="matrix(.71870788 0 0 .71870788 0 0)" font-size="12" font-family="ArialMT"><tspan y="630" x="552.3125 555.6485 562.3205 568.9925 572.3285 579.0005 582.99649">feature</tspan></text>
<path transform="matrix(.71870788,0,0,.71870788,.35935394,.35935394)" stroke-width="1" stroke-linecap="butt" stroke-miterlimit="10" stroke-linejoin="miter" fill="none" stroke="#000000" d="M491 751V771 761 774.63"/>
<path transform="matrix(.71870788,0,0,.71870788,.35935394,.35935394)" d="M491 779.88 487.5 772.88 491 774.63 494.5 772.88 491 779.88Z"/>
<path transform="matrix(.71870788,0,0,.71870788,.35935394,.35935394)" stroke-width="1" stroke-linecap="butt" stroke-miterlimit="10" stroke-linejoin="miter" fill="none" stroke="#000000" d="M491 779.88 487.5 772.88 491 774.63 494.5 772.88 491 779.88Z"/>
<path transform="matrix(.71870788,0,0,.71870788,.35935394,.35935394)" d="M431 691H551V751H431Z" fill="#ffffff"/>
<path transform="matrix(.71870788,0,0,.71870788,.35935394,.35935394)" stroke-width="1" stroke-linecap="butt" stroke-miterlimit="4" stroke-linejoin="miter" fill="none" stroke="#000000" d="M431 691H551V751H431Z"/>
<text xml:space="preserve" transform="matrix(.71870788 0 0 .71870788 0 0)" font-size="12" font-family="ArialMT"><tspan y="711" x="448.96876 456.97276 463.64476 467.64076 470.97676 477.64875 481.64476 491.64076 494.97676 503.64076 510.31275 516.98477 519.64877 526.32077">Perform Region</tspan></text>
<text xml:space="preserve" transform="matrix(.71870788 0 0 .71870788 0 0)" font-size="12" font-family="ArialMT"><tspan y="725" x="438.29689 447.63288 451.62889 458.30088 466.96488 469.62889 476.30088 482.97288 486.30888 494.97288 497.63688 500.97288 507.64488 510.98088 517.6529 524.3249 530.9969 536.9969">Growing with above</tspan></text>
<text xml:space="preserve" transform="matrix(.71870788 0 0 .71870788 0 0)" font-size="12" font-family="ArialMT"><tspan y="740" x="474.98439 477.64839 484.32038 490.99238 497.66438 501.00038">inputs</tspan></text>
<path transform="matrix(.71870788,0,0,.71870788,.35935394,.35935394)" stroke-width="1" stroke-linecap="butt" stroke-miterlimit="10" stroke-linejoin="miter" fill="none" stroke="#000000" d="M491 841V861 851 864.63"/>
<path transform="matrix(.71870788,0,0,.71870788,.35935394,.35935394)" d="M491 869.88 487.5 862.88 491 864.63 494.5 862.88 491 869.88Z"/>
<path transform="matrix(.71870788,0,0,.71870788,.35935394,.35935394)" stroke-width="1" stroke-linecap="butt" stroke-miterlimit="10" stroke-linejoin="miter" fill="none" stroke="#000000" d="M491 869.88 487.5 862.88 491 864.63 494.5 862.88 491 869.88Z"/>
<path transform="matrix(.71870788,0,0,.71870788,.35935394,.35935394)" d="M431 781H551V841H431Z" fill="#ffffff"/>
<path transform="matrix(.71870788,0,0,.71870788,.35935394,.35935394)" stroke-width="1" stroke-linecap="butt" stroke-miterlimit="4" stroke-linejoin="miter" fill="none" stroke="#000000" d="M431 781H551V841H431Z"/>
<text xml:space="preserve" transform="matrix(.71870788 0 0 .71870788 0 0)" font-size="12" font-family="ArialMT"><tspan y="801" x="432.95314 441.61714 448.28913 454.28913 460.96113 463.62513 469.62513 476.29713 478.96113 485.63313 488.96913 495.6411 498.9771 505.6491 512.3211 518.9931 525.6651 532.3371 539.0091 543.00509">Recalculate boundary</tspan></text>
<text xml:space="preserve" transform="matrix(.71870788 0 0 .71870788 0 0)" font-size="12" font-family="ArialMT"><tspan y="815" x="455.29689 461.96888 464.63288 471.30488 477.30488 483.97688 487.31288 489.97688 496.64888 503.32087 506.65687 513.32888 520.00088">elevation and</tspan></text>
<text xml:space="preserve" transform="matrix(.71870788 0 0 .71870788 0 0)" font-size="12" font-family="ArialMT"><tspan y="830" x="436.95314 443.62513 449.62513 452.96113 455.62513 465.62113 472.29313 475.62913 482.30113 485.63713 488.9731 491.63713 498.3091 504.9811 511.6531 514.98916 521.66116 528.3331 535.0051 538.3411">estimate flood depth</tspan></text>
<path transform="matrix(.71870788,0,0,.71870788,.35935394,.35935394)" d="M431 931 451 871H551L531 931H431Z" fill="#ffffff"/>
<path transform="matrix(.71870788,0,0,.71870788,.35935394,.35935394)" stroke-width="1" stroke-linecap="butt" stroke-miterlimit="10" stroke-linejoin="miter" fill="none" stroke="#000000" d="M431 931 451 871H551L531 931H431Z"/>
<text xml:space="preserve" transform="matrix(.71870788 0 0 .71870788 0 0)" font-size="12" font-family="ArialMT"><tspan y="905" x="454.64064 463.30464 469.97663 473.31263 479.98463 483.98063 490.65263 493.98863 500.6606 507.3326 510.6686 517.34066 524.01266">Return output</tspan></text>
<path transform="matrix(.71870788,0,0,.71870788,.35935394,.35935394)" stroke-width="1" stroke-linecap="butt" stroke-miterlimit="10" stroke-linejoin="miter" fill="none" stroke="#000000" d="M141 541V574.63"/>
<path transform="matrix(.71870788,0,0,.71870788,.35935394,.35935394)" d="M141 579.88 137.5 572.88 141 574.63 144.5 572.88 141 579.88Z"/>
<path transform="matrix(.71870788,0,0,.71870788,.35935394,.35935394)" stroke-width="1" stroke-linecap="butt" stroke-miterlimit="10" stroke-linejoin="miter" fill="none" stroke="#000000" d="M141 579.88 137.5 572.88 141 574.63 144.5 572.88 141 579.88Z"/>
<path transform="matrix(.71870788,0,0,.71870788,.35935394,.35935394)" d="M81 481H201V541H81Z" fill="#ffffff"/>
<path transform="matrix(.71870788,0,0,.71870788,.35935394,.35935394)" stroke-width="1" stroke-linecap="butt" stroke-miterlimit="4" stroke-linejoin="miter" fill="none" stroke="#000000" d="M81 481H201V541H81Z"/>
<text xml:space="preserve" transform="matrix(.71870788 0 0 .71870788 0 0)" font-size="12" font-family="ArialMT"><tspan y="501" x="84.625 93.289 99.961 102.625 108.625 115.297 117.961 124.632999 127.968997 134.64099 137.97699 141.31299 143.97699 150.64899 157.32099 163.99298 167.32898 174.00098 180.67298 187.34497 190.68097">Calculate flood depth</tspan></text>
<text xml:space="preserve" transform="matrix(.71870788 0 0 .71870788 0 0)" font-size="12" font-family="ArialMT"><tspan y="515" x="89.28125 95.95325 101.95325 104.61725 111.289249 117.96124 121.29724 127.96924 130.63324 137.30524 143.30524 149.97724 153.31324 155.97724 162.64923 169.32123 172.65723 179.32923 186.00122">using elevation and</tspan></text>
<text xml:space="preserve" transform="matrix(.71870788 0 0 .71870788 0 0)" font-size="12" font-family="ArialMT"><tspan y="530" x="120.984378 126.984378 133.65637 140.32837 143.66437 150.33637 157.00836">contour</tspan></text>
<path transform="matrix(.71870788,0,0,.71870788,.35935394,.35935394)" d="M81 641 101 581H201L181 641H81Z" fill="#ffffff"/>
<path transform="matrix(.71870788,0,0,.71870788,.35935394,.35935394)" stroke-width="1" stroke-linecap="butt" stroke-miterlimit="10" stroke-linejoin="miter" fill="none" stroke="#000000" d="M81 641 101 581H201L181 641H81Z"/>
<text xml:space="preserve" transform="matrix(.71870788 0 0 .71870788 0 0)" font-size="12" font-family="ArialMT"><tspan y="615" x="104.640628 113.30463 119.97662 123.31262 129.98462 133.98062 140.65262 143.98862 150.66062 157.33261 160.66861 167.3406 174.0126">Return output</tspan></text>
</g>
</svg>
